G04 #@! TF.GenerationSoftware,KiCad,Pcbnew,5.0.1-33cea8e~68~ubuntu16.04.1*
G04 #@! TF.CreationDate,2019-03-03T03:52:25-07:00*
G04 #@! TF.ProjectId,sentry,73656E7472792E6B696361645F706362,rev?*
G04 #@! TF.SameCoordinates,Original*
G04 #@! TF.FileFunction,Copper,L1,Top,Signal*
G04 #@! TF.FilePolarity,Positive*
%FSLAX46Y46*%
G04 Gerber Fmt 4.6, Leading zero omitted, Abs format (unit mm)*
G04 Created by KiCad (PCBNEW 5.0.1-33cea8e~68~ubuntu16.04.1) date Sun 03 Mar 2019 03:52:25 AM MST*
%MOMM*%
%LPD*%
G01*
G04 APERTURE LIST*
G04 #@! TA.AperFunction,WasherPad*
%ADD10C,3.300000*%
G04 #@! TD*
G04 #@! TA.AperFunction,ComponentPad*
%ADD11C,2.000000*%
G04 #@! TD*
G04 #@! TA.AperFunction,ComponentPad*
%ADD12C,1.800000*%
G04 #@! TD*
G04 #@! TA.AperFunction,SMDPad,CuDef*
%ADD13R,1.099820X0.998220*%
G04 #@! TD*
G04 #@! TA.AperFunction,ComponentPad*
%ADD14R,1.651000X1.651000*%
G04 #@! TD*
G04 #@! TA.AperFunction,ComponentPad*
%ADD15C,1.651000*%
G04 #@! TD*
G04 #@! TA.AperFunction,SMDPad,CuDef*
%ADD16R,1.798320X1.597660*%
G04 #@! TD*
G04 #@! TA.AperFunction,SMDPad,CuDef*
%ADD17R,1.350000X0.400000*%
G04 #@! TD*
G04 #@! TA.AperFunction,ComponentPad*
%ADD18O,0.950000X1.250000*%
G04 #@! TD*
G04 #@! TA.AperFunction,ComponentPad*
%ADD19O,1.550000X1.000000*%
G04 #@! TD*
G04 #@! TA.AperFunction,SMDPad,CuDef*
%ADD20R,0.998220X1.099820*%
G04 #@! TD*
G04 #@! TA.AperFunction,SMDPad,CuDef*
%ADD21R,1.550000X1.300000*%
G04 #@! TD*
G04 #@! TA.AperFunction,ComponentPad*
%ADD22R,1.800000X1.800000*%
G04 #@! TD*
G04 #@! TA.AperFunction,SMDPad,CuDef*
%ADD23R,0.450000X1.750000*%
G04 #@! TD*
G04 #@! TA.AperFunction,ComponentPad*
%ADD24R,1.778000X1.778000*%
G04 #@! TD*
G04 #@! TA.AperFunction,ComponentPad*
%ADD25C,1.778000*%
G04 #@! TD*
G04 #@! TA.AperFunction,ComponentPad*
%ADD26C,1.500000*%
G04 #@! TD*
G04 #@! TA.AperFunction,ViaPad*
%ADD27C,0.800000*%
G04 #@! TD*
G04 #@! TA.AperFunction,Conductor*
%ADD28C,0.250000*%
G04 #@! TD*
G04 APERTURE END LIST*
D10*
G04 #@! TO.P,SW1,*
G04 #@! TO.N,*
X167640000Y-80780000D03*
X167640000Y-69080000D03*
D11*
G04 #@! TO.P,SW1,S2*
G04 #@! TO.N,GND*
X166370000Y-77470000D03*
G04 #@! TO.P,SW1,S1*
G04 #@! TO.N,Net-(SW1-PadS1)*
X166370000Y-72390000D03*
G04 #@! TO.P,SW1,B*
G04 #@! TO.N,Net-(SW1-PadB)*
X168910000Y-77470000D03*
G04 #@! TO.P,SW1,A*
G04 #@! TO.N,Net-(SW1-PadA)*
X168910000Y-72430000D03*
G04 #@! TO.P,SW1,C*
G04 #@! TO.N,GND*
X168910000Y-74930000D03*
G04 #@! TD*
D12*
G04 #@! TO.P,U2,20*
G04 #@! TO.N,GND*
X101600000Y-59920000D03*
G04 #@! TO.P,U2,17*
X109220000Y-59920000D03*
G04 #@! TO.P,U2,14*
X116840000Y-59920000D03*
G04 #@! TO.P,U2,16*
G04 #@! TO.N,+5V*
X111760000Y-59920000D03*
G04 #@! TO.P,U2,13*
G04 #@! TO.N,GND*
X119380000Y-59920000D03*
G04 #@! TO.P,U2,11*
X124460000Y-59920000D03*
G04 #@! TO.P,U2,12*
X121920000Y-59920000D03*
G04 #@! TO.P,U2,19*
X104140000Y-59920000D03*
G04 #@! TO.P,U2,18*
X106680000Y-59920000D03*
G04 #@! TO.P,U2,15*
X114300000Y-59920000D03*
G04 #@! TO.P,U2,1*
X149860000Y-59920000D03*
G04 #@! TO.P,U2,2*
G04 #@! TO.N,+5V*
X147320000Y-59920000D03*
G04 #@! TO.P,U2,3*
X144780000Y-59920000D03*
G04 #@! TO.P,U2,4*
G04 #@! TO.N,GND*
X142240000Y-59920000D03*
G04 #@! TO.P,U2,5*
X139700000Y-59920000D03*
G04 #@! TO.P,U2,6*
X137160000Y-59920000D03*
G04 #@! TO.P,U2,7*
G04 #@! TO.N,Net-(TP3_19-Pad1)*
X134620000Y-59920000D03*
G04 #@! TO.P,U2,8*
G04 #@! TO.N,Net-(TP3_17-Pad1)*
X132080000Y-59920000D03*
G04 #@! TO.P,U2,9*
G04 #@! TO.N,Net-(TP4_9-Pad1)*
X129540000Y-59920000D03*
G04 #@! TO.P,U2,10*
G04 #@! TO.N,GND*
X127000000Y-59920000D03*
G04 #@! TD*
D13*
G04 #@! TO.P,C1,1*
G04 #@! TO.N,Net-(C1-Pad1)*
X134620000Y-86360000D03*
G04 #@! TO.P,C1,2*
G04 #@! TO.N,GND*
X132923280Y-86360000D03*
G04 #@! TD*
G04 #@! TO.P,C2,2*
G04 #@! TO.N,GND*
X151556720Y-86360000D03*
G04 #@! TO.P,C2,1*
G04 #@! TO.N,Net-(C2-Pad1)*
X149860000Y-86360000D03*
G04 #@! TD*
G04 #@! TO.P,C3,1*
G04 #@! TO.N,+5V*
X86192360Y-85725000D03*
G04 #@! TO.P,C3,2*
G04 #@! TO.N,GND*
X84495640Y-85725000D03*
G04 #@! TD*
D14*
G04 #@! TO.P,C4,1*
G04 #@! TO.N,+5V*
X85069680Y-81280000D03*
D15*
G04 #@! TO.P,C4,2*
G04 #@! TO.N,GND*
X82570320Y-81280000D03*
G04 #@! TD*
D16*
G04 #@! TO.P,F1,1*
G04 #@! TO.N,Net-(F1-Pad1)*
X88392000Y-80512920D03*
G04 #@! TO.P,F1,2*
G04 #@! TO.N,+5V*
X88392000Y-83312000D03*
G04 #@! TD*
D17*
G04 #@! TO.P,J1,3*
G04 #@! TO.N,Net-(J1-Pad3)*
X85090000Y-72390000D03*
G04 #@! TO.P,J1,4*
G04 #@! TO.N,Net-(J1-Pad4)*
X85090000Y-73040000D03*
G04 #@! TO.P,J1,5*
G04 #@! TO.N,Net-(F1-Pad1)*
X85090000Y-73690000D03*
G04 #@! TO.P,J1,2*
G04 #@! TO.N,GND*
X85090000Y-71740000D03*
G04 #@! TO.P,J1,1*
X85090000Y-71090000D03*
D18*
G04 #@! TO.P,J1,SH*
X85090000Y-74890000D03*
X85090000Y-69890000D03*
D19*
X82390000Y-68890000D03*
X82390000Y-75890000D03*
G04 #@! TD*
D20*
G04 #@! TO.P,R1,1*
G04 #@! TO.N,Net-(R1-Pad1)*
X154940000Y-61295280D03*
G04 #@! TO.P,R1,2*
G04 #@! TO.N,+5V*
X154940000Y-62992000D03*
G04 #@! TD*
D21*
G04 #@! TO.P,S1,1*
G04 #@! TO.N,Net-(R1-Pad1)*
X166535000Y-64480000D03*
G04 #@! TO.P,S1,2*
X158585000Y-64480000D03*
G04 #@! TO.P,S1,3*
G04 #@! TO.N,GND*
X166535000Y-59980000D03*
G04 #@! TO.P,S1,4*
X158585000Y-59980000D03*
G04 #@! TD*
D22*
G04 #@! TO.P,U1,1*
G04 #@! TO.N,Net-(R1-Pad1)*
X128270000Y-78740000D03*
D12*
G04 #@! TO.P,U1,15*
G04 #@! TO.N,Net-(TP3_15-Pad1)*
X161290000Y-71120000D03*
G04 #@! TO.P,U1,2*
G04 #@! TO.N,Net-(TP3_2-Pad1)*
X130810000Y-78740000D03*
G04 #@! TO.P,U1,16*
G04 #@! TO.N,Net-(TP3_16-Pad1)*
X158750000Y-71120000D03*
G04 #@! TO.P,U1,3*
G04 #@! TO.N,Net-(TP3_3-Pad1)*
X133350000Y-78740000D03*
G04 #@! TO.P,U1,17*
G04 #@! TO.N,Net-(TP3_17-Pad1)*
X156210000Y-71120000D03*
G04 #@! TO.P,U1,4*
G04 #@! TO.N,Net-(SW1-PadA)*
X135890000Y-78740000D03*
G04 #@! TO.P,U1,18*
G04 #@! TO.N,Net-(TP3_18-Pad1)*
X153670000Y-71120000D03*
G04 #@! TO.P,U1,5*
G04 #@! TO.N,Net-(SW1-PadB)*
X138430000Y-78740000D03*
G04 #@! TO.P,U1,19*
G04 #@! TO.N,Net-(TP3_19-Pad1)*
X151130000Y-71120000D03*
G04 #@! TO.P,U1,6*
G04 #@! TO.N,Net-(TP3_6-Pad1)*
X140970000Y-78740000D03*
G04 #@! TO.P,U1,20*
G04 #@! TO.N,+5V*
X148590000Y-71120000D03*
G04 #@! TO.P,U1,7*
X143510000Y-78740000D03*
G04 #@! TO.P,U1,21*
X146050000Y-71120000D03*
G04 #@! TO.P,U1,8*
G04 #@! TO.N,GND*
X146050000Y-78740000D03*
G04 #@! TO.P,U1,22*
X143510000Y-71120000D03*
G04 #@! TO.P,U1,9*
G04 #@! TO.N,Net-(C1-Pad1)*
X148590000Y-78740000D03*
G04 #@! TO.P,U1,23*
G04 #@! TO.N,Net-(SW1-PadS1)*
X140970000Y-71120000D03*
G04 #@! TO.P,U1,10*
G04 #@! TO.N,Net-(C2-Pad1)*
X151130000Y-78740000D03*
G04 #@! TO.P,U1,24*
G04 #@! TO.N,Net-(TP3_24-Pad1)*
X138430000Y-71120000D03*
G04 #@! TO.P,U1,11*
G04 #@! TO.N,Net-(TP3_11-Pad1)*
X153670000Y-78740000D03*
G04 #@! TO.P,U1,25*
G04 #@! TO.N,Net-(TP3_25-Pad1)*
X135890000Y-71120000D03*
G04 #@! TO.P,U1,12*
G04 #@! TO.N,Net-(TP3_12-Pad1)*
X156210000Y-78740000D03*
G04 #@! TO.P,U1,26*
G04 #@! TO.N,Net-(TP3_26-Pad1)*
X133350000Y-71120000D03*
G04 #@! TO.P,U1,13*
G04 #@! TO.N,Net-(TP3_13-Pad1)*
X158750000Y-78740000D03*
G04 #@! TO.P,U1,27*
G04 #@! TO.N,Net-(TP3_27-Pad1)*
X130810000Y-71120000D03*
G04 #@! TO.P,U1,14*
G04 #@! TO.N,Net-(BZ1-Pad1)*
X161290000Y-78740000D03*
G04 #@! TO.P,U1,28*
G04 #@! TO.N,Net-(TP3_28-Pad1)*
X128270000Y-71120000D03*
G04 #@! TD*
D23*
G04 #@! TO.P,U3,1*
G04 #@! TO.N,Net-(TP2_1-Pad1)*
X98645000Y-81070000D03*
G04 #@! TO.P,U3,2*
G04 #@! TO.N,Net-(TP2_2-Pad1)*
X99295000Y-81070000D03*
G04 #@! TO.P,U3,3*
G04 #@! TO.N,Net-(TP2_3-Pad1)*
X99945000Y-81070000D03*
G04 #@! TO.P,U3,4*
G04 #@! TO.N,+5V*
X100595000Y-81070000D03*
G04 #@! TO.P,U3,5*
G04 #@! TO.N,Net-(TP2_5-Pad1)*
X101245000Y-81070000D03*
G04 #@! TO.P,U3,6*
G04 #@! TO.N,Net-(TP2_6-Pad1)*
X101895000Y-81070000D03*
G04 #@! TO.P,U3,7*
G04 #@! TO.N,GND*
X102545000Y-81070000D03*
G04 #@! TO.P,U3,8*
G04 #@! TO.N,Net-(TP2_8-Pad1)*
X103195000Y-81070000D03*
G04 #@! TO.P,U3,9*
G04 #@! TO.N,Net-(TP2_9-Pad1)*
X103845000Y-81070000D03*
G04 #@! TO.P,U3,10*
G04 #@! TO.N,Net-(TP2_10-Pad1)*
X104495000Y-81070000D03*
G04 #@! TO.P,U3,11*
G04 #@! TO.N,Net-(TP2_11-Pad1)*
X105145000Y-81070000D03*
G04 #@! TO.P,U3,12*
G04 #@! TO.N,Net-(TP2_12-Pad1)*
X105795000Y-81070000D03*
G04 #@! TO.P,U3,13*
G04 #@! TO.N,Net-(TP2_13-Pad1)*
X106445000Y-81070000D03*
G04 #@! TO.P,U3,14*
G04 #@! TO.N,Net-(TP2_14-Pad1)*
X107095000Y-81070000D03*
G04 #@! TO.P,U3,15*
G04 #@! TO.N,Net-(J1-Pad3)*
X107095000Y-73870000D03*
G04 #@! TO.P,U3,16*
G04 #@! TO.N,Net-(J1-Pad4)*
X106445000Y-73870000D03*
G04 #@! TO.P,U3,17*
G04 #@! TO.N,Net-(TP2_17-Pad1)*
X105795000Y-73870000D03*
G04 #@! TO.P,U3,18*
G04 #@! TO.N,GND*
X105145000Y-73870000D03*
G04 #@! TO.P,U3,19*
G04 #@! TO.N,+5V*
X104495000Y-73870000D03*
G04 #@! TO.P,U3,20*
X103845000Y-73870000D03*
G04 #@! TO.P,U3,21*
G04 #@! TO.N,GND*
X103195000Y-73870000D03*
G04 #@! TO.P,U3,22*
G04 #@! TO.N,Net-(TP2_22-Pad1)*
X102545000Y-73870000D03*
G04 #@! TO.P,U3,23*
G04 #@! TO.N,Net-(TP2_23-Pad1)*
X101895000Y-73870000D03*
G04 #@! TO.P,U3,24*
G04 #@! TO.N,Net-(TP2_24-Pad1)*
X101245000Y-73870000D03*
G04 #@! TO.P,U3,25*
G04 #@! TO.N,GND*
X100595000Y-73870000D03*
G04 #@! TO.P,U3,26*
X99945000Y-73870000D03*
G04 #@! TO.P,U3,27*
G04 #@! TO.N,Net-(TP2_27-Pad1)*
X99295000Y-73870000D03*
G04 #@! TO.P,U3,28*
G04 #@! TO.N,Net-(TP2_28-Pad1)*
X98645000Y-73870000D03*
G04 #@! TD*
D15*
G04 #@! TO.P,Y1,1*
G04 #@! TO.N,Net-(C2-Pad1)*
X144780000Y-86360000D03*
G04 #@! TO.P,Y1,2*
G04 #@! TO.N,Net-(C1-Pad1)*
X139700000Y-86360000D03*
G04 #@! TD*
D24*
G04 #@! TO.P,BZ1,1*
G04 #@! TO.N,Net-(BZ1-Pad1)*
X121358660Y-77470000D03*
D25*
G04 #@! TO.P,BZ1,2*
G04 #@! TO.N,GND*
X114861340Y-77470000D03*
G04 #@! TD*
D26*
G04 #@! TO.P,TP1_1,1*
G04 #@! TO.N,GND*
X93980000Y-72390000D03*
G04 #@! TD*
G04 #@! TO.P,TP1_2,1*
G04 #@! TO.N,GND*
X93980000Y-74930000D03*
G04 #@! TD*
G04 #@! TO.P,TP1_3,1*
G04 #@! TO.N,Net-(J1-Pad3)*
X93980000Y-77470000D03*
G04 #@! TD*
G04 #@! TO.P,TP1_4,1*
G04 #@! TO.N,Net-(J1-Pad4)*
X93980000Y-80010000D03*
G04 #@! TD*
G04 #@! TO.P,TP1_5,1*
G04 #@! TO.N,Net-(F1-Pad1)*
X93980000Y-82550000D03*
G04 #@! TD*
G04 #@! TO.P,TP2_1,1*
G04 #@! TO.N,Net-(TP2_1-Pad1)*
X90170000Y-87630000D03*
G04 #@! TD*
G04 #@! TO.P,TP2_2,1*
G04 #@! TO.N,Net-(TP2_2-Pad1)*
X92710000Y-87630000D03*
G04 #@! TD*
G04 #@! TO.P,TP2_3,1*
G04 #@! TO.N,Net-(TP2_3-Pad1)*
X95250000Y-87630000D03*
G04 #@! TD*
G04 #@! TO.P,TP2_4,1*
G04 #@! TO.N,+5V*
X97790000Y-87630000D03*
G04 #@! TD*
G04 #@! TO.P,TP2_5,1*
G04 #@! TO.N,Net-(TP2_5-Pad1)*
X100330000Y-87630000D03*
G04 #@! TD*
G04 #@! TO.P,TP2_6,1*
G04 #@! TO.N,Net-(TP2_6-Pad1)*
X102870000Y-87630000D03*
G04 #@! TD*
G04 #@! TO.P,TP2_7,1*
G04 #@! TO.N,GND*
X105410000Y-87630000D03*
G04 #@! TD*
G04 #@! TO.P,TP2_8,1*
G04 #@! TO.N,Net-(TP2_8-Pad1)*
X107950000Y-87630000D03*
G04 #@! TD*
G04 #@! TO.P,TP2_9,1*
G04 #@! TO.N,Net-(TP2_9-Pad1)*
X110490000Y-87630000D03*
G04 #@! TD*
G04 #@! TO.P,TP2_10,1*
G04 #@! TO.N,Net-(TP2_10-Pad1)*
X113030000Y-87630000D03*
G04 #@! TD*
G04 #@! TO.P,TP2_11,1*
G04 #@! TO.N,Net-(TP2_11-Pad1)*
X115570000Y-87630000D03*
G04 #@! TD*
G04 #@! TO.P,TP2_12,1*
G04 #@! TO.N,Net-(TP2_12-Pad1)*
X118110000Y-87630000D03*
G04 #@! TD*
G04 #@! TO.P,TP2_13,1*
G04 #@! TO.N,Net-(TP2_13-Pad1)*
X120650000Y-87630000D03*
G04 #@! TD*
G04 #@! TO.P,TP2_14,1*
G04 #@! TO.N,Net-(TP2_14-Pad1)*
X123190000Y-87630000D03*
G04 #@! TD*
G04 #@! TO.P,TP2_15,1*
G04 #@! TO.N,Net-(J1-Pad3)*
X123190000Y-68580000D03*
G04 #@! TD*
G04 #@! TO.P,TP2_16,1*
G04 #@! TO.N,Net-(J1-Pad4)*
X120650000Y-68580000D03*
G04 #@! TD*
G04 #@! TO.P,TP2_18,1*
G04 #@! TO.N,GND*
X115570000Y-68580000D03*
G04 #@! TD*
G04 #@! TO.P,TP2_19,1*
G04 #@! TO.N,+5V*
X113030000Y-68580000D03*
G04 #@! TD*
G04 #@! TO.P,TP2_20,1*
G04 #@! TO.N,+5V*
X110490000Y-68580000D03*
G04 #@! TD*
G04 #@! TO.P,TP2_21,1*
G04 #@! TO.N,GND*
X107950000Y-68580000D03*
G04 #@! TD*
G04 #@! TO.P,TP2_22,1*
G04 #@! TO.N,Net-(TP2_22-Pad1)*
X105410000Y-68580000D03*
G04 #@! TD*
G04 #@! TO.P,TP2_23,1*
G04 #@! TO.N,Net-(TP2_23-Pad1)*
X102870000Y-68580000D03*
G04 #@! TD*
G04 #@! TO.P,TP2_24,1*
G04 #@! TO.N,Net-(TP2_24-Pad1)*
X100330000Y-68580000D03*
G04 #@! TD*
G04 #@! TO.P,TP2_25,1*
G04 #@! TO.N,GND*
X97790000Y-68580000D03*
G04 #@! TD*
G04 #@! TO.P,TP2_26,1*
G04 #@! TO.N,GND*
X95250000Y-68580000D03*
G04 #@! TD*
G04 #@! TO.P,TP2_27,1*
G04 #@! TO.N,Net-(TP2_27-Pad1)*
X92710000Y-68580000D03*
G04 #@! TD*
G04 #@! TO.P,TP3_1,1*
G04 #@! TO.N,Net-(R1-Pad1)*
X128270000Y-81280000D03*
G04 #@! TD*
G04 #@! TO.P,TP3_2,1*
G04 #@! TO.N,Net-(TP3_2-Pad1)*
X130810000Y-81280000D03*
G04 #@! TD*
G04 #@! TO.P,TP3_3,1*
G04 #@! TO.N,Net-(TP3_3-Pad1)*
X133350000Y-81280000D03*
G04 #@! TD*
G04 #@! TO.P,TP3_4,1*
G04 #@! TO.N,Net-(SW1-PadA)*
X135890000Y-81280000D03*
G04 #@! TD*
G04 #@! TO.P,TP3_5,1*
G04 #@! TO.N,Net-(SW1-PadB)*
X138430000Y-81280000D03*
G04 #@! TD*
G04 #@! TO.P,TP3_6,1*
G04 #@! TO.N,Net-(TP3_6-Pad1)*
X140970000Y-81280000D03*
G04 #@! TD*
G04 #@! TO.P,TP3_7,1*
G04 #@! TO.N,+5V*
X143510000Y-81280000D03*
G04 #@! TD*
G04 #@! TO.P,TP3_8,1*
G04 #@! TO.N,GND*
X146050000Y-81280000D03*
G04 #@! TD*
G04 #@! TO.P,TP3_9,1*
G04 #@! TO.N,Net-(C1-Pad1)*
X148590000Y-81280000D03*
G04 #@! TD*
G04 #@! TO.P,TP3_10,1*
G04 #@! TO.N,Net-(C2-Pad1)*
X151130000Y-81280000D03*
G04 #@! TD*
G04 #@! TO.P,TP3_11,1*
G04 #@! TO.N,Net-(TP3_11-Pad1)*
X153670000Y-81280000D03*
G04 #@! TD*
G04 #@! TO.P,TP3_12,1*
G04 #@! TO.N,Net-(TP3_12-Pad1)*
X156210000Y-81280000D03*
G04 #@! TD*
G04 #@! TO.P,TP3_13,1*
G04 #@! TO.N,Net-(TP3_13-Pad1)*
X158750000Y-81280000D03*
G04 #@! TD*
G04 #@! TO.P,TP3_14,1*
G04 #@! TO.N,Net-(BZ1-Pad1)*
X161290000Y-81280000D03*
G04 #@! TD*
G04 #@! TO.P,TP3_15,1*
G04 #@! TO.N,Net-(TP3_15-Pad1)*
X161290000Y-68580000D03*
G04 #@! TD*
G04 #@! TO.P,TP3_16,1*
G04 #@! TO.N,Net-(TP3_16-Pad1)*
X158750000Y-68580000D03*
G04 #@! TD*
G04 #@! TO.P,TP3_17,1*
G04 #@! TO.N,Net-(TP3_17-Pad1)*
X156210000Y-68580000D03*
G04 #@! TD*
G04 #@! TO.P,TP3_18,1*
G04 #@! TO.N,Net-(TP3_18-Pad1)*
X153670000Y-68580000D03*
G04 #@! TD*
G04 #@! TO.P,TP3_19,1*
G04 #@! TO.N,Net-(TP3_19-Pad1)*
X151130000Y-68580000D03*
G04 #@! TD*
G04 #@! TO.P,TP3_20,1*
G04 #@! TO.N,+5V*
X148590000Y-68580000D03*
G04 #@! TD*
G04 #@! TO.P,TP3_21,1*
G04 #@! TO.N,+5V*
X146050000Y-68580000D03*
G04 #@! TD*
G04 #@! TO.P,TP3_22,1*
G04 #@! TO.N,GND*
X143510000Y-68580000D03*
G04 #@! TD*
G04 #@! TO.P,TP3_23,1*
G04 #@! TO.N,Net-(SW1-PadS1)*
X140970000Y-68580000D03*
G04 #@! TD*
G04 #@! TO.P,TP3_24,1*
G04 #@! TO.N,Net-(TP3_24-Pad1)*
X138430000Y-68580000D03*
G04 #@! TD*
G04 #@! TO.P,TP3_25,1*
G04 #@! TO.N,Net-(TP3_25-Pad1)*
X135890000Y-68580000D03*
G04 #@! TD*
G04 #@! TO.P,TP3_26,1*
G04 #@! TO.N,Net-(TP3_26-Pad1)*
X133350000Y-68580000D03*
G04 #@! TD*
G04 #@! TO.P,TP3_27,1*
G04 #@! TO.N,Net-(TP3_27-Pad1)*
X130810000Y-68580000D03*
G04 #@! TD*
G04 #@! TO.P,TP3_28,1*
G04 #@! TO.N,Net-(TP3_28-Pad1)*
X128270000Y-68580000D03*
G04 #@! TD*
G04 #@! TO.P,TP4_1,1*
G04 #@! TO.N,GND*
X149860000Y-62230000D03*
G04 #@! TD*
G04 #@! TO.P,TP4_2,1*
G04 #@! TO.N,+5V*
X147320000Y-62230000D03*
G04 #@! TD*
G04 #@! TO.P,TP4_3,1*
G04 #@! TO.N,+5V*
X144780000Y-62230000D03*
G04 #@! TD*
G04 #@! TO.P,TP4_4,1*
G04 #@! TO.N,GND*
X142240000Y-62230000D03*
G04 #@! TD*
G04 #@! TO.P,TP4_5,1*
G04 #@! TO.N,GND*
X139700000Y-62230000D03*
G04 #@! TD*
G04 #@! TO.P,TP4_6,1*
G04 #@! TO.N,GND*
X137160000Y-62230000D03*
G04 #@! TD*
G04 #@! TO.P,TP4_7,1*
G04 #@! TO.N,Net-(TP3_19-Pad1)*
X134620000Y-62230000D03*
G04 #@! TD*
G04 #@! TO.P,TP4_8,1*
G04 #@! TO.N,Net-(TP3_17-Pad1)*
X132080000Y-62230000D03*
G04 #@! TD*
G04 #@! TO.P,TP4_9,1*
G04 #@! TO.N,Net-(TP4_9-Pad1)*
X129540000Y-62230000D03*
G04 #@! TD*
G04 #@! TO.P,TP4_10,1*
G04 #@! TO.N,GND*
X127000000Y-62230000D03*
G04 #@! TD*
G04 #@! TO.P,TP4_11,1*
G04 #@! TO.N,GND*
X124460000Y-62230000D03*
G04 #@! TD*
G04 #@! TO.P,TP4_12,1*
G04 #@! TO.N,GND*
X121920000Y-62230000D03*
G04 #@! TD*
G04 #@! TO.P,TP4_13,1*
G04 #@! TO.N,GND*
X119380000Y-62230000D03*
G04 #@! TD*
G04 #@! TO.P,TP4_14,1*
G04 #@! TO.N,GND*
X116840000Y-62230000D03*
G04 #@! TD*
G04 #@! TO.P,TP4_15,1*
G04 #@! TO.N,GND*
X114300000Y-62230000D03*
G04 #@! TD*
G04 #@! TO.P,TP4_16,1*
G04 #@! TO.N,+5V*
X111760000Y-62230000D03*
G04 #@! TD*
G04 #@! TO.P,TP4_17,1*
G04 #@! TO.N,GND*
X109220000Y-62230000D03*
G04 #@! TD*
G04 #@! TO.P,TP4_18,1*
G04 #@! TO.N,GND*
X106680000Y-62230000D03*
G04 #@! TD*
G04 #@! TO.P,TP4_19,1*
G04 #@! TO.N,GND*
X104140000Y-62230000D03*
G04 #@! TD*
G04 #@! TO.P,TP4_20,1*
G04 #@! TO.N,GND*
X101600000Y-62230000D03*
G04 #@! TD*
G04 #@! TO.P,TP5_A1,1*
G04 #@! TO.N,Net-(SW1-PadA)*
X161290000Y-85090000D03*
G04 #@! TD*
G04 #@! TO.P,TP5_B1,1*
G04 #@! TO.N,Net-(SW1-PadB)*
X166370000Y-85090000D03*
G04 #@! TD*
G04 #@! TO.P,TP5_C1,1*
G04 #@! TO.N,GND*
X163830000Y-85090000D03*
G04 #@! TD*
G04 #@! TO.P,TP5_S1,1*
G04 #@! TO.N,Net-(SW1-PadS1)*
X161290000Y-87630000D03*
G04 #@! TD*
G04 #@! TO.P,TP5_S2,1*
G04 #@! TO.N,GND*
X166370000Y-87630000D03*
G04 #@! TD*
G04 #@! TO.P,TP2_17,1*
G04 #@! TO.N,Net-(TP2_17-Pad1)*
X118110000Y-68580000D03*
G04 #@! TD*
G04 #@! TO.P,TP2_28,1*
G04 #@! TO.N,Net-(TP2_28-Pad1)*
X90170000Y-68580000D03*
G04 #@! TD*
D27*
G04 #@! TO.N,GND*
X142240000Y-66040000D03*
G04 #@! TO.N,Net-(R1-Pad1)*
X164084000Y-64480000D03*
G04 #@! TO.N,Net-(SW1-PadB)*
X164592000Y-78232000D03*
G04 #@! TO.N,Net-(TP3_19-Pad1)*
X137160000Y-65024000D03*
G04 #@! TD*
D28*
G04 #@! TO.N,Net-(C1-Pad1)*
X134620000Y-86360000D02*
X139700000Y-86360000D01*
X148590000Y-81280000D02*
X148590000Y-78740000D01*
G04 #@! TO.N,GND*
X92680000Y-71090000D02*
X93980000Y-72390000D01*
X85090000Y-71090000D02*
X92680000Y-71090000D01*
X82570320Y-83850480D02*
X84444840Y-85725000D01*
X84444840Y-85725000D02*
X84495640Y-85725000D01*
X82570320Y-81280000D02*
X82570320Y-83850480D01*
X105145000Y-72745000D02*
X106770000Y-71120000D01*
X105145000Y-73870000D02*
X105145000Y-72745000D01*
X113030000Y-71120000D02*
X115570000Y-68580000D01*
X106770000Y-71120000D02*
X113030000Y-71120000D01*
X103195000Y-72745000D02*
X106344000Y-69596000D01*
X103195000Y-73870000D02*
X103195000Y-72745000D01*
X106934000Y-69596000D02*
X107950000Y-68580000D01*
X106344000Y-69596000D02*
X106934000Y-69596000D01*
X100595000Y-71385000D02*
X97790000Y-68580000D01*
X100595000Y-73870000D02*
X100595000Y-71385000D01*
X95250000Y-68580000D02*
X97790000Y-71120000D01*
X99945000Y-72745000D02*
X99945000Y-73870000D01*
X98320000Y-71120000D02*
X99945000Y-72745000D01*
X97790000Y-71120000D02*
X98320000Y-71120000D01*
X102545000Y-84765000D02*
X102545000Y-81070000D01*
X105410000Y-87630000D02*
X102545000Y-84765000D01*
X132974080Y-86360000D02*
X135514080Y-83820000D01*
X132923280Y-86360000D02*
X132974080Y-86360000D01*
X143510000Y-83820000D02*
X146050000Y-81280000D01*
X135514080Y-83820000D02*
X143510000Y-83820000D01*
X146050000Y-81280000D02*
X148590000Y-83820000D01*
X151505920Y-86360000D02*
X151556720Y-86360000D01*
X148965920Y-83820000D02*
X151505920Y-86360000D01*
X148590000Y-83820000D02*
X148965920Y-83820000D01*
X163830000Y-85090000D02*
X166370000Y-87630000D01*
X151556720Y-88056720D02*
X151556720Y-86360000D01*
X101600000Y-59920000D02*
X101600000Y-62230000D01*
X104140000Y-62230000D02*
X104140000Y-59920000D01*
X106680000Y-59920000D02*
X106680000Y-62230000D01*
X109220000Y-62230000D02*
X109220000Y-59920000D01*
X114300000Y-59920000D02*
X114300000Y-62230000D01*
X116840000Y-62230000D02*
X116840000Y-59920000D01*
X119380000Y-59920000D02*
X119380000Y-62230000D01*
X121920000Y-62230000D02*
X121920000Y-59920000D01*
X124460000Y-59920000D02*
X124460000Y-62230000D01*
X127000000Y-62230000D02*
X127000000Y-59920000D01*
X137160000Y-59920000D02*
X137160000Y-62230000D01*
X139700000Y-62230000D02*
X139700000Y-59920000D01*
X142240000Y-59920000D02*
X142240000Y-62230000D01*
X149860000Y-59920000D02*
X149860000Y-62230000D01*
X143510000Y-68580000D02*
X143510000Y-71120000D01*
X146050000Y-80012792D02*
X146050000Y-81280000D01*
X146050000Y-78740000D02*
X146050000Y-80012792D01*
X158585000Y-59980000D02*
X166535000Y-59980000D01*
X152110000Y-59980000D02*
X149860000Y-62230000D01*
X158585000Y-59980000D02*
X152110000Y-59980000D01*
X142240000Y-62230000D02*
X142240000Y-63290660D01*
X142240000Y-63290660D02*
X142240000Y-66040000D01*
X142240000Y-66040000D02*
X142240000Y-66040000D01*
X166370000Y-87630000D02*
X165100000Y-88900000D01*
X152400000Y-88900000D02*
X151556720Y-88056720D01*
X165100000Y-88900000D02*
X152400000Y-88900000D01*
X90790000Y-71740000D02*
X93980000Y-74930000D01*
X85090000Y-71740000D02*
X90790000Y-71740000D01*
X166370000Y-87630000D02*
X168148000Y-85852000D01*
X168148000Y-84582000D02*
X165354000Y-81788000D01*
X165354000Y-78486000D02*
X166370000Y-77470000D01*
X168148000Y-85852000D02*
X168148000Y-84582000D01*
X165354000Y-81788000D02*
X165354000Y-78486000D01*
X163830000Y-85090000D02*
X163830000Y-76200000D01*
X165100000Y-74930000D02*
X168910000Y-74930000D01*
X163830000Y-76200000D02*
X165100000Y-74930000D01*
G04 #@! TO.N,Net-(C2-Pad1)*
X144780000Y-86360000D02*
X149860000Y-86360000D01*
X151130000Y-80012792D02*
X151130000Y-81280000D01*
X151130000Y-78740000D02*
X151130000Y-80012792D01*
G04 #@! TO.N,+5V*
X85834220Y-82044540D02*
X85069680Y-81280000D01*
X86268370Y-85725000D02*
X86192360Y-85725000D01*
X100595000Y-84825000D02*
X97790000Y-87630000D01*
X100595000Y-81070000D02*
X100595000Y-84825000D01*
X103845000Y-72745000D02*
X106486000Y-70104000D01*
X103845000Y-73870000D02*
X103845000Y-72745000D01*
X108966000Y-70104000D02*
X110490000Y-68580000D01*
X106486000Y-70104000D02*
X108966000Y-70104000D01*
X144780000Y-59920000D02*
X144780000Y-62230000D01*
X147320000Y-59920000D02*
X147320000Y-62230000D01*
X111760000Y-59920000D02*
X111760000Y-62230000D01*
X111760000Y-67310000D02*
X110490000Y-68580000D01*
X146050000Y-68580000D02*
X146050000Y-71120000D01*
X148590000Y-68580000D02*
X148590000Y-71120000D01*
X143510000Y-80012792D02*
X143510000Y-81280000D01*
X143510000Y-78740000D02*
X143510000Y-80012792D01*
X144780000Y-67310000D02*
X146050000Y-68580000D01*
X147320000Y-67310000D02*
X148590000Y-68580000D01*
X147320000Y-62230000D02*
X147320000Y-65024000D01*
X144780000Y-62230000D02*
X144780000Y-65024000D01*
X154178000Y-62992000D02*
X154940000Y-62992000D01*
X148590000Y-68580000D02*
X154178000Y-62992000D01*
X147320000Y-65024000D02*
X147320000Y-66040000D01*
X144780000Y-65024000D02*
X144780000Y-66040000D01*
X111760000Y-62230000D02*
X111760000Y-66040000D01*
X144780000Y-72390000D02*
X144780000Y-69850000D01*
X119380000Y-76200000D02*
X120396000Y-75184000D01*
X143510000Y-81280000D02*
X141478000Y-83312000D01*
X144780000Y-69850000D02*
X146050000Y-68580000D01*
X120396000Y-75184000D02*
X141986000Y-75184000D01*
X123952000Y-83312000D02*
X119380000Y-78740000D01*
X119380000Y-78740000D02*
X119380000Y-76200000D01*
X144526000Y-75184000D02*
X143256000Y-73914000D01*
X147320000Y-74168000D02*
X146304000Y-75184000D01*
X141986000Y-75184000D02*
X143256000Y-73914000D01*
X143256000Y-73914000D02*
X144780000Y-72390000D01*
X146304000Y-75184000D02*
X144526000Y-75184000D01*
X148590000Y-68580000D02*
X147320000Y-69850000D01*
X147320000Y-69850000D02*
X147320000Y-74168000D01*
X141478000Y-83312000D02*
X125476000Y-83312000D01*
X125476000Y-83312000D02*
X123952000Y-83312000D01*
X147320000Y-67056000D02*
X147320000Y-67310000D01*
X147320000Y-67056000D02*
X144780000Y-67056000D01*
X147320000Y-66040000D02*
X147320000Y-67056000D01*
X144780000Y-66040000D02*
X144780000Y-67056000D01*
X144780000Y-67056000D02*
X144780000Y-67310000D01*
X144780000Y-67056000D02*
X111760000Y-67056000D01*
X111760000Y-67056000D02*
X111760000Y-67310000D01*
X111760000Y-66040000D02*
X111760000Y-67056000D01*
X86192360Y-85411310D02*
X86192360Y-85725000D01*
X88291670Y-83312000D02*
X86192360Y-85411310D01*
X88392000Y-83312000D02*
X88291670Y-83312000D01*
X85069680Y-82355500D02*
X85069680Y-81280000D01*
X86026180Y-83312000D02*
X85069680Y-82355500D01*
X88392000Y-83312000D02*
X86026180Y-83312000D01*
X125476000Y-88392000D02*
X125476000Y-83312000D01*
X124968000Y-88900000D02*
X125476000Y-88392000D01*
X99060000Y-88900000D02*
X124968000Y-88900000D01*
X97790000Y-87630000D02*
X99060000Y-88900000D01*
X104495000Y-72745000D02*
X106628000Y-70612000D01*
X104495000Y-73870000D02*
X104495000Y-72745000D01*
X110998000Y-70612000D02*
X113030000Y-68580000D01*
X106628000Y-70612000D02*
X110998000Y-70612000D01*
X110490000Y-68580000D02*
X113030000Y-68580000D01*
G04 #@! TO.N,Net-(F1-Pad1)*
X85171384Y-73690000D02*
X88900000Y-77418616D01*
X85090000Y-73690000D02*
X85171384Y-73690000D01*
X90675460Y-79245460D02*
X93980000Y-82550000D01*
X88900000Y-77470000D02*
X90675460Y-79245460D01*
X88900000Y-77418616D02*
X88900000Y-77470000D01*
X88492330Y-80512920D02*
X88392000Y-80512920D01*
X90529410Y-82550000D02*
X88492330Y-80512920D01*
X93980000Y-82550000D02*
X90529410Y-82550000D01*
G04 #@! TO.N,Net-(J1-Pad3)*
X88900000Y-72390000D02*
X93980000Y-77470000D01*
X85090000Y-72390000D02*
X88900000Y-72390000D01*
X107095000Y-73220000D02*
X107095000Y-73870000D01*
X107671000Y-72644000D02*
X107095000Y-73220000D01*
X123190000Y-68580000D02*
X119126000Y-72644000D01*
X93980000Y-77470000D02*
X108458000Y-77470000D01*
X108458000Y-77470000D02*
X111760000Y-74168000D01*
X111760000Y-72644000D02*
X107671000Y-72644000D01*
X111760000Y-74168000D02*
X111760000Y-72644000D01*
X119126000Y-72644000D02*
X111760000Y-72644000D01*
G04 #@! TO.N,Net-(J1-Pad4)*
X87010000Y-73040000D02*
X93980000Y-80010000D01*
X85090000Y-73040000D02*
X87010000Y-73040000D01*
X120650000Y-68580000D02*
X117094000Y-72136000D01*
X107054000Y-72136000D02*
X106445000Y-72745000D01*
X106445000Y-72745000D02*
X106445000Y-73870000D01*
X117094000Y-72136000D02*
X107054000Y-72136000D01*
G04 #@! TO.N,Net-(R1-Pad1)*
X128270000Y-78740000D02*
X128270000Y-81280000D01*
X158585000Y-62573000D02*
X158585000Y-64480000D01*
X154940000Y-61295280D02*
X154940000Y-61346080D01*
X155061920Y-61468000D02*
X157480000Y-61468000D01*
X154940000Y-61346080D02*
X155061920Y-61468000D01*
X157480000Y-61468000D02*
X158585000Y-62573000D01*
X158585000Y-64480000D02*
X164084000Y-64480000D01*
X164084000Y-64480000D02*
X166535000Y-64480000D01*
G04 #@! TO.N,Net-(SW1-PadA)*
X135890000Y-81280000D02*
X135890000Y-78740000D01*
G04 #@! TO.N,Net-(SW1-PadB)*
X138430000Y-80012792D02*
X138430000Y-81280000D01*
X138430000Y-78740000D02*
X138430000Y-80012792D01*
X164592000Y-83312000D02*
X166370000Y-85090000D01*
X164592000Y-78232000D02*
X164592000Y-83312000D01*
G04 #@! TO.N,Net-(SW1-PadS1)*
X140970000Y-68580000D02*
X140970000Y-71120000D01*
X162560000Y-86360000D02*
X161290000Y-87630000D01*
X166370000Y-72390000D02*
X163264009Y-75495991D01*
X163264009Y-75495991D02*
X163264009Y-83369991D01*
X163264009Y-83369991D02*
X162560000Y-84074000D01*
X162560000Y-84074000D02*
X162560000Y-86360000D01*
G04 #@! TO.N,Net-(BZ1-Pad1)*
X161290000Y-80012792D02*
X161290000Y-81280000D01*
X161290000Y-78740000D02*
X161290000Y-80012792D01*
X121358660Y-77470000D02*
X122497660Y-77470000D01*
X123259660Y-76708000D02*
X162052000Y-76708000D01*
X122497660Y-77470000D02*
X123259660Y-76708000D01*
X161290000Y-81280000D02*
X162814000Y-79756000D01*
X162814000Y-77470000D02*
X162052000Y-76708000D01*
X162814000Y-79756000D02*
X162814000Y-77470000D01*
G04 #@! TO.N,Net-(TP2_1-Pad1)*
X98170000Y-81070000D02*
X93896000Y-85344000D01*
X98645000Y-81070000D02*
X98170000Y-81070000D01*
X92456000Y-85344000D02*
X90170000Y-87630000D01*
X93896000Y-85344000D02*
X92456000Y-85344000D01*
G04 #@! TO.N,Net-(TP2_2-Pad1)*
X99295000Y-82195000D02*
X96146000Y-85344000D01*
X99295000Y-81070000D02*
X99295000Y-82195000D01*
X94996000Y-85344000D02*
X92710000Y-87630000D01*
X96146000Y-85344000D02*
X94996000Y-85344000D01*
G04 #@! TO.N,Net-(TP2_3-Pad1)*
X99945000Y-82935000D02*
X95250000Y-87630000D01*
X99945000Y-81070000D02*
X99945000Y-82935000D01*
G04 #@! TO.N,Net-(TP2_5-Pad1)*
X101245000Y-86715000D02*
X100330000Y-87630000D01*
X101245000Y-81070000D02*
X101245000Y-86715000D01*
G04 #@! TO.N,Net-(TP2_6-Pad1)*
X101895000Y-86655000D02*
X102870000Y-87630000D01*
X101895000Y-81070000D02*
X101895000Y-86655000D01*
G04 #@! TO.N,Net-(TP2_8-Pad1)*
X103195000Y-82875000D02*
X103195000Y-81070000D01*
X107950000Y-87630000D02*
X103195000Y-82875000D01*
G04 #@! TO.N,Net-(TP2_9-Pad1)*
X103845000Y-82195000D02*
X103845000Y-81070000D01*
X106428009Y-84778009D02*
X103845000Y-82195000D01*
X107638009Y-84778009D02*
X106428009Y-84778009D01*
X110490000Y-87630000D02*
X107638009Y-84778009D01*
G04 #@! TO.N,Net-(TP2_10-Pad1)*
X106628000Y-84328000D02*
X104495000Y-82195000D01*
X104495000Y-82195000D02*
X104495000Y-81070000D01*
X109728000Y-84328000D02*
X106628000Y-84328000D01*
X113030000Y-87630000D02*
X109728000Y-84328000D01*
G04 #@! TO.N,Net-(TP2_11-Pad1)*
X106770000Y-83820000D02*
X105145000Y-82195000D01*
X105145000Y-82195000D02*
X105145000Y-81070000D01*
X111760000Y-83820000D02*
X106770000Y-83820000D01*
X115570000Y-87630000D02*
X111760000Y-83820000D01*
G04 #@! TO.N,Net-(TP2_12-Pad1)*
X105795000Y-82195000D02*
X105795000Y-81070000D01*
X106912000Y-83312000D02*
X105795000Y-82195000D01*
X113792000Y-83312000D02*
X106912000Y-83312000D01*
X118110000Y-87630000D02*
X113792000Y-83312000D01*
G04 #@! TO.N,Net-(TP2_13-Pad1)*
X106445000Y-82195000D02*
X106445000Y-81070000D01*
X107054000Y-82804000D02*
X106445000Y-82195000D01*
X115824000Y-82804000D02*
X107054000Y-82804000D01*
X120650000Y-87630000D02*
X115824000Y-82804000D01*
G04 #@! TO.N,Net-(TP2_14-Pad1)*
X116630000Y-81070000D02*
X107095000Y-81070000D01*
X123190000Y-87630000D02*
X116630000Y-81070000D01*
G04 #@! TO.N,Net-(TP2_22-Pad1)*
X102545000Y-71445000D02*
X102545000Y-73870000D01*
X105410000Y-68580000D02*
X102545000Y-71445000D01*
G04 #@! TO.N,Net-(TP2_23-Pad1)*
X101895000Y-69555000D02*
X101895000Y-73870000D01*
X102870000Y-68580000D02*
X101895000Y-69555000D01*
G04 #@! TO.N,Net-(TP2_24-Pad1)*
X101245000Y-69495000D02*
X101245000Y-73870000D01*
X100330000Y-68580000D02*
X101245000Y-69495000D01*
G04 #@! TO.N,Net-(TP2_27-Pad1)*
X92710000Y-68580000D02*
X94234000Y-70104000D01*
X94234000Y-70104000D02*
X95504000Y-70104000D01*
X99295000Y-72745000D02*
X99295000Y-73870000D01*
X98178000Y-71628000D02*
X99295000Y-72745000D01*
X97028000Y-71628000D02*
X98178000Y-71628000D01*
X95504000Y-70104000D02*
X97028000Y-71628000D01*
G04 #@! TO.N,Net-(TP3_2-Pad1)*
X130810000Y-81280000D02*
X130810000Y-78740000D01*
G04 #@! TO.N,Net-(TP3_3-Pad1)*
X133350000Y-80012792D02*
X133350000Y-81280000D01*
X133350000Y-78740000D02*
X133350000Y-80012792D01*
G04 #@! TO.N,Net-(TP3_6-Pad1)*
X140970000Y-81280000D02*
X140970000Y-78740000D01*
G04 #@! TO.N,Net-(TP3_11-Pad1)*
X153670000Y-81280000D02*
X153670000Y-78740000D01*
G04 #@! TO.N,Net-(TP3_12-Pad1)*
X156210000Y-80012792D02*
X156210000Y-81280000D01*
X156210000Y-78740000D02*
X156210000Y-80012792D01*
G04 #@! TO.N,Net-(TP3_13-Pad1)*
X158750000Y-80012792D02*
X158750000Y-81280000D01*
X158750000Y-78740000D02*
X158750000Y-80012792D01*
G04 #@! TO.N,Net-(TP3_15-Pad1)*
X161290000Y-68580000D02*
X161290000Y-71120000D01*
G04 #@! TO.N,Net-(TP3_16-Pad1)*
X158750000Y-68580000D02*
X158750000Y-71120000D01*
G04 #@! TO.N,Net-(TP3_17-Pad1)*
X132080000Y-59920000D02*
X132080000Y-62230000D01*
X156210000Y-68580000D02*
X156210000Y-71120000D01*
G04 #@! TO.N,Net-(TP3_18-Pad1)*
X153670000Y-68580000D02*
X153670000Y-71120000D01*
G04 #@! TO.N,Net-(TP3_19-Pad1)*
X134620000Y-59920000D02*
X134620000Y-62230000D01*
X151130000Y-68580000D02*
X151130000Y-71120000D01*
X134620000Y-63290660D02*
X136353340Y-65024000D01*
X134620000Y-62230000D02*
X134620000Y-63290660D01*
X136353340Y-65024000D02*
X137160000Y-65024000D01*
G04 #@! TO.N,Net-(TP3_24-Pad1)*
X138430000Y-69847208D02*
X138430000Y-68580000D01*
X138430000Y-71120000D02*
X138430000Y-69847208D01*
G04 #@! TO.N,Net-(TP3_25-Pad1)*
X135890000Y-68580000D02*
X135890000Y-71120000D01*
G04 #@! TO.N,Net-(TP3_26-Pad1)*
X133350000Y-69847208D02*
X133350000Y-68580000D01*
X133350000Y-71120000D02*
X133350000Y-69847208D01*
G04 #@! TO.N,Net-(TP3_27-Pad1)*
X130810000Y-68580000D02*
X130810000Y-71120000D01*
G04 #@! TO.N,Net-(TP3_28-Pad1)*
X128270000Y-69847208D02*
X128270000Y-68580000D01*
X128270000Y-71120000D02*
X128270000Y-69847208D01*
G04 #@! TO.N,Net-(TP4_9-Pad1)*
X129540000Y-59920000D02*
X129540000Y-62230000D01*
G04 #@! TO.N,Net-(TP2_17-Pad1)*
X105795000Y-72745000D02*
X105795000Y-73870000D01*
X106912000Y-71628000D02*
X105795000Y-72745000D01*
X115062000Y-71628000D02*
X106912000Y-71628000D01*
X118110000Y-68580000D02*
X115062000Y-71628000D01*
G04 #@! TO.N,Net-(TP2_28-Pad1)*
X90170000Y-68580000D02*
X92202000Y-70612000D01*
X98170000Y-73870000D02*
X98645000Y-73870000D01*
X94912000Y-70612000D02*
X98170000Y-73870000D01*
X92202000Y-70612000D02*
X94912000Y-70612000D01*
G04 #@! TD*
M02*
