G04 #@! TF.GenerationSoftware,KiCad,Pcbnew,5.0.1-33cea8e~68~ubuntu16.04.1*
G04 #@! TF.CreationDate,2019-03-03T03:52:25-07:00*
G04 #@! TF.ProjectId,sentry,73656E7472792E6B696361645F706362,rev?*
G04 #@! TF.SameCoordinates,Original*
G04 #@! TF.FileFunction,Soldermask,Top*
G04 #@! TF.FilePolarity,Negative*
%FSLAX46Y46*%
G04 Gerber Fmt 4.6, Leading zero omitted, Abs format (unit mm)*
G04 Created by KiCad (PCBNEW 5.0.1-33cea8e~68~ubuntu16.04.1) date Sun 03 Mar 2019 03:52:25 AM MST*
%MOMM*%
%LPD*%
G01*
G04 APERTURE LIST*
%ADD10C,0.100000*%
G04 APERTURE END LIST*
D10*
G36*
X90403643Y-86859781D02*
X90549415Y-86920162D01*
X90680611Y-87007824D01*
X90792176Y-87119389D01*
X90879838Y-87250585D01*
X90940219Y-87396357D01*
X90971000Y-87551107D01*
X90971000Y-87708893D01*
X90940219Y-87863643D01*
X90879838Y-88009415D01*
X90792176Y-88140611D01*
X90680611Y-88252176D01*
X90549415Y-88339838D01*
X90403643Y-88400219D01*
X90248893Y-88431000D01*
X90091107Y-88431000D01*
X89936357Y-88400219D01*
X89790585Y-88339838D01*
X89659389Y-88252176D01*
X89547824Y-88140611D01*
X89460162Y-88009415D01*
X89399781Y-87863643D01*
X89369000Y-87708893D01*
X89369000Y-87551107D01*
X89399781Y-87396357D01*
X89460162Y-87250585D01*
X89547824Y-87119389D01*
X89659389Y-87007824D01*
X89790585Y-86920162D01*
X89936357Y-86859781D01*
X90091107Y-86829000D01*
X90248893Y-86829000D01*
X90403643Y-86859781D01*
X90403643Y-86859781D01*
G37*
G36*
X110723643Y-86859781D02*
X110869415Y-86920162D01*
X111000611Y-87007824D01*
X111112176Y-87119389D01*
X111199838Y-87250585D01*
X111260219Y-87396357D01*
X111291000Y-87551107D01*
X111291000Y-87708893D01*
X111260219Y-87863643D01*
X111199838Y-88009415D01*
X111112176Y-88140611D01*
X111000611Y-88252176D01*
X110869415Y-88339838D01*
X110723643Y-88400219D01*
X110568893Y-88431000D01*
X110411107Y-88431000D01*
X110256357Y-88400219D01*
X110110585Y-88339838D01*
X109979389Y-88252176D01*
X109867824Y-88140611D01*
X109780162Y-88009415D01*
X109719781Y-87863643D01*
X109689000Y-87708893D01*
X109689000Y-87551107D01*
X109719781Y-87396357D01*
X109780162Y-87250585D01*
X109867824Y-87119389D01*
X109979389Y-87007824D01*
X110110585Y-86920162D01*
X110256357Y-86859781D01*
X110411107Y-86829000D01*
X110568893Y-86829000D01*
X110723643Y-86859781D01*
X110723643Y-86859781D01*
G37*
G36*
X166603643Y-86859781D02*
X166749415Y-86920162D01*
X166880611Y-87007824D01*
X166992176Y-87119389D01*
X167079838Y-87250585D01*
X167140219Y-87396357D01*
X167171000Y-87551107D01*
X167171000Y-87708893D01*
X167140219Y-87863643D01*
X167079838Y-88009415D01*
X166992176Y-88140611D01*
X166880611Y-88252176D01*
X166749415Y-88339838D01*
X166603643Y-88400219D01*
X166448893Y-88431000D01*
X166291107Y-88431000D01*
X166136357Y-88400219D01*
X165990585Y-88339838D01*
X165859389Y-88252176D01*
X165747824Y-88140611D01*
X165660162Y-88009415D01*
X165599781Y-87863643D01*
X165569000Y-87708893D01*
X165569000Y-87551107D01*
X165599781Y-87396357D01*
X165660162Y-87250585D01*
X165747824Y-87119389D01*
X165859389Y-87007824D01*
X165990585Y-86920162D01*
X166136357Y-86859781D01*
X166291107Y-86829000D01*
X166448893Y-86829000D01*
X166603643Y-86859781D01*
X166603643Y-86859781D01*
G37*
G36*
X123423643Y-86859781D02*
X123569415Y-86920162D01*
X123700611Y-87007824D01*
X123812176Y-87119389D01*
X123899838Y-87250585D01*
X123960219Y-87396357D01*
X123991000Y-87551107D01*
X123991000Y-87708893D01*
X123960219Y-87863643D01*
X123899838Y-88009415D01*
X123812176Y-88140611D01*
X123700611Y-88252176D01*
X123569415Y-88339838D01*
X123423643Y-88400219D01*
X123268893Y-88431000D01*
X123111107Y-88431000D01*
X122956357Y-88400219D01*
X122810585Y-88339838D01*
X122679389Y-88252176D01*
X122567824Y-88140611D01*
X122480162Y-88009415D01*
X122419781Y-87863643D01*
X122389000Y-87708893D01*
X122389000Y-87551107D01*
X122419781Y-87396357D01*
X122480162Y-87250585D01*
X122567824Y-87119389D01*
X122679389Y-87007824D01*
X122810585Y-86920162D01*
X122956357Y-86859781D01*
X123111107Y-86829000D01*
X123268893Y-86829000D01*
X123423643Y-86859781D01*
X123423643Y-86859781D01*
G37*
G36*
X120883643Y-86859781D02*
X121029415Y-86920162D01*
X121160611Y-87007824D01*
X121272176Y-87119389D01*
X121359838Y-87250585D01*
X121420219Y-87396357D01*
X121451000Y-87551107D01*
X121451000Y-87708893D01*
X121420219Y-87863643D01*
X121359838Y-88009415D01*
X121272176Y-88140611D01*
X121160611Y-88252176D01*
X121029415Y-88339838D01*
X120883643Y-88400219D01*
X120728893Y-88431000D01*
X120571107Y-88431000D01*
X120416357Y-88400219D01*
X120270585Y-88339838D01*
X120139389Y-88252176D01*
X120027824Y-88140611D01*
X119940162Y-88009415D01*
X119879781Y-87863643D01*
X119849000Y-87708893D01*
X119849000Y-87551107D01*
X119879781Y-87396357D01*
X119940162Y-87250585D01*
X120027824Y-87119389D01*
X120139389Y-87007824D01*
X120270585Y-86920162D01*
X120416357Y-86859781D01*
X120571107Y-86829000D01*
X120728893Y-86829000D01*
X120883643Y-86859781D01*
X120883643Y-86859781D01*
G37*
G36*
X118343643Y-86859781D02*
X118489415Y-86920162D01*
X118620611Y-87007824D01*
X118732176Y-87119389D01*
X118819838Y-87250585D01*
X118880219Y-87396357D01*
X118911000Y-87551107D01*
X118911000Y-87708893D01*
X118880219Y-87863643D01*
X118819838Y-88009415D01*
X118732176Y-88140611D01*
X118620611Y-88252176D01*
X118489415Y-88339838D01*
X118343643Y-88400219D01*
X118188893Y-88431000D01*
X118031107Y-88431000D01*
X117876357Y-88400219D01*
X117730585Y-88339838D01*
X117599389Y-88252176D01*
X117487824Y-88140611D01*
X117400162Y-88009415D01*
X117339781Y-87863643D01*
X117309000Y-87708893D01*
X117309000Y-87551107D01*
X117339781Y-87396357D01*
X117400162Y-87250585D01*
X117487824Y-87119389D01*
X117599389Y-87007824D01*
X117730585Y-86920162D01*
X117876357Y-86859781D01*
X118031107Y-86829000D01*
X118188893Y-86829000D01*
X118343643Y-86859781D01*
X118343643Y-86859781D01*
G37*
G36*
X115803643Y-86859781D02*
X115949415Y-86920162D01*
X116080611Y-87007824D01*
X116192176Y-87119389D01*
X116279838Y-87250585D01*
X116340219Y-87396357D01*
X116371000Y-87551107D01*
X116371000Y-87708893D01*
X116340219Y-87863643D01*
X116279838Y-88009415D01*
X116192176Y-88140611D01*
X116080611Y-88252176D01*
X115949415Y-88339838D01*
X115803643Y-88400219D01*
X115648893Y-88431000D01*
X115491107Y-88431000D01*
X115336357Y-88400219D01*
X115190585Y-88339838D01*
X115059389Y-88252176D01*
X114947824Y-88140611D01*
X114860162Y-88009415D01*
X114799781Y-87863643D01*
X114769000Y-87708893D01*
X114769000Y-87551107D01*
X114799781Y-87396357D01*
X114860162Y-87250585D01*
X114947824Y-87119389D01*
X115059389Y-87007824D01*
X115190585Y-86920162D01*
X115336357Y-86859781D01*
X115491107Y-86829000D01*
X115648893Y-86829000D01*
X115803643Y-86859781D01*
X115803643Y-86859781D01*
G37*
G36*
X113263643Y-86859781D02*
X113409415Y-86920162D01*
X113540611Y-87007824D01*
X113652176Y-87119389D01*
X113739838Y-87250585D01*
X113800219Y-87396357D01*
X113831000Y-87551107D01*
X113831000Y-87708893D01*
X113800219Y-87863643D01*
X113739838Y-88009415D01*
X113652176Y-88140611D01*
X113540611Y-88252176D01*
X113409415Y-88339838D01*
X113263643Y-88400219D01*
X113108893Y-88431000D01*
X112951107Y-88431000D01*
X112796357Y-88400219D01*
X112650585Y-88339838D01*
X112519389Y-88252176D01*
X112407824Y-88140611D01*
X112320162Y-88009415D01*
X112259781Y-87863643D01*
X112229000Y-87708893D01*
X112229000Y-87551107D01*
X112259781Y-87396357D01*
X112320162Y-87250585D01*
X112407824Y-87119389D01*
X112519389Y-87007824D01*
X112650585Y-86920162D01*
X112796357Y-86859781D01*
X112951107Y-86829000D01*
X113108893Y-86829000D01*
X113263643Y-86859781D01*
X113263643Y-86859781D01*
G37*
G36*
X161523643Y-86859781D02*
X161669415Y-86920162D01*
X161800611Y-87007824D01*
X161912176Y-87119389D01*
X161999838Y-87250585D01*
X162060219Y-87396357D01*
X162091000Y-87551107D01*
X162091000Y-87708893D01*
X162060219Y-87863643D01*
X161999838Y-88009415D01*
X161912176Y-88140611D01*
X161800611Y-88252176D01*
X161669415Y-88339838D01*
X161523643Y-88400219D01*
X161368893Y-88431000D01*
X161211107Y-88431000D01*
X161056357Y-88400219D01*
X160910585Y-88339838D01*
X160779389Y-88252176D01*
X160667824Y-88140611D01*
X160580162Y-88009415D01*
X160519781Y-87863643D01*
X160489000Y-87708893D01*
X160489000Y-87551107D01*
X160519781Y-87396357D01*
X160580162Y-87250585D01*
X160667824Y-87119389D01*
X160779389Y-87007824D01*
X160910585Y-86920162D01*
X161056357Y-86859781D01*
X161211107Y-86829000D01*
X161368893Y-86829000D01*
X161523643Y-86859781D01*
X161523643Y-86859781D01*
G37*
G36*
X105643643Y-86859781D02*
X105789415Y-86920162D01*
X105920611Y-87007824D01*
X106032176Y-87119389D01*
X106119838Y-87250585D01*
X106180219Y-87396357D01*
X106211000Y-87551107D01*
X106211000Y-87708893D01*
X106180219Y-87863643D01*
X106119838Y-88009415D01*
X106032176Y-88140611D01*
X105920611Y-88252176D01*
X105789415Y-88339838D01*
X105643643Y-88400219D01*
X105488893Y-88431000D01*
X105331107Y-88431000D01*
X105176357Y-88400219D01*
X105030585Y-88339838D01*
X104899389Y-88252176D01*
X104787824Y-88140611D01*
X104700162Y-88009415D01*
X104639781Y-87863643D01*
X104609000Y-87708893D01*
X104609000Y-87551107D01*
X104639781Y-87396357D01*
X104700162Y-87250585D01*
X104787824Y-87119389D01*
X104899389Y-87007824D01*
X105030585Y-86920162D01*
X105176357Y-86859781D01*
X105331107Y-86829000D01*
X105488893Y-86829000D01*
X105643643Y-86859781D01*
X105643643Y-86859781D01*
G37*
G36*
X103103643Y-86859781D02*
X103249415Y-86920162D01*
X103380611Y-87007824D01*
X103492176Y-87119389D01*
X103579838Y-87250585D01*
X103640219Y-87396357D01*
X103671000Y-87551107D01*
X103671000Y-87708893D01*
X103640219Y-87863643D01*
X103579838Y-88009415D01*
X103492176Y-88140611D01*
X103380611Y-88252176D01*
X103249415Y-88339838D01*
X103103643Y-88400219D01*
X102948893Y-88431000D01*
X102791107Y-88431000D01*
X102636357Y-88400219D01*
X102490585Y-88339838D01*
X102359389Y-88252176D01*
X102247824Y-88140611D01*
X102160162Y-88009415D01*
X102099781Y-87863643D01*
X102069000Y-87708893D01*
X102069000Y-87551107D01*
X102099781Y-87396357D01*
X102160162Y-87250585D01*
X102247824Y-87119389D01*
X102359389Y-87007824D01*
X102490585Y-86920162D01*
X102636357Y-86859781D01*
X102791107Y-86829000D01*
X102948893Y-86829000D01*
X103103643Y-86859781D01*
X103103643Y-86859781D01*
G37*
G36*
X100563643Y-86859781D02*
X100709415Y-86920162D01*
X100840611Y-87007824D01*
X100952176Y-87119389D01*
X101039838Y-87250585D01*
X101100219Y-87396357D01*
X101131000Y-87551107D01*
X101131000Y-87708893D01*
X101100219Y-87863643D01*
X101039838Y-88009415D01*
X100952176Y-88140611D01*
X100840611Y-88252176D01*
X100709415Y-88339838D01*
X100563643Y-88400219D01*
X100408893Y-88431000D01*
X100251107Y-88431000D01*
X100096357Y-88400219D01*
X99950585Y-88339838D01*
X99819389Y-88252176D01*
X99707824Y-88140611D01*
X99620162Y-88009415D01*
X99559781Y-87863643D01*
X99529000Y-87708893D01*
X99529000Y-87551107D01*
X99559781Y-87396357D01*
X99620162Y-87250585D01*
X99707824Y-87119389D01*
X99819389Y-87007824D01*
X99950585Y-86920162D01*
X100096357Y-86859781D01*
X100251107Y-86829000D01*
X100408893Y-86829000D01*
X100563643Y-86859781D01*
X100563643Y-86859781D01*
G37*
G36*
X98023643Y-86859781D02*
X98169415Y-86920162D01*
X98300611Y-87007824D01*
X98412176Y-87119389D01*
X98499838Y-87250585D01*
X98560219Y-87396357D01*
X98591000Y-87551107D01*
X98591000Y-87708893D01*
X98560219Y-87863643D01*
X98499838Y-88009415D01*
X98412176Y-88140611D01*
X98300611Y-88252176D01*
X98169415Y-88339838D01*
X98023643Y-88400219D01*
X97868893Y-88431000D01*
X97711107Y-88431000D01*
X97556357Y-88400219D01*
X97410585Y-88339838D01*
X97279389Y-88252176D01*
X97167824Y-88140611D01*
X97080162Y-88009415D01*
X97019781Y-87863643D01*
X96989000Y-87708893D01*
X96989000Y-87551107D01*
X97019781Y-87396357D01*
X97080162Y-87250585D01*
X97167824Y-87119389D01*
X97279389Y-87007824D01*
X97410585Y-86920162D01*
X97556357Y-86859781D01*
X97711107Y-86829000D01*
X97868893Y-86829000D01*
X98023643Y-86859781D01*
X98023643Y-86859781D01*
G37*
G36*
X95483643Y-86859781D02*
X95629415Y-86920162D01*
X95760611Y-87007824D01*
X95872176Y-87119389D01*
X95959838Y-87250585D01*
X96020219Y-87396357D01*
X96051000Y-87551107D01*
X96051000Y-87708893D01*
X96020219Y-87863643D01*
X95959838Y-88009415D01*
X95872176Y-88140611D01*
X95760611Y-88252176D01*
X95629415Y-88339838D01*
X95483643Y-88400219D01*
X95328893Y-88431000D01*
X95171107Y-88431000D01*
X95016357Y-88400219D01*
X94870585Y-88339838D01*
X94739389Y-88252176D01*
X94627824Y-88140611D01*
X94540162Y-88009415D01*
X94479781Y-87863643D01*
X94449000Y-87708893D01*
X94449000Y-87551107D01*
X94479781Y-87396357D01*
X94540162Y-87250585D01*
X94627824Y-87119389D01*
X94739389Y-87007824D01*
X94870585Y-86920162D01*
X95016357Y-86859781D01*
X95171107Y-86829000D01*
X95328893Y-86829000D01*
X95483643Y-86859781D01*
X95483643Y-86859781D01*
G37*
G36*
X92943643Y-86859781D02*
X93089415Y-86920162D01*
X93220611Y-87007824D01*
X93332176Y-87119389D01*
X93419838Y-87250585D01*
X93480219Y-87396357D01*
X93511000Y-87551107D01*
X93511000Y-87708893D01*
X93480219Y-87863643D01*
X93419838Y-88009415D01*
X93332176Y-88140611D01*
X93220611Y-88252176D01*
X93089415Y-88339838D01*
X92943643Y-88400219D01*
X92788893Y-88431000D01*
X92631107Y-88431000D01*
X92476357Y-88400219D01*
X92330585Y-88339838D01*
X92199389Y-88252176D01*
X92087824Y-88140611D01*
X92000162Y-88009415D01*
X91939781Y-87863643D01*
X91909000Y-87708893D01*
X91909000Y-87551107D01*
X91939781Y-87396357D01*
X92000162Y-87250585D01*
X92087824Y-87119389D01*
X92199389Y-87007824D01*
X92330585Y-86920162D01*
X92476357Y-86859781D01*
X92631107Y-86829000D01*
X92788893Y-86829000D01*
X92943643Y-86859781D01*
X92943643Y-86859781D01*
G37*
G36*
X108183643Y-86859781D02*
X108329415Y-86920162D01*
X108460611Y-87007824D01*
X108572176Y-87119389D01*
X108659838Y-87250585D01*
X108720219Y-87396357D01*
X108751000Y-87551107D01*
X108751000Y-87708893D01*
X108720219Y-87863643D01*
X108659838Y-88009415D01*
X108572176Y-88140611D01*
X108460611Y-88252176D01*
X108329415Y-88339838D01*
X108183643Y-88400219D01*
X108028893Y-88431000D01*
X107871107Y-88431000D01*
X107716357Y-88400219D01*
X107570585Y-88339838D01*
X107439389Y-88252176D01*
X107327824Y-88140611D01*
X107240162Y-88009415D01*
X107179781Y-87863643D01*
X107149000Y-87708893D01*
X107149000Y-87551107D01*
X107179781Y-87396357D01*
X107240162Y-87250585D01*
X107327824Y-87119389D01*
X107439389Y-87007824D01*
X107570585Y-86920162D01*
X107716357Y-86859781D01*
X107871107Y-86829000D01*
X108028893Y-86829000D01*
X108183643Y-86859781D01*
X108183643Y-86859781D01*
G37*
G36*
X172109485Y-85828996D02*
X172109487Y-85828997D01*
X172109488Y-85828997D01*
X172331248Y-85920853D01*
X172346255Y-85927069D01*
X172559342Y-86069449D01*
X172740551Y-86250658D01*
X172882931Y-86463745D01*
X172981004Y-86700515D01*
X173031000Y-86951861D01*
X173031000Y-87208139D01*
X172981004Y-87459485D01*
X172882931Y-87696255D01*
X172740551Y-87909342D01*
X172559342Y-88090551D01*
X172559339Y-88090553D01*
X172346255Y-88232931D01*
X172109488Y-88331003D01*
X172109487Y-88331003D01*
X172109485Y-88331004D01*
X171858139Y-88381000D01*
X171601861Y-88381000D01*
X171350515Y-88331004D01*
X171350513Y-88331003D01*
X171350512Y-88331003D01*
X171113745Y-88232931D01*
X170900661Y-88090553D01*
X170900658Y-88090551D01*
X170719449Y-87909342D01*
X170577069Y-87696255D01*
X170478996Y-87459485D01*
X170429000Y-87208139D01*
X170429000Y-86951861D01*
X170478996Y-86700515D01*
X170577069Y-86463745D01*
X170719449Y-86250658D01*
X170900658Y-86069449D01*
X171113745Y-85927069D01*
X171128752Y-85920853D01*
X171350512Y-85828997D01*
X171350513Y-85828997D01*
X171350515Y-85828996D01*
X171601861Y-85779000D01*
X171858139Y-85779000D01*
X172109485Y-85828996D01*
X172109485Y-85828996D01*
G37*
G36*
X80109485Y-85828996D02*
X80109487Y-85828997D01*
X80109488Y-85828997D01*
X80331248Y-85920853D01*
X80346255Y-85927069D01*
X80559342Y-86069449D01*
X80740551Y-86250658D01*
X80882931Y-86463745D01*
X80981004Y-86700515D01*
X81031000Y-86951861D01*
X81031000Y-87208139D01*
X80981004Y-87459485D01*
X80882931Y-87696255D01*
X80740551Y-87909342D01*
X80559342Y-88090551D01*
X80559339Y-88090553D01*
X80346255Y-88232931D01*
X80109488Y-88331003D01*
X80109487Y-88331003D01*
X80109485Y-88331004D01*
X79858139Y-88381000D01*
X79601861Y-88381000D01*
X79350515Y-88331004D01*
X79350513Y-88331003D01*
X79350512Y-88331003D01*
X79113745Y-88232931D01*
X78900661Y-88090553D01*
X78900658Y-88090551D01*
X78719449Y-87909342D01*
X78577069Y-87696255D01*
X78478996Y-87459485D01*
X78429000Y-87208139D01*
X78429000Y-86951861D01*
X78478996Y-86700515D01*
X78577069Y-86463745D01*
X78719449Y-86250658D01*
X78900658Y-86069449D01*
X79113745Y-85927069D01*
X79128752Y-85920853D01*
X79350512Y-85828997D01*
X79350513Y-85828997D01*
X79350515Y-85828996D01*
X79601861Y-85779000D01*
X79858139Y-85779000D01*
X80109485Y-85828996D01*
X80109485Y-85828996D01*
G37*
G36*
X139970422Y-85468527D02*
X139970424Y-85468528D01*
X139970425Y-85468528D01*
X140139147Y-85538414D01*
X140290308Y-85639417D01*
X140290995Y-85639876D01*
X140420124Y-85769005D01*
X140420126Y-85769008D01*
X140521586Y-85920853D01*
X140591472Y-86089575D01*
X140591473Y-86089578D01*
X140623514Y-86250661D01*
X140627100Y-86268689D01*
X140627100Y-86451311D01*
X140591472Y-86630425D01*
X140521586Y-86799147D01*
X140440726Y-86920162D01*
X140420124Y-86950995D01*
X140290995Y-87080124D01*
X140290992Y-87080126D01*
X140139147Y-87181586D01*
X139970425Y-87251472D01*
X139970424Y-87251472D01*
X139970422Y-87251473D01*
X139791313Y-87287100D01*
X139608687Y-87287100D01*
X139429578Y-87251473D01*
X139429576Y-87251472D01*
X139429575Y-87251472D01*
X139260853Y-87181586D01*
X139109008Y-87080126D01*
X139109005Y-87080124D01*
X138979876Y-86950995D01*
X138959274Y-86920162D01*
X138878414Y-86799147D01*
X138808528Y-86630425D01*
X138772900Y-86451311D01*
X138772900Y-86268689D01*
X138776486Y-86250661D01*
X138808527Y-86089578D01*
X138808528Y-86089575D01*
X138878414Y-85920853D01*
X138979874Y-85769008D01*
X138979876Y-85769005D01*
X139109005Y-85639876D01*
X139109692Y-85639417D01*
X139260853Y-85538414D01*
X139429575Y-85468528D01*
X139429576Y-85468528D01*
X139429578Y-85468527D01*
X139608687Y-85432900D01*
X139791313Y-85432900D01*
X139970422Y-85468527D01*
X139970422Y-85468527D01*
G37*
G36*
X145050422Y-85468527D02*
X145050424Y-85468528D01*
X145050425Y-85468528D01*
X145219147Y-85538414D01*
X145370308Y-85639417D01*
X145370995Y-85639876D01*
X145500124Y-85769005D01*
X145500126Y-85769008D01*
X145601586Y-85920853D01*
X145671472Y-86089575D01*
X145671473Y-86089578D01*
X145703514Y-86250661D01*
X145707100Y-86268689D01*
X145707100Y-86451311D01*
X145671472Y-86630425D01*
X145601586Y-86799147D01*
X145520726Y-86920162D01*
X145500124Y-86950995D01*
X145370995Y-87080124D01*
X145370992Y-87080126D01*
X145219147Y-87181586D01*
X145050425Y-87251472D01*
X145050424Y-87251472D01*
X145050422Y-87251473D01*
X144871313Y-87287100D01*
X144688687Y-87287100D01*
X144509578Y-87251473D01*
X144509576Y-87251472D01*
X144509575Y-87251472D01*
X144340853Y-87181586D01*
X144189008Y-87080126D01*
X144189005Y-87080124D01*
X144059876Y-86950995D01*
X144039274Y-86920162D01*
X143958414Y-86799147D01*
X143888528Y-86630425D01*
X143852900Y-86451311D01*
X143852900Y-86268689D01*
X143856486Y-86250661D01*
X143888527Y-86089578D01*
X143888528Y-86089575D01*
X143958414Y-85920853D01*
X144059874Y-85769008D01*
X144059876Y-85769005D01*
X144189005Y-85639876D01*
X144189692Y-85639417D01*
X144340853Y-85538414D01*
X144509575Y-85468528D01*
X144509576Y-85468528D01*
X144509578Y-85468527D01*
X144688687Y-85432900D01*
X144871313Y-85432900D01*
X145050422Y-85468527D01*
X145050422Y-85468527D01*
G37*
G36*
X152208230Y-86960710D02*
X150905210Y-86960710D01*
X150905210Y-85759290D01*
X152208230Y-85759290D01*
X152208230Y-86960710D01*
X152208230Y-86960710D01*
G37*
G36*
X150511510Y-86960710D02*
X149208490Y-86960710D01*
X149208490Y-85759290D01*
X150511510Y-85759290D01*
X150511510Y-86960710D01*
X150511510Y-86960710D01*
G37*
G36*
X135271510Y-86960710D02*
X133968490Y-86960710D01*
X133968490Y-85759290D01*
X135271510Y-85759290D01*
X135271510Y-86960710D01*
X135271510Y-86960710D01*
G37*
G36*
X133574790Y-86960710D02*
X132271770Y-86960710D01*
X132271770Y-85759290D01*
X133574790Y-85759290D01*
X133574790Y-86960710D01*
X133574790Y-86960710D01*
G37*
G36*
X85147150Y-86325710D02*
X83844130Y-86325710D01*
X83844130Y-85124290D01*
X85147150Y-85124290D01*
X85147150Y-86325710D01*
X85147150Y-86325710D01*
G37*
G36*
X86843870Y-86325710D02*
X85540850Y-86325710D01*
X85540850Y-85124290D01*
X86843870Y-85124290D01*
X86843870Y-86325710D01*
X86843870Y-86325710D01*
G37*
G36*
X161523643Y-84319781D02*
X161669415Y-84380162D01*
X161800611Y-84467824D01*
X161912176Y-84579389D01*
X161999838Y-84710585D01*
X162060219Y-84856357D01*
X162091000Y-85011107D01*
X162091000Y-85168893D01*
X162060219Y-85323643D01*
X161999838Y-85469415D01*
X161912176Y-85600611D01*
X161800611Y-85712176D01*
X161669415Y-85799838D01*
X161523643Y-85860219D01*
X161368893Y-85891000D01*
X161211107Y-85891000D01*
X161056357Y-85860219D01*
X160910585Y-85799838D01*
X160779389Y-85712176D01*
X160667824Y-85600611D01*
X160580162Y-85469415D01*
X160519781Y-85323643D01*
X160489000Y-85168893D01*
X160489000Y-85011107D01*
X160519781Y-84856357D01*
X160580162Y-84710585D01*
X160667824Y-84579389D01*
X160779389Y-84467824D01*
X160910585Y-84380162D01*
X161056357Y-84319781D01*
X161211107Y-84289000D01*
X161368893Y-84289000D01*
X161523643Y-84319781D01*
X161523643Y-84319781D01*
G37*
G36*
X166603643Y-84319781D02*
X166749415Y-84380162D01*
X166880611Y-84467824D01*
X166992176Y-84579389D01*
X167079838Y-84710585D01*
X167140219Y-84856357D01*
X167171000Y-85011107D01*
X167171000Y-85168893D01*
X167140219Y-85323643D01*
X167079838Y-85469415D01*
X166992176Y-85600611D01*
X166880611Y-85712176D01*
X166749415Y-85799838D01*
X166603643Y-85860219D01*
X166448893Y-85891000D01*
X166291107Y-85891000D01*
X166136357Y-85860219D01*
X165990585Y-85799838D01*
X165859389Y-85712176D01*
X165747824Y-85600611D01*
X165660162Y-85469415D01*
X165599781Y-85323643D01*
X165569000Y-85168893D01*
X165569000Y-85011107D01*
X165599781Y-84856357D01*
X165660162Y-84710585D01*
X165747824Y-84579389D01*
X165859389Y-84467824D01*
X165990585Y-84380162D01*
X166136357Y-84319781D01*
X166291107Y-84289000D01*
X166448893Y-84289000D01*
X166603643Y-84319781D01*
X166603643Y-84319781D01*
G37*
G36*
X164063643Y-84319781D02*
X164209415Y-84380162D01*
X164340611Y-84467824D01*
X164452176Y-84579389D01*
X164539838Y-84710585D01*
X164600219Y-84856357D01*
X164631000Y-85011107D01*
X164631000Y-85168893D01*
X164600219Y-85323643D01*
X164539838Y-85469415D01*
X164452176Y-85600611D01*
X164340611Y-85712176D01*
X164209415Y-85799838D01*
X164063643Y-85860219D01*
X163908893Y-85891000D01*
X163751107Y-85891000D01*
X163596357Y-85860219D01*
X163450585Y-85799838D01*
X163319389Y-85712176D01*
X163207824Y-85600611D01*
X163120162Y-85469415D01*
X163059781Y-85323643D01*
X163029000Y-85168893D01*
X163029000Y-85011107D01*
X163059781Y-84856357D01*
X163120162Y-84710585D01*
X163207824Y-84579389D01*
X163319389Y-84467824D01*
X163450585Y-84380162D01*
X163596357Y-84319781D01*
X163751107Y-84289000D01*
X163908893Y-84289000D01*
X164063643Y-84319781D01*
X164063643Y-84319781D01*
G37*
G36*
X89392760Y-84212430D02*
X87391240Y-84212430D01*
X87391240Y-82411570D01*
X89392760Y-82411570D01*
X89392760Y-84212430D01*
X89392760Y-84212430D01*
G37*
G36*
X94213643Y-81779781D02*
X94359415Y-81840162D01*
X94490611Y-81927824D01*
X94602176Y-82039389D01*
X94689838Y-82170585D01*
X94750219Y-82316357D01*
X94781000Y-82471107D01*
X94781000Y-82628893D01*
X94750219Y-82783643D01*
X94689838Y-82929415D01*
X94602176Y-83060611D01*
X94490611Y-83172176D01*
X94359415Y-83259838D01*
X94213643Y-83320219D01*
X94058893Y-83351000D01*
X93901107Y-83351000D01*
X93746357Y-83320219D01*
X93600585Y-83259838D01*
X93469389Y-83172176D01*
X93357824Y-83060611D01*
X93270162Y-82929415D01*
X93209781Y-82783643D01*
X93179000Y-82628893D01*
X93179000Y-82471107D01*
X93209781Y-82316357D01*
X93270162Y-82170585D01*
X93357824Y-82039389D01*
X93469389Y-81927824D01*
X93600585Y-81840162D01*
X93746357Y-81779781D01*
X93901107Y-81749000D01*
X94058893Y-81749000D01*
X94213643Y-81779781D01*
X94213643Y-81779781D01*
G37*
G36*
X168136160Y-79144368D02*
X168136162Y-79144369D01*
X168136163Y-79144369D01*
X168247451Y-79190466D01*
X168445726Y-79272594D01*
X168724327Y-79458749D01*
X168961251Y-79695673D01*
X169147406Y-79974274D01*
X169275632Y-80283840D01*
X169341000Y-80612465D01*
X169341000Y-80947535D01*
X169293032Y-81188687D01*
X169275631Y-81276163D01*
X169228265Y-81390514D01*
X169147406Y-81585726D01*
X168961251Y-81864327D01*
X168724327Y-82101251D01*
X168445726Y-82287406D01*
X168250514Y-82368265D01*
X168136163Y-82415631D01*
X168136162Y-82415631D01*
X168136160Y-82415632D01*
X167807535Y-82481000D01*
X167472465Y-82481000D01*
X167143840Y-82415632D01*
X167143838Y-82415631D01*
X167143837Y-82415631D01*
X167029486Y-82368265D01*
X166834274Y-82287406D01*
X166555673Y-82101251D01*
X166318749Y-81864327D01*
X166132594Y-81585726D01*
X166051735Y-81390514D01*
X166004369Y-81276163D01*
X165986969Y-81188687D01*
X165939000Y-80947535D01*
X165939000Y-80612465D01*
X166004368Y-80283840D01*
X166132594Y-79974274D01*
X166318749Y-79695673D01*
X166555673Y-79458749D01*
X166834274Y-79272594D01*
X167032549Y-79190466D01*
X167143837Y-79144369D01*
X167143838Y-79144369D01*
X167143840Y-79144368D01*
X167472465Y-79079000D01*
X167807535Y-79079000D01*
X168136160Y-79144368D01*
X168136160Y-79144368D01*
G37*
G36*
X85996780Y-82207100D02*
X84142580Y-82207100D01*
X84142580Y-80352900D01*
X85996780Y-80352900D01*
X85996780Y-82207100D01*
X85996780Y-82207100D01*
G37*
G36*
X82840742Y-80388527D02*
X82840744Y-80388528D01*
X82840745Y-80388528D01*
X83009467Y-80458414D01*
X83160628Y-80559417D01*
X83161315Y-80559876D01*
X83290444Y-80689005D01*
X83290446Y-80689008D01*
X83391906Y-80840853D01*
X83461792Y-81009575D01*
X83461793Y-81009578D01*
X83497420Y-81188687D01*
X83497420Y-81371313D01*
X83469109Y-81513643D01*
X83461792Y-81550425D01*
X83391906Y-81719147D01*
X83344157Y-81790608D01*
X83290444Y-81870995D01*
X83161315Y-82000124D01*
X83161312Y-82000126D01*
X83009467Y-82101586D01*
X82840745Y-82171472D01*
X82840744Y-82171472D01*
X82840742Y-82171473D01*
X82661633Y-82207100D01*
X82479007Y-82207100D01*
X82299898Y-82171473D01*
X82299896Y-82171472D01*
X82299895Y-82171472D01*
X82131173Y-82101586D01*
X81979328Y-82000126D01*
X81979325Y-82000124D01*
X81850196Y-81870995D01*
X81796483Y-81790608D01*
X81748734Y-81719147D01*
X81678848Y-81550425D01*
X81671532Y-81513643D01*
X81643220Y-81371313D01*
X81643220Y-81188687D01*
X81678847Y-81009578D01*
X81678848Y-81009575D01*
X81748734Y-80840853D01*
X81850194Y-80689008D01*
X81850196Y-80689005D01*
X81979325Y-80559876D01*
X81980012Y-80559417D01*
X82131173Y-80458414D01*
X82299895Y-80388528D01*
X82299896Y-80388528D01*
X82299898Y-80388527D01*
X82479007Y-80352900D01*
X82661633Y-80352900D01*
X82840742Y-80388527D01*
X82840742Y-80388527D01*
G37*
G36*
X128503643Y-80509781D02*
X128649415Y-80570162D01*
X128780611Y-80657824D01*
X128892176Y-80769389D01*
X128979838Y-80900585D01*
X129040219Y-81046357D01*
X129071000Y-81201107D01*
X129071000Y-81358893D01*
X129040219Y-81513643D01*
X128979838Y-81659415D01*
X128892176Y-81790611D01*
X128780611Y-81902176D01*
X128649415Y-81989838D01*
X128503643Y-82050219D01*
X128348893Y-82081000D01*
X128191107Y-82081000D01*
X128036357Y-82050219D01*
X127890585Y-81989838D01*
X127759389Y-81902176D01*
X127647824Y-81790611D01*
X127560162Y-81659415D01*
X127499781Y-81513643D01*
X127469000Y-81358893D01*
X127469000Y-81201107D01*
X127499781Y-81046357D01*
X127560162Y-80900585D01*
X127647824Y-80769389D01*
X127759389Y-80657824D01*
X127890585Y-80570162D01*
X128036357Y-80509781D01*
X128191107Y-80479000D01*
X128348893Y-80479000D01*
X128503643Y-80509781D01*
X128503643Y-80509781D01*
G37*
G36*
X131043643Y-80509781D02*
X131189415Y-80570162D01*
X131320611Y-80657824D01*
X131432176Y-80769389D01*
X131519838Y-80900585D01*
X131580219Y-81046357D01*
X131611000Y-81201107D01*
X131611000Y-81358893D01*
X131580219Y-81513643D01*
X131519838Y-81659415D01*
X131432176Y-81790611D01*
X131320611Y-81902176D01*
X131189415Y-81989838D01*
X131043643Y-82050219D01*
X130888893Y-82081000D01*
X130731107Y-82081000D01*
X130576357Y-82050219D01*
X130430585Y-81989838D01*
X130299389Y-81902176D01*
X130187824Y-81790611D01*
X130100162Y-81659415D01*
X130039781Y-81513643D01*
X130009000Y-81358893D01*
X130009000Y-81201107D01*
X130039781Y-81046357D01*
X130100162Y-80900585D01*
X130187824Y-80769389D01*
X130299389Y-80657824D01*
X130430585Y-80570162D01*
X130576357Y-80509781D01*
X130731107Y-80479000D01*
X130888893Y-80479000D01*
X131043643Y-80509781D01*
X131043643Y-80509781D01*
G37*
G36*
X133583643Y-80509781D02*
X133729415Y-80570162D01*
X133860611Y-80657824D01*
X133972176Y-80769389D01*
X134059838Y-80900585D01*
X134120219Y-81046357D01*
X134151000Y-81201107D01*
X134151000Y-81358893D01*
X134120219Y-81513643D01*
X134059838Y-81659415D01*
X133972176Y-81790611D01*
X133860611Y-81902176D01*
X133729415Y-81989838D01*
X133583643Y-82050219D01*
X133428893Y-82081000D01*
X133271107Y-82081000D01*
X133116357Y-82050219D01*
X132970585Y-81989838D01*
X132839389Y-81902176D01*
X132727824Y-81790611D01*
X132640162Y-81659415D01*
X132579781Y-81513643D01*
X132549000Y-81358893D01*
X132549000Y-81201107D01*
X132579781Y-81046357D01*
X132640162Y-80900585D01*
X132727824Y-80769389D01*
X132839389Y-80657824D01*
X132970585Y-80570162D01*
X133116357Y-80509781D01*
X133271107Y-80479000D01*
X133428893Y-80479000D01*
X133583643Y-80509781D01*
X133583643Y-80509781D01*
G37*
G36*
X136123643Y-80509781D02*
X136269415Y-80570162D01*
X136400611Y-80657824D01*
X136512176Y-80769389D01*
X136599838Y-80900585D01*
X136660219Y-81046357D01*
X136691000Y-81201107D01*
X136691000Y-81358893D01*
X136660219Y-81513643D01*
X136599838Y-81659415D01*
X136512176Y-81790611D01*
X136400611Y-81902176D01*
X136269415Y-81989838D01*
X136123643Y-82050219D01*
X135968893Y-82081000D01*
X135811107Y-82081000D01*
X135656357Y-82050219D01*
X135510585Y-81989838D01*
X135379389Y-81902176D01*
X135267824Y-81790611D01*
X135180162Y-81659415D01*
X135119781Y-81513643D01*
X135089000Y-81358893D01*
X135089000Y-81201107D01*
X135119781Y-81046357D01*
X135180162Y-80900585D01*
X135267824Y-80769389D01*
X135379389Y-80657824D01*
X135510585Y-80570162D01*
X135656357Y-80509781D01*
X135811107Y-80479000D01*
X135968893Y-80479000D01*
X136123643Y-80509781D01*
X136123643Y-80509781D01*
G37*
G36*
X138663643Y-80509781D02*
X138809415Y-80570162D01*
X138940611Y-80657824D01*
X139052176Y-80769389D01*
X139139838Y-80900585D01*
X139200219Y-81046357D01*
X139231000Y-81201107D01*
X139231000Y-81358893D01*
X139200219Y-81513643D01*
X139139838Y-81659415D01*
X139052176Y-81790611D01*
X138940611Y-81902176D01*
X138809415Y-81989838D01*
X138663643Y-82050219D01*
X138508893Y-82081000D01*
X138351107Y-82081000D01*
X138196357Y-82050219D01*
X138050585Y-81989838D01*
X137919389Y-81902176D01*
X137807824Y-81790611D01*
X137720162Y-81659415D01*
X137659781Y-81513643D01*
X137629000Y-81358893D01*
X137629000Y-81201107D01*
X137659781Y-81046357D01*
X137720162Y-80900585D01*
X137807824Y-80769389D01*
X137919389Y-80657824D01*
X138050585Y-80570162D01*
X138196357Y-80509781D01*
X138351107Y-80479000D01*
X138508893Y-80479000D01*
X138663643Y-80509781D01*
X138663643Y-80509781D01*
G37*
G36*
X143743643Y-80509781D02*
X143889415Y-80570162D01*
X144020611Y-80657824D01*
X144132176Y-80769389D01*
X144219838Y-80900585D01*
X144280219Y-81046357D01*
X144311000Y-81201107D01*
X144311000Y-81358893D01*
X144280219Y-81513643D01*
X144219838Y-81659415D01*
X144132176Y-81790611D01*
X144020611Y-81902176D01*
X143889415Y-81989838D01*
X143743643Y-82050219D01*
X143588893Y-82081000D01*
X143431107Y-82081000D01*
X143276357Y-82050219D01*
X143130585Y-81989838D01*
X142999389Y-81902176D01*
X142887824Y-81790611D01*
X142800162Y-81659415D01*
X142739781Y-81513643D01*
X142709000Y-81358893D01*
X142709000Y-81201107D01*
X142739781Y-81046357D01*
X142800162Y-80900585D01*
X142887824Y-80769389D01*
X142999389Y-80657824D01*
X143130585Y-80570162D01*
X143276357Y-80509781D01*
X143431107Y-80479000D01*
X143588893Y-80479000D01*
X143743643Y-80509781D01*
X143743643Y-80509781D01*
G37*
G36*
X146283643Y-80509781D02*
X146429415Y-80570162D01*
X146560611Y-80657824D01*
X146672176Y-80769389D01*
X146759838Y-80900585D01*
X146820219Y-81046357D01*
X146851000Y-81201107D01*
X146851000Y-81358893D01*
X146820219Y-81513643D01*
X146759838Y-81659415D01*
X146672176Y-81790611D01*
X146560611Y-81902176D01*
X146429415Y-81989838D01*
X146283643Y-82050219D01*
X146128893Y-82081000D01*
X145971107Y-82081000D01*
X145816357Y-82050219D01*
X145670585Y-81989838D01*
X145539389Y-81902176D01*
X145427824Y-81790611D01*
X145340162Y-81659415D01*
X145279781Y-81513643D01*
X145249000Y-81358893D01*
X145249000Y-81201107D01*
X145279781Y-81046357D01*
X145340162Y-80900585D01*
X145427824Y-80769389D01*
X145539389Y-80657824D01*
X145670585Y-80570162D01*
X145816357Y-80509781D01*
X145971107Y-80479000D01*
X146128893Y-80479000D01*
X146283643Y-80509781D01*
X146283643Y-80509781D01*
G37*
G36*
X151363643Y-80509781D02*
X151509415Y-80570162D01*
X151640611Y-80657824D01*
X151752176Y-80769389D01*
X151839838Y-80900585D01*
X151900219Y-81046357D01*
X151931000Y-81201107D01*
X151931000Y-81358893D01*
X151900219Y-81513643D01*
X151839838Y-81659415D01*
X151752176Y-81790611D01*
X151640611Y-81902176D01*
X151509415Y-81989838D01*
X151363643Y-82050219D01*
X151208893Y-82081000D01*
X151051107Y-82081000D01*
X150896357Y-82050219D01*
X150750585Y-81989838D01*
X150619389Y-81902176D01*
X150507824Y-81790611D01*
X150420162Y-81659415D01*
X150359781Y-81513643D01*
X150329000Y-81358893D01*
X150329000Y-81201107D01*
X150359781Y-81046357D01*
X150420162Y-80900585D01*
X150507824Y-80769389D01*
X150619389Y-80657824D01*
X150750585Y-80570162D01*
X150896357Y-80509781D01*
X151051107Y-80479000D01*
X151208893Y-80479000D01*
X151363643Y-80509781D01*
X151363643Y-80509781D01*
G37*
G36*
X153903643Y-80509781D02*
X154049415Y-80570162D01*
X154180611Y-80657824D01*
X154292176Y-80769389D01*
X154379838Y-80900585D01*
X154440219Y-81046357D01*
X154471000Y-81201107D01*
X154471000Y-81358893D01*
X154440219Y-81513643D01*
X154379838Y-81659415D01*
X154292176Y-81790611D01*
X154180611Y-81902176D01*
X154049415Y-81989838D01*
X153903643Y-82050219D01*
X153748893Y-82081000D01*
X153591107Y-82081000D01*
X153436357Y-82050219D01*
X153290585Y-81989838D01*
X153159389Y-81902176D01*
X153047824Y-81790611D01*
X152960162Y-81659415D01*
X152899781Y-81513643D01*
X152869000Y-81358893D01*
X152869000Y-81201107D01*
X152899781Y-81046357D01*
X152960162Y-80900585D01*
X153047824Y-80769389D01*
X153159389Y-80657824D01*
X153290585Y-80570162D01*
X153436357Y-80509781D01*
X153591107Y-80479000D01*
X153748893Y-80479000D01*
X153903643Y-80509781D01*
X153903643Y-80509781D01*
G37*
G36*
X156443643Y-80509781D02*
X156589415Y-80570162D01*
X156720611Y-80657824D01*
X156832176Y-80769389D01*
X156919838Y-80900585D01*
X156980219Y-81046357D01*
X157011000Y-81201107D01*
X157011000Y-81358893D01*
X156980219Y-81513643D01*
X156919838Y-81659415D01*
X156832176Y-81790611D01*
X156720611Y-81902176D01*
X156589415Y-81989838D01*
X156443643Y-82050219D01*
X156288893Y-82081000D01*
X156131107Y-82081000D01*
X155976357Y-82050219D01*
X155830585Y-81989838D01*
X155699389Y-81902176D01*
X155587824Y-81790611D01*
X155500162Y-81659415D01*
X155439781Y-81513643D01*
X155409000Y-81358893D01*
X155409000Y-81201107D01*
X155439781Y-81046357D01*
X155500162Y-80900585D01*
X155587824Y-80769389D01*
X155699389Y-80657824D01*
X155830585Y-80570162D01*
X155976357Y-80509781D01*
X156131107Y-80479000D01*
X156288893Y-80479000D01*
X156443643Y-80509781D01*
X156443643Y-80509781D01*
G37*
G36*
X158983643Y-80509781D02*
X159129415Y-80570162D01*
X159260611Y-80657824D01*
X159372176Y-80769389D01*
X159459838Y-80900585D01*
X159520219Y-81046357D01*
X159551000Y-81201107D01*
X159551000Y-81358893D01*
X159520219Y-81513643D01*
X159459838Y-81659415D01*
X159372176Y-81790611D01*
X159260611Y-81902176D01*
X159129415Y-81989838D01*
X158983643Y-82050219D01*
X158828893Y-82081000D01*
X158671107Y-82081000D01*
X158516357Y-82050219D01*
X158370585Y-81989838D01*
X158239389Y-81902176D01*
X158127824Y-81790611D01*
X158040162Y-81659415D01*
X157979781Y-81513643D01*
X157949000Y-81358893D01*
X157949000Y-81201107D01*
X157979781Y-81046357D01*
X158040162Y-80900585D01*
X158127824Y-80769389D01*
X158239389Y-80657824D01*
X158370585Y-80570162D01*
X158516357Y-80509781D01*
X158671107Y-80479000D01*
X158828893Y-80479000D01*
X158983643Y-80509781D01*
X158983643Y-80509781D01*
G37*
G36*
X161523643Y-80509781D02*
X161669415Y-80570162D01*
X161800611Y-80657824D01*
X161912176Y-80769389D01*
X161999838Y-80900585D01*
X162060219Y-81046357D01*
X162091000Y-81201107D01*
X162091000Y-81358893D01*
X162060219Y-81513643D01*
X161999838Y-81659415D01*
X161912176Y-81790611D01*
X161800611Y-81902176D01*
X161669415Y-81989838D01*
X161523643Y-82050219D01*
X161368893Y-82081000D01*
X161211107Y-82081000D01*
X161056357Y-82050219D01*
X160910585Y-81989838D01*
X160779389Y-81902176D01*
X160667824Y-81790611D01*
X160580162Y-81659415D01*
X160519781Y-81513643D01*
X160489000Y-81358893D01*
X160489000Y-81201107D01*
X160519781Y-81046357D01*
X160580162Y-80900585D01*
X160667824Y-80769389D01*
X160779389Y-80657824D01*
X160910585Y-80570162D01*
X161056357Y-80509781D01*
X161211107Y-80479000D01*
X161368893Y-80479000D01*
X161523643Y-80509781D01*
X161523643Y-80509781D01*
G37*
G36*
X141203643Y-80509781D02*
X141349415Y-80570162D01*
X141480611Y-80657824D01*
X141592176Y-80769389D01*
X141679838Y-80900585D01*
X141740219Y-81046357D01*
X141771000Y-81201107D01*
X141771000Y-81358893D01*
X141740219Y-81513643D01*
X141679838Y-81659415D01*
X141592176Y-81790611D01*
X141480611Y-81902176D01*
X141349415Y-81989838D01*
X141203643Y-82050219D01*
X141048893Y-82081000D01*
X140891107Y-82081000D01*
X140736357Y-82050219D01*
X140590585Y-81989838D01*
X140459389Y-81902176D01*
X140347824Y-81790611D01*
X140260162Y-81659415D01*
X140199781Y-81513643D01*
X140169000Y-81358893D01*
X140169000Y-81201107D01*
X140199781Y-81046357D01*
X140260162Y-80900585D01*
X140347824Y-80769389D01*
X140459389Y-80657824D01*
X140590585Y-80570162D01*
X140736357Y-80509781D01*
X140891107Y-80479000D01*
X141048893Y-80479000D01*
X141203643Y-80509781D01*
X141203643Y-80509781D01*
G37*
G36*
X148823643Y-80509781D02*
X148969415Y-80570162D01*
X149100611Y-80657824D01*
X149212176Y-80769389D01*
X149299838Y-80900585D01*
X149360219Y-81046357D01*
X149391000Y-81201107D01*
X149391000Y-81358893D01*
X149360219Y-81513643D01*
X149299838Y-81659415D01*
X149212176Y-81790611D01*
X149100611Y-81902176D01*
X148969415Y-81989838D01*
X148823643Y-82050219D01*
X148668893Y-82081000D01*
X148511107Y-82081000D01*
X148356357Y-82050219D01*
X148210585Y-81989838D01*
X148079389Y-81902176D01*
X147967824Y-81790611D01*
X147880162Y-81659415D01*
X147819781Y-81513643D01*
X147789000Y-81358893D01*
X147789000Y-81201107D01*
X147819781Y-81046357D01*
X147880162Y-80900585D01*
X147967824Y-80769389D01*
X148079389Y-80657824D01*
X148210585Y-80570162D01*
X148356357Y-80509781D01*
X148511107Y-80479000D01*
X148668893Y-80479000D01*
X148823643Y-80509781D01*
X148823643Y-80509781D01*
G37*
G36*
X107371000Y-81996000D02*
X98369000Y-81996000D01*
X98369000Y-80144000D01*
X107371000Y-80144000D01*
X107371000Y-81996000D01*
X107371000Y-81996000D01*
G37*
G36*
X89392760Y-81413350D02*
X87391240Y-81413350D01*
X87391240Y-79612490D01*
X89392760Y-79612490D01*
X89392760Y-81413350D01*
X89392760Y-81413350D01*
G37*
G36*
X94213643Y-79239781D02*
X94359415Y-79300162D01*
X94490611Y-79387824D01*
X94602176Y-79499389D01*
X94689838Y-79630585D01*
X94750219Y-79776357D01*
X94781000Y-79931107D01*
X94781000Y-80088893D01*
X94750219Y-80243643D01*
X94689838Y-80389415D01*
X94602176Y-80520611D01*
X94490611Y-80632176D01*
X94359415Y-80719838D01*
X94213643Y-80780219D01*
X94058893Y-80811000D01*
X93901107Y-80811000D01*
X93746357Y-80780219D01*
X93600585Y-80719838D01*
X93469389Y-80632176D01*
X93357824Y-80520611D01*
X93270162Y-80389415D01*
X93209781Y-80243643D01*
X93179000Y-80088893D01*
X93179000Y-79931107D01*
X93209781Y-79776357D01*
X93270162Y-79630585D01*
X93357824Y-79499389D01*
X93469389Y-79387824D01*
X93600585Y-79300162D01*
X93746357Y-79239781D01*
X93901107Y-79209000D01*
X94058893Y-79209000D01*
X94213643Y-79239781D01*
X94213643Y-79239781D01*
G37*
G36*
X129221000Y-79691000D02*
X127319000Y-79691000D01*
X127319000Y-77789000D01*
X129221000Y-77789000D01*
X129221000Y-79691000D01*
X129221000Y-79691000D01*
G37*
G36*
X161567396Y-77825546D02*
X161740466Y-77897234D01*
X161896230Y-78001312D01*
X162028688Y-78133770D01*
X162132766Y-78289534D01*
X162204454Y-78462604D01*
X162241000Y-78646333D01*
X162241000Y-78833667D01*
X162204454Y-79017396D01*
X162132766Y-79190466D01*
X162028688Y-79346230D01*
X161896230Y-79478688D01*
X161740466Y-79582766D01*
X161567396Y-79654454D01*
X161383667Y-79691000D01*
X161196333Y-79691000D01*
X161012604Y-79654454D01*
X160839534Y-79582766D01*
X160683770Y-79478688D01*
X160551312Y-79346230D01*
X160447234Y-79190466D01*
X160375546Y-79017396D01*
X160339000Y-78833667D01*
X160339000Y-78646333D01*
X160375546Y-78462604D01*
X160447234Y-78289534D01*
X160551312Y-78133770D01*
X160683770Y-78001312D01*
X160839534Y-77897234D01*
X161012604Y-77825546D01*
X161196333Y-77789000D01*
X161383667Y-77789000D01*
X161567396Y-77825546D01*
X161567396Y-77825546D01*
G37*
G36*
X156487396Y-77825546D02*
X156660466Y-77897234D01*
X156816230Y-78001312D01*
X156948688Y-78133770D01*
X157052766Y-78289534D01*
X157124454Y-78462604D01*
X157161000Y-78646333D01*
X157161000Y-78833667D01*
X157124454Y-79017396D01*
X157052766Y-79190466D01*
X156948688Y-79346230D01*
X156816230Y-79478688D01*
X156660466Y-79582766D01*
X156487396Y-79654454D01*
X156303667Y-79691000D01*
X156116333Y-79691000D01*
X155932604Y-79654454D01*
X155759534Y-79582766D01*
X155603770Y-79478688D01*
X155471312Y-79346230D01*
X155367234Y-79190466D01*
X155295546Y-79017396D01*
X155259000Y-78833667D01*
X155259000Y-78646333D01*
X155295546Y-78462604D01*
X155367234Y-78289534D01*
X155471312Y-78133770D01*
X155603770Y-78001312D01*
X155759534Y-77897234D01*
X155932604Y-77825546D01*
X156116333Y-77789000D01*
X156303667Y-77789000D01*
X156487396Y-77825546D01*
X156487396Y-77825546D01*
G37*
G36*
X153947396Y-77825546D02*
X154120466Y-77897234D01*
X154276230Y-78001312D01*
X154408688Y-78133770D01*
X154512766Y-78289534D01*
X154584454Y-78462604D01*
X154621000Y-78646333D01*
X154621000Y-78833667D01*
X154584454Y-79017396D01*
X154512766Y-79190466D01*
X154408688Y-79346230D01*
X154276230Y-79478688D01*
X154120466Y-79582766D01*
X153947396Y-79654454D01*
X153763667Y-79691000D01*
X153576333Y-79691000D01*
X153392604Y-79654454D01*
X153219534Y-79582766D01*
X153063770Y-79478688D01*
X152931312Y-79346230D01*
X152827234Y-79190466D01*
X152755546Y-79017396D01*
X152719000Y-78833667D01*
X152719000Y-78646333D01*
X152755546Y-78462604D01*
X152827234Y-78289534D01*
X152931312Y-78133770D01*
X153063770Y-78001312D01*
X153219534Y-77897234D01*
X153392604Y-77825546D01*
X153576333Y-77789000D01*
X153763667Y-77789000D01*
X153947396Y-77825546D01*
X153947396Y-77825546D01*
G37*
G36*
X151407396Y-77825546D02*
X151580466Y-77897234D01*
X151736230Y-78001312D01*
X151868688Y-78133770D01*
X151972766Y-78289534D01*
X152044454Y-78462604D01*
X152081000Y-78646333D01*
X152081000Y-78833667D01*
X152044454Y-79017396D01*
X151972766Y-79190466D01*
X151868688Y-79346230D01*
X151736230Y-79478688D01*
X151580466Y-79582766D01*
X151407396Y-79654454D01*
X151223667Y-79691000D01*
X151036333Y-79691000D01*
X150852604Y-79654454D01*
X150679534Y-79582766D01*
X150523770Y-79478688D01*
X150391312Y-79346230D01*
X150287234Y-79190466D01*
X150215546Y-79017396D01*
X150179000Y-78833667D01*
X150179000Y-78646333D01*
X150215546Y-78462604D01*
X150287234Y-78289534D01*
X150391312Y-78133770D01*
X150523770Y-78001312D01*
X150679534Y-77897234D01*
X150852604Y-77825546D01*
X151036333Y-77789000D01*
X151223667Y-77789000D01*
X151407396Y-77825546D01*
X151407396Y-77825546D01*
G37*
G36*
X148867396Y-77825546D02*
X149040466Y-77897234D01*
X149196230Y-78001312D01*
X149328688Y-78133770D01*
X149432766Y-78289534D01*
X149504454Y-78462604D01*
X149541000Y-78646333D01*
X149541000Y-78833667D01*
X149504454Y-79017396D01*
X149432766Y-79190466D01*
X149328688Y-79346230D01*
X149196230Y-79478688D01*
X149040466Y-79582766D01*
X148867396Y-79654454D01*
X148683667Y-79691000D01*
X148496333Y-79691000D01*
X148312604Y-79654454D01*
X148139534Y-79582766D01*
X147983770Y-79478688D01*
X147851312Y-79346230D01*
X147747234Y-79190466D01*
X147675546Y-79017396D01*
X147639000Y-78833667D01*
X147639000Y-78646333D01*
X147675546Y-78462604D01*
X147747234Y-78289534D01*
X147851312Y-78133770D01*
X147983770Y-78001312D01*
X148139534Y-77897234D01*
X148312604Y-77825546D01*
X148496333Y-77789000D01*
X148683667Y-77789000D01*
X148867396Y-77825546D01*
X148867396Y-77825546D01*
G37*
G36*
X146327396Y-77825546D02*
X146500466Y-77897234D01*
X146656230Y-78001312D01*
X146788688Y-78133770D01*
X146892766Y-78289534D01*
X146964454Y-78462604D01*
X147001000Y-78646333D01*
X147001000Y-78833667D01*
X146964454Y-79017396D01*
X146892766Y-79190466D01*
X146788688Y-79346230D01*
X146656230Y-79478688D01*
X146500466Y-79582766D01*
X146327396Y-79654454D01*
X146143667Y-79691000D01*
X145956333Y-79691000D01*
X145772604Y-79654454D01*
X145599534Y-79582766D01*
X145443770Y-79478688D01*
X145311312Y-79346230D01*
X145207234Y-79190466D01*
X145135546Y-79017396D01*
X145099000Y-78833667D01*
X145099000Y-78646333D01*
X145135546Y-78462604D01*
X145207234Y-78289534D01*
X145311312Y-78133770D01*
X145443770Y-78001312D01*
X145599534Y-77897234D01*
X145772604Y-77825546D01*
X145956333Y-77789000D01*
X146143667Y-77789000D01*
X146327396Y-77825546D01*
X146327396Y-77825546D01*
G37*
G36*
X141247396Y-77825546D02*
X141420466Y-77897234D01*
X141576230Y-78001312D01*
X141708688Y-78133770D01*
X141812766Y-78289534D01*
X141884454Y-78462604D01*
X141921000Y-78646333D01*
X141921000Y-78833667D01*
X141884454Y-79017396D01*
X141812766Y-79190466D01*
X141708688Y-79346230D01*
X141576230Y-79478688D01*
X141420466Y-79582766D01*
X141247396Y-79654454D01*
X141063667Y-79691000D01*
X140876333Y-79691000D01*
X140692604Y-79654454D01*
X140519534Y-79582766D01*
X140363770Y-79478688D01*
X140231312Y-79346230D01*
X140127234Y-79190466D01*
X140055546Y-79017396D01*
X140019000Y-78833667D01*
X140019000Y-78646333D01*
X140055546Y-78462604D01*
X140127234Y-78289534D01*
X140231312Y-78133770D01*
X140363770Y-78001312D01*
X140519534Y-77897234D01*
X140692604Y-77825546D01*
X140876333Y-77789000D01*
X141063667Y-77789000D01*
X141247396Y-77825546D01*
X141247396Y-77825546D01*
G37*
G36*
X138707396Y-77825546D02*
X138880466Y-77897234D01*
X139036230Y-78001312D01*
X139168688Y-78133770D01*
X139272766Y-78289534D01*
X139344454Y-78462604D01*
X139381000Y-78646333D01*
X139381000Y-78833667D01*
X139344454Y-79017396D01*
X139272766Y-79190466D01*
X139168688Y-79346230D01*
X139036230Y-79478688D01*
X138880466Y-79582766D01*
X138707396Y-79654454D01*
X138523667Y-79691000D01*
X138336333Y-79691000D01*
X138152604Y-79654454D01*
X137979534Y-79582766D01*
X137823770Y-79478688D01*
X137691312Y-79346230D01*
X137587234Y-79190466D01*
X137515546Y-79017396D01*
X137479000Y-78833667D01*
X137479000Y-78646333D01*
X137515546Y-78462604D01*
X137587234Y-78289534D01*
X137691312Y-78133770D01*
X137823770Y-78001312D01*
X137979534Y-77897234D01*
X138152604Y-77825546D01*
X138336333Y-77789000D01*
X138523667Y-77789000D01*
X138707396Y-77825546D01*
X138707396Y-77825546D01*
G37*
G36*
X136167396Y-77825546D02*
X136340466Y-77897234D01*
X136496230Y-78001312D01*
X136628688Y-78133770D01*
X136732766Y-78289534D01*
X136804454Y-78462604D01*
X136841000Y-78646333D01*
X136841000Y-78833667D01*
X136804454Y-79017396D01*
X136732766Y-79190466D01*
X136628688Y-79346230D01*
X136496230Y-79478688D01*
X136340466Y-79582766D01*
X136167396Y-79654454D01*
X135983667Y-79691000D01*
X135796333Y-79691000D01*
X135612604Y-79654454D01*
X135439534Y-79582766D01*
X135283770Y-79478688D01*
X135151312Y-79346230D01*
X135047234Y-79190466D01*
X134975546Y-79017396D01*
X134939000Y-78833667D01*
X134939000Y-78646333D01*
X134975546Y-78462604D01*
X135047234Y-78289534D01*
X135151312Y-78133770D01*
X135283770Y-78001312D01*
X135439534Y-77897234D01*
X135612604Y-77825546D01*
X135796333Y-77789000D01*
X135983667Y-77789000D01*
X136167396Y-77825546D01*
X136167396Y-77825546D01*
G37*
G36*
X133627396Y-77825546D02*
X133800466Y-77897234D01*
X133956230Y-78001312D01*
X134088688Y-78133770D01*
X134192766Y-78289534D01*
X134264454Y-78462604D01*
X134301000Y-78646333D01*
X134301000Y-78833667D01*
X134264454Y-79017396D01*
X134192766Y-79190466D01*
X134088688Y-79346230D01*
X133956230Y-79478688D01*
X133800466Y-79582766D01*
X133627396Y-79654454D01*
X133443667Y-79691000D01*
X133256333Y-79691000D01*
X133072604Y-79654454D01*
X132899534Y-79582766D01*
X132743770Y-79478688D01*
X132611312Y-79346230D01*
X132507234Y-79190466D01*
X132435546Y-79017396D01*
X132399000Y-78833667D01*
X132399000Y-78646333D01*
X132435546Y-78462604D01*
X132507234Y-78289534D01*
X132611312Y-78133770D01*
X132743770Y-78001312D01*
X132899534Y-77897234D01*
X133072604Y-77825546D01*
X133256333Y-77789000D01*
X133443667Y-77789000D01*
X133627396Y-77825546D01*
X133627396Y-77825546D01*
G37*
G36*
X131087396Y-77825546D02*
X131260466Y-77897234D01*
X131416230Y-78001312D01*
X131548688Y-78133770D01*
X131652766Y-78289534D01*
X131724454Y-78462604D01*
X131761000Y-78646333D01*
X131761000Y-78833667D01*
X131724454Y-79017396D01*
X131652766Y-79190466D01*
X131548688Y-79346230D01*
X131416230Y-79478688D01*
X131260466Y-79582766D01*
X131087396Y-79654454D01*
X130903667Y-79691000D01*
X130716333Y-79691000D01*
X130532604Y-79654454D01*
X130359534Y-79582766D01*
X130203770Y-79478688D01*
X130071312Y-79346230D01*
X129967234Y-79190466D01*
X129895546Y-79017396D01*
X129859000Y-78833667D01*
X129859000Y-78646333D01*
X129895546Y-78462604D01*
X129967234Y-78289534D01*
X130071312Y-78133770D01*
X130203770Y-78001312D01*
X130359534Y-77897234D01*
X130532604Y-77825546D01*
X130716333Y-77789000D01*
X130903667Y-77789000D01*
X131087396Y-77825546D01*
X131087396Y-77825546D01*
G37*
G36*
X159027396Y-77825546D02*
X159200466Y-77897234D01*
X159356230Y-78001312D01*
X159488688Y-78133770D01*
X159592766Y-78289534D01*
X159664454Y-78462604D01*
X159701000Y-78646333D01*
X159701000Y-78833667D01*
X159664454Y-79017396D01*
X159592766Y-79190466D01*
X159488688Y-79346230D01*
X159356230Y-79478688D01*
X159200466Y-79582766D01*
X159027396Y-79654454D01*
X158843667Y-79691000D01*
X158656333Y-79691000D01*
X158472604Y-79654454D01*
X158299534Y-79582766D01*
X158143770Y-79478688D01*
X158011312Y-79346230D01*
X157907234Y-79190466D01*
X157835546Y-79017396D01*
X157799000Y-78833667D01*
X157799000Y-78646333D01*
X157835546Y-78462604D01*
X157907234Y-78289534D01*
X158011312Y-78133770D01*
X158143770Y-78001312D01*
X158299534Y-77897234D01*
X158472604Y-77825546D01*
X158656333Y-77789000D01*
X158843667Y-77789000D01*
X159027396Y-77825546D01*
X159027396Y-77825546D01*
G37*
G36*
X143787396Y-77825546D02*
X143960466Y-77897234D01*
X144116230Y-78001312D01*
X144248688Y-78133770D01*
X144352766Y-78289534D01*
X144424454Y-78462604D01*
X144461000Y-78646333D01*
X144461000Y-78833667D01*
X144424454Y-79017396D01*
X144352766Y-79190466D01*
X144248688Y-79346230D01*
X144116230Y-79478688D01*
X143960466Y-79582766D01*
X143787396Y-79654454D01*
X143603667Y-79691000D01*
X143416333Y-79691000D01*
X143232604Y-79654454D01*
X143059534Y-79582766D01*
X142903770Y-79478688D01*
X142771312Y-79346230D01*
X142667234Y-79190466D01*
X142595546Y-79017396D01*
X142559000Y-78833667D01*
X142559000Y-78646333D01*
X142595546Y-78462604D01*
X142667234Y-78289534D01*
X142771312Y-78133770D01*
X142903770Y-78001312D01*
X143059534Y-77897234D01*
X143232604Y-77825546D01*
X143416333Y-77789000D01*
X143603667Y-77789000D01*
X143787396Y-77825546D01*
X143787396Y-77825546D01*
G37*
G36*
X169216565Y-76459389D02*
X169407834Y-76538615D01*
X169579976Y-76653637D01*
X169726363Y-76800024D01*
X169841385Y-76972166D01*
X169920611Y-77163435D01*
X169961000Y-77366484D01*
X169961000Y-77573516D01*
X169920611Y-77776565D01*
X169841385Y-77967834D01*
X169726363Y-78139976D01*
X169579976Y-78286363D01*
X169407834Y-78401385D01*
X169216565Y-78480611D01*
X169013516Y-78521000D01*
X168806484Y-78521000D01*
X168603435Y-78480611D01*
X168412166Y-78401385D01*
X168240024Y-78286363D01*
X168093637Y-78139976D01*
X167978615Y-77967834D01*
X167899389Y-77776565D01*
X167859000Y-77573516D01*
X167859000Y-77366484D01*
X167899389Y-77163435D01*
X167978615Y-76972166D01*
X168093637Y-76800024D01*
X168240024Y-76653637D01*
X168412166Y-76538615D01*
X168603435Y-76459389D01*
X168806484Y-76419000D01*
X169013516Y-76419000D01*
X169216565Y-76459389D01*
X169216565Y-76459389D01*
G37*
G36*
X166676565Y-76459389D02*
X166867834Y-76538615D01*
X167039976Y-76653637D01*
X167186363Y-76800024D01*
X167301385Y-76972166D01*
X167380611Y-77163435D01*
X167421000Y-77366484D01*
X167421000Y-77573516D01*
X167380611Y-77776565D01*
X167301385Y-77967834D01*
X167186363Y-78139976D01*
X167039976Y-78286363D01*
X166867834Y-78401385D01*
X166676565Y-78480611D01*
X166473516Y-78521000D01*
X166266484Y-78521000D01*
X166063435Y-78480611D01*
X165872166Y-78401385D01*
X165700024Y-78286363D01*
X165553637Y-78139976D01*
X165438615Y-77967834D01*
X165359389Y-77776565D01*
X165319000Y-77573516D01*
X165319000Y-77366484D01*
X165359389Y-77163435D01*
X165438615Y-76972166D01*
X165553637Y-76800024D01*
X165700024Y-76653637D01*
X165872166Y-76538615D01*
X166063435Y-76459389D01*
X166266484Y-76419000D01*
X166473516Y-76419000D01*
X166676565Y-76459389D01*
X166676565Y-76459389D01*
G37*
G36*
X115150287Y-76517468D02*
X115330564Y-76592141D01*
X115492814Y-76700553D01*
X115630787Y-76838526D01*
X115739199Y-77000776D01*
X115813872Y-77181053D01*
X115851940Y-77372433D01*
X115851940Y-77567567D01*
X115813872Y-77758947D01*
X115739199Y-77939224D01*
X115630787Y-78101474D01*
X115492814Y-78239447D01*
X115330564Y-78347859D01*
X115150287Y-78422532D01*
X114958907Y-78460600D01*
X114763773Y-78460600D01*
X114572393Y-78422532D01*
X114392116Y-78347859D01*
X114229866Y-78239447D01*
X114091893Y-78101474D01*
X113983481Y-77939224D01*
X113908808Y-77758947D01*
X113870740Y-77567567D01*
X113870740Y-77372433D01*
X113908808Y-77181053D01*
X113983481Y-77000776D01*
X114091893Y-76838526D01*
X114229866Y-76700553D01*
X114392116Y-76592141D01*
X114572393Y-76517468D01*
X114763773Y-76479400D01*
X114958907Y-76479400D01*
X115150287Y-76517468D01*
X115150287Y-76517468D01*
G37*
G36*
X122349260Y-78460600D02*
X120368060Y-78460600D01*
X120368060Y-76479400D01*
X122349260Y-76479400D01*
X122349260Y-78460600D01*
X122349260Y-78460600D01*
G37*
G36*
X94213643Y-76699781D02*
X94359415Y-76760162D01*
X94490611Y-76847824D01*
X94602176Y-76959389D01*
X94689838Y-77090585D01*
X94750219Y-77236357D01*
X94781000Y-77391107D01*
X94781000Y-77548893D01*
X94750219Y-77703643D01*
X94689838Y-77849415D01*
X94602176Y-77980611D01*
X94490611Y-78092176D01*
X94359415Y-78179838D01*
X94213643Y-78240219D01*
X94058893Y-78271000D01*
X93901107Y-78271000D01*
X93746357Y-78240219D01*
X93600585Y-78179838D01*
X93469389Y-78092176D01*
X93357824Y-77980611D01*
X93270162Y-77849415D01*
X93209781Y-77703643D01*
X93179000Y-77548893D01*
X93179000Y-77391107D01*
X93209781Y-77236357D01*
X93270162Y-77090585D01*
X93357824Y-76959389D01*
X93469389Y-76847824D01*
X93600585Y-76760162D01*
X93746357Y-76699781D01*
X93901107Y-76669000D01*
X94058893Y-76669000D01*
X94213643Y-76699781D01*
X94213643Y-76699781D01*
G37*
G36*
X82773015Y-75346973D02*
X82876879Y-75378479D01*
X82972600Y-75429644D01*
X83056501Y-75498499D01*
X83125356Y-75582400D01*
X83176521Y-75678121D01*
X83208027Y-75781985D01*
X83218666Y-75890000D01*
X83208027Y-75998015D01*
X83176521Y-76101879D01*
X83125356Y-76197600D01*
X83056501Y-76281501D01*
X82972600Y-76350356D01*
X82876879Y-76401521D01*
X82773015Y-76433027D01*
X82692067Y-76441000D01*
X82087933Y-76441000D01*
X82006985Y-76433027D01*
X81903121Y-76401521D01*
X81807400Y-76350356D01*
X81723499Y-76281501D01*
X81654644Y-76197600D01*
X81603479Y-76101879D01*
X81571973Y-75998015D01*
X81561334Y-75890000D01*
X81571973Y-75781985D01*
X81603479Y-75678121D01*
X81654644Y-75582400D01*
X81723499Y-75498499D01*
X81807400Y-75429644D01*
X81903121Y-75378479D01*
X82006985Y-75346973D01*
X82087933Y-75339000D01*
X82692067Y-75339000D01*
X82773015Y-75346973D01*
X82773015Y-75346973D01*
G37*
G36*
X169216565Y-73919389D02*
X169407834Y-73998615D01*
X169579976Y-74113637D01*
X169726363Y-74260024D01*
X169841385Y-74432166D01*
X169920611Y-74623435D01*
X169961000Y-74826484D01*
X169961000Y-75033516D01*
X169920611Y-75236565D01*
X169841385Y-75427834D01*
X169726363Y-75599976D01*
X169579976Y-75746363D01*
X169407834Y-75861385D01*
X169216565Y-75940611D01*
X169013516Y-75981000D01*
X168806484Y-75981000D01*
X168603435Y-75940611D01*
X168412166Y-75861385D01*
X168240024Y-75746363D01*
X168093637Y-75599976D01*
X167978615Y-75427834D01*
X167899389Y-75236565D01*
X167859000Y-75033516D01*
X167859000Y-74826484D01*
X167899389Y-74623435D01*
X167978615Y-74432166D01*
X168093637Y-74260024D01*
X168240024Y-74113637D01*
X168412166Y-73998615D01*
X168603435Y-73919389D01*
X168806484Y-73879000D01*
X169013516Y-73879000D01*
X169216565Y-73919389D01*
X169216565Y-73919389D01*
G37*
G36*
X94213643Y-74159781D02*
X94359415Y-74220162D01*
X94490611Y-74307824D01*
X94602176Y-74419389D01*
X94689838Y-74550585D01*
X94750219Y-74696357D01*
X94781000Y-74851107D01*
X94781000Y-75008893D01*
X94750219Y-75163643D01*
X94689838Y-75309415D01*
X94602176Y-75440611D01*
X94490611Y-75552176D01*
X94359415Y-75639838D01*
X94213643Y-75700219D01*
X94058893Y-75731000D01*
X93901107Y-75731000D01*
X93746357Y-75700219D01*
X93600585Y-75639838D01*
X93469389Y-75552176D01*
X93357824Y-75440611D01*
X93270162Y-75309415D01*
X93209781Y-75163643D01*
X93179000Y-75008893D01*
X93179000Y-74851107D01*
X93209781Y-74696357D01*
X93270162Y-74550585D01*
X93357824Y-74419389D01*
X93469389Y-74307824D01*
X93600585Y-74220162D01*
X93746357Y-74159781D01*
X93901107Y-74129000D01*
X94058893Y-74129000D01*
X94213643Y-74159781D01*
X94213643Y-74159781D01*
G37*
G36*
X85193114Y-74221611D02*
X85292265Y-74251688D01*
X85383644Y-74300531D01*
X85463738Y-74366262D01*
X85529469Y-74446356D01*
X85578312Y-74537736D01*
X85608389Y-74636887D01*
X85616000Y-74714162D01*
X85616000Y-75065839D01*
X85608389Y-75143114D01*
X85578312Y-75242265D01*
X85529469Y-75333644D01*
X85463738Y-75413738D01*
X85383644Y-75479469D01*
X85292264Y-75528312D01*
X85193113Y-75558389D01*
X85090000Y-75568545D01*
X84986886Y-75558389D01*
X84887735Y-75528312D01*
X84796356Y-75479469D01*
X84716262Y-75413738D01*
X84650531Y-75333644D01*
X84601688Y-75242264D01*
X84571611Y-75143113D01*
X84564000Y-75065838D01*
X84564000Y-74714161D01*
X84571611Y-74636886D01*
X84601689Y-74537735D01*
X84650532Y-74446356D01*
X84716263Y-74366262D01*
X84796357Y-74300531D01*
X84887736Y-74251688D01*
X84986887Y-74221611D01*
X85090000Y-74211455D01*
X85193114Y-74221611D01*
X85193114Y-74221611D01*
G37*
G36*
X107371000Y-74796000D02*
X98369000Y-74796000D01*
X98369000Y-72944000D01*
X107371000Y-72944000D01*
X107371000Y-74796000D01*
X107371000Y-74796000D01*
G37*
G36*
X85816000Y-73941000D02*
X84364000Y-73941000D01*
X84364000Y-70839000D01*
X85816000Y-70839000D01*
X85816000Y-73941000D01*
X85816000Y-73941000D01*
G37*
G36*
X169216565Y-71419389D02*
X169407834Y-71498615D01*
X169579976Y-71613637D01*
X169726363Y-71760024D01*
X169841385Y-71932166D01*
X169920611Y-72123435D01*
X169961000Y-72326484D01*
X169961000Y-72533516D01*
X169920611Y-72736565D01*
X169841385Y-72927834D01*
X169726363Y-73099976D01*
X169579976Y-73246363D01*
X169407834Y-73361385D01*
X169216565Y-73440611D01*
X169013516Y-73481000D01*
X168806484Y-73481000D01*
X168603435Y-73440611D01*
X168412166Y-73361385D01*
X168240024Y-73246363D01*
X168093637Y-73099976D01*
X167978615Y-72927834D01*
X167899389Y-72736565D01*
X167859000Y-72533516D01*
X167859000Y-72326484D01*
X167899389Y-72123435D01*
X167978615Y-71932166D01*
X168093637Y-71760024D01*
X168240024Y-71613637D01*
X168412166Y-71498615D01*
X168603435Y-71419389D01*
X168806484Y-71379000D01*
X169013516Y-71379000D01*
X169216565Y-71419389D01*
X169216565Y-71419389D01*
G37*
G36*
X166676565Y-71379389D02*
X166867834Y-71458615D01*
X167039976Y-71573637D01*
X167186363Y-71720024D01*
X167301385Y-71892166D01*
X167380611Y-72083435D01*
X167421000Y-72286484D01*
X167421000Y-72493516D01*
X167380611Y-72696565D01*
X167301385Y-72887834D01*
X167186363Y-73059976D01*
X167039976Y-73206363D01*
X166867834Y-73321385D01*
X166676565Y-73400611D01*
X166473516Y-73441000D01*
X166266484Y-73441000D01*
X166063435Y-73400611D01*
X165872166Y-73321385D01*
X165700024Y-73206363D01*
X165553637Y-73059976D01*
X165438615Y-72887834D01*
X165359389Y-72696565D01*
X165319000Y-72493516D01*
X165319000Y-72286484D01*
X165359389Y-72083435D01*
X165438615Y-71892166D01*
X165553637Y-71720024D01*
X165700024Y-71573637D01*
X165872166Y-71458615D01*
X166063435Y-71379389D01*
X166266484Y-71339000D01*
X166473516Y-71339000D01*
X166676565Y-71379389D01*
X166676565Y-71379389D01*
G37*
G36*
X94213643Y-71619781D02*
X94359415Y-71680162D01*
X94490611Y-71767824D01*
X94602176Y-71879389D01*
X94689838Y-72010585D01*
X94750219Y-72156357D01*
X94781000Y-72311107D01*
X94781000Y-72468893D01*
X94750219Y-72623643D01*
X94689838Y-72769415D01*
X94602176Y-72900611D01*
X94490611Y-73012176D01*
X94359415Y-73099838D01*
X94213643Y-73160219D01*
X94058893Y-73191000D01*
X93901107Y-73191000D01*
X93746357Y-73160219D01*
X93600585Y-73099838D01*
X93469389Y-73012176D01*
X93357824Y-72900611D01*
X93270162Y-72769415D01*
X93209781Y-72623643D01*
X93179000Y-72468893D01*
X93179000Y-72311107D01*
X93209781Y-72156357D01*
X93270162Y-72010585D01*
X93357824Y-71879389D01*
X93469389Y-71767824D01*
X93600585Y-71680162D01*
X93746357Y-71619781D01*
X93901107Y-71589000D01*
X94058893Y-71589000D01*
X94213643Y-71619781D01*
X94213643Y-71619781D01*
G37*
G36*
X159027396Y-70205546D02*
X159200466Y-70277234D01*
X159356230Y-70381312D01*
X159488688Y-70513770D01*
X159592766Y-70669534D01*
X159664454Y-70842604D01*
X159701000Y-71026333D01*
X159701000Y-71213667D01*
X159664454Y-71397396D01*
X159592766Y-71570466D01*
X159488688Y-71726230D01*
X159356230Y-71858688D01*
X159200466Y-71962766D01*
X159027396Y-72034454D01*
X158843667Y-72071000D01*
X158656333Y-72071000D01*
X158472604Y-72034454D01*
X158299534Y-71962766D01*
X158143770Y-71858688D01*
X158011312Y-71726230D01*
X157907234Y-71570466D01*
X157835546Y-71397396D01*
X157799000Y-71213667D01*
X157799000Y-71026333D01*
X157835546Y-70842604D01*
X157907234Y-70669534D01*
X158011312Y-70513770D01*
X158143770Y-70381312D01*
X158299534Y-70277234D01*
X158472604Y-70205546D01*
X158656333Y-70169000D01*
X158843667Y-70169000D01*
X159027396Y-70205546D01*
X159027396Y-70205546D01*
G37*
G36*
X133627396Y-70205546D02*
X133800466Y-70277234D01*
X133956230Y-70381312D01*
X134088688Y-70513770D01*
X134192766Y-70669534D01*
X134264454Y-70842604D01*
X134301000Y-71026333D01*
X134301000Y-71213667D01*
X134264454Y-71397396D01*
X134192766Y-71570466D01*
X134088688Y-71726230D01*
X133956230Y-71858688D01*
X133800466Y-71962766D01*
X133627396Y-72034454D01*
X133443667Y-72071000D01*
X133256333Y-72071000D01*
X133072604Y-72034454D01*
X132899534Y-71962766D01*
X132743770Y-71858688D01*
X132611312Y-71726230D01*
X132507234Y-71570466D01*
X132435546Y-71397396D01*
X132399000Y-71213667D01*
X132399000Y-71026333D01*
X132435546Y-70842604D01*
X132507234Y-70669534D01*
X132611312Y-70513770D01*
X132743770Y-70381312D01*
X132899534Y-70277234D01*
X133072604Y-70205546D01*
X133256333Y-70169000D01*
X133443667Y-70169000D01*
X133627396Y-70205546D01*
X133627396Y-70205546D01*
G37*
G36*
X156487396Y-70205546D02*
X156660466Y-70277234D01*
X156816230Y-70381312D01*
X156948688Y-70513770D01*
X157052766Y-70669534D01*
X157124454Y-70842604D01*
X157161000Y-71026333D01*
X157161000Y-71213667D01*
X157124454Y-71397396D01*
X157052766Y-71570466D01*
X156948688Y-71726230D01*
X156816230Y-71858688D01*
X156660466Y-71962766D01*
X156487396Y-72034454D01*
X156303667Y-72071000D01*
X156116333Y-72071000D01*
X155932604Y-72034454D01*
X155759534Y-71962766D01*
X155603770Y-71858688D01*
X155471312Y-71726230D01*
X155367234Y-71570466D01*
X155295546Y-71397396D01*
X155259000Y-71213667D01*
X155259000Y-71026333D01*
X155295546Y-70842604D01*
X155367234Y-70669534D01*
X155471312Y-70513770D01*
X155603770Y-70381312D01*
X155759534Y-70277234D01*
X155932604Y-70205546D01*
X156116333Y-70169000D01*
X156303667Y-70169000D01*
X156487396Y-70205546D01*
X156487396Y-70205546D01*
G37*
G36*
X151407396Y-70205546D02*
X151580466Y-70277234D01*
X151736230Y-70381312D01*
X151868688Y-70513770D01*
X151972766Y-70669534D01*
X152044454Y-70842604D01*
X152081000Y-71026333D01*
X152081000Y-71213667D01*
X152044454Y-71397396D01*
X151972766Y-71570466D01*
X151868688Y-71726230D01*
X151736230Y-71858688D01*
X151580466Y-71962766D01*
X151407396Y-72034454D01*
X151223667Y-72071000D01*
X151036333Y-72071000D01*
X150852604Y-72034454D01*
X150679534Y-71962766D01*
X150523770Y-71858688D01*
X150391312Y-71726230D01*
X150287234Y-71570466D01*
X150215546Y-71397396D01*
X150179000Y-71213667D01*
X150179000Y-71026333D01*
X150215546Y-70842604D01*
X150287234Y-70669534D01*
X150391312Y-70513770D01*
X150523770Y-70381312D01*
X150679534Y-70277234D01*
X150852604Y-70205546D01*
X151036333Y-70169000D01*
X151223667Y-70169000D01*
X151407396Y-70205546D01*
X151407396Y-70205546D01*
G37*
G36*
X148867396Y-70205546D02*
X149040466Y-70277234D01*
X149196230Y-70381312D01*
X149328688Y-70513770D01*
X149432766Y-70669534D01*
X149504454Y-70842604D01*
X149541000Y-71026333D01*
X149541000Y-71213667D01*
X149504454Y-71397396D01*
X149432766Y-71570466D01*
X149328688Y-71726230D01*
X149196230Y-71858688D01*
X149040466Y-71962766D01*
X148867396Y-72034454D01*
X148683667Y-72071000D01*
X148496333Y-72071000D01*
X148312604Y-72034454D01*
X148139534Y-71962766D01*
X147983770Y-71858688D01*
X147851312Y-71726230D01*
X147747234Y-71570466D01*
X147675546Y-71397396D01*
X147639000Y-71213667D01*
X147639000Y-71026333D01*
X147675546Y-70842604D01*
X147747234Y-70669534D01*
X147851312Y-70513770D01*
X147983770Y-70381312D01*
X148139534Y-70277234D01*
X148312604Y-70205546D01*
X148496333Y-70169000D01*
X148683667Y-70169000D01*
X148867396Y-70205546D01*
X148867396Y-70205546D01*
G37*
G36*
X146327396Y-70205546D02*
X146500466Y-70277234D01*
X146656230Y-70381312D01*
X146788688Y-70513770D01*
X146892766Y-70669534D01*
X146964454Y-70842604D01*
X147001000Y-71026333D01*
X147001000Y-71213667D01*
X146964454Y-71397396D01*
X146892766Y-71570466D01*
X146788688Y-71726230D01*
X146656230Y-71858688D01*
X146500466Y-71962766D01*
X146327396Y-72034454D01*
X146143667Y-72071000D01*
X145956333Y-72071000D01*
X145772604Y-72034454D01*
X145599534Y-71962766D01*
X145443770Y-71858688D01*
X145311312Y-71726230D01*
X145207234Y-71570466D01*
X145135546Y-71397396D01*
X145099000Y-71213667D01*
X145099000Y-71026333D01*
X145135546Y-70842604D01*
X145207234Y-70669534D01*
X145311312Y-70513770D01*
X145443770Y-70381312D01*
X145599534Y-70277234D01*
X145772604Y-70205546D01*
X145956333Y-70169000D01*
X146143667Y-70169000D01*
X146327396Y-70205546D01*
X146327396Y-70205546D01*
G37*
G36*
X143787396Y-70205546D02*
X143960466Y-70277234D01*
X144116230Y-70381312D01*
X144248688Y-70513770D01*
X144352766Y-70669534D01*
X144424454Y-70842604D01*
X144461000Y-71026333D01*
X144461000Y-71213667D01*
X144424454Y-71397396D01*
X144352766Y-71570466D01*
X144248688Y-71726230D01*
X144116230Y-71858688D01*
X143960466Y-71962766D01*
X143787396Y-72034454D01*
X143603667Y-72071000D01*
X143416333Y-72071000D01*
X143232604Y-72034454D01*
X143059534Y-71962766D01*
X142903770Y-71858688D01*
X142771312Y-71726230D01*
X142667234Y-71570466D01*
X142595546Y-71397396D01*
X142559000Y-71213667D01*
X142559000Y-71026333D01*
X142595546Y-70842604D01*
X142667234Y-70669534D01*
X142771312Y-70513770D01*
X142903770Y-70381312D01*
X143059534Y-70277234D01*
X143232604Y-70205546D01*
X143416333Y-70169000D01*
X143603667Y-70169000D01*
X143787396Y-70205546D01*
X143787396Y-70205546D01*
G37*
G36*
X131087396Y-70205546D02*
X131260466Y-70277234D01*
X131416230Y-70381312D01*
X131548688Y-70513770D01*
X131652766Y-70669534D01*
X131724454Y-70842604D01*
X131761000Y-71026333D01*
X131761000Y-71213667D01*
X131724454Y-71397396D01*
X131652766Y-71570466D01*
X131548688Y-71726230D01*
X131416230Y-71858688D01*
X131260466Y-71962766D01*
X131087396Y-72034454D01*
X130903667Y-72071000D01*
X130716333Y-72071000D01*
X130532604Y-72034454D01*
X130359534Y-71962766D01*
X130203770Y-71858688D01*
X130071312Y-71726230D01*
X129967234Y-71570466D01*
X129895546Y-71397396D01*
X129859000Y-71213667D01*
X129859000Y-71026333D01*
X129895546Y-70842604D01*
X129967234Y-70669534D01*
X130071312Y-70513770D01*
X130203770Y-70381312D01*
X130359534Y-70277234D01*
X130532604Y-70205546D01*
X130716333Y-70169000D01*
X130903667Y-70169000D01*
X131087396Y-70205546D01*
X131087396Y-70205546D01*
G37*
G36*
X141247396Y-70205546D02*
X141420466Y-70277234D01*
X141576230Y-70381312D01*
X141708688Y-70513770D01*
X141812766Y-70669534D01*
X141884454Y-70842604D01*
X141921000Y-71026333D01*
X141921000Y-71213667D01*
X141884454Y-71397396D01*
X141812766Y-71570466D01*
X141708688Y-71726230D01*
X141576230Y-71858688D01*
X141420466Y-71962766D01*
X141247396Y-72034454D01*
X141063667Y-72071000D01*
X140876333Y-72071000D01*
X140692604Y-72034454D01*
X140519534Y-71962766D01*
X140363770Y-71858688D01*
X140231312Y-71726230D01*
X140127234Y-71570466D01*
X140055546Y-71397396D01*
X140019000Y-71213667D01*
X140019000Y-71026333D01*
X140055546Y-70842604D01*
X140127234Y-70669534D01*
X140231312Y-70513770D01*
X140363770Y-70381312D01*
X140519534Y-70277234D01*
X140692604Y-70205546D01*
X140876333Y-70169000D01*
X141063667Y-70169000D01*
X141247396Y-70205546D01*
X141247396Y-70205546D01*
G37*
G36*
X136167396Y-70205546D02*
X136340466Y-70277234D01*
X136496230Y-70381312D01*
X136628688Y-70513770D01*
X136732766Y-70669534D01*
X136804454Y-70842604D01*
X136841000Y-71026333D01*
X136841000Y-71213667D01*
X136804454Y-71397396D01*
X136732766Y-71570466D01*
X136628688Y-71726230D01*
X136496230Y-71858688D01*
X136340466Y-71962766D01*
X136167396Y-72034454D01*
X135983667Y-72071000D01*
X135796333Y-72071000D01*
X135612604Y-72034454D01*
X135439534Y-71962766D01*
X135283770Y-71858688D01*
X135151312Y-71726230D01*
X135047234Y-71570466D01*
X134975546Y-71397396D01*
X134939000Y-71213667D01*
X134939000Y-71026333D01*
X134975546Y-70842604D01*
X135047234Y-70669534D01*
X135151312Y-70513770D01*
X135283770Y-70381312D01*
X135439534Y-70277234D01*
X135612604Y-70205546D01*
X135796333Y-70169000D01*
X135983667Y-70169000D01*
X136167396Y-70205546D01*
X136167396Y-70205546D01*
G37*
G36*
X138707396Y-70205546D02*
X138880466Y-70277234D01*
X139036230Y-70381312D01*
X139168688Y-70513770D01*
X139272766Y-70669534D01*
X139344454Y-70842604D01*
X139381000Y-71026333D01*
X139381000Y-71213667D01*
X139344454Y-71397396D01*
X139272766Y-71570466D01*
X139168688Y-71726230D01*
X139036230Y-71858688D01*
X138880466Y-71962766D01*
X138707396Y-72034454D01*
X138523667Y-72071000D01*
X138336333Y-72071000D01*
X138152604Y-72034454D01*
X137979534Y-71962766D01*
X137823770Y-71858688D01*
X137691312Y-71726230D01*
X137587234Y-71570466D01*
X137515546Y-71397396D01*
X137479000Y-71213667D01*
X137479000Y-71026333D01*
X137515546Y-70842604D01*
X137587234Y-70669534D01*
X137691312Y-70513770D01*
X137823770Y-70381312D01*
X137979534Y-70277234D01*
X138152604Y-70205546D01*
X138336333Y-70169000D01*
X138523667Y-70169000D01*
X138707396Y-70205546D01*
X138707396Y-70205546D01*
G37*
G36*
X153947396Y-70205546D02*
X154120466Y-70277234D01*
X154276230Y-70381312D01*
X154408688Y-70513770D01*
X154512766Y-70669534D01*
X154584454Y-70842604D01*
X154621000Y-71026333D01*
X154621000Y-71213667D01*
X154584454Y-71397396D01*
X154512766Y-71570466D01*
X154408688Y-71726230D01*
X154276230Y-71858688D01*
X154120466Y-71962766D01*
X153947396Y-72034454D01*
X153763667Y-72071000D01*
X153576333Y-72071000D01*
X153392604Y-72034454D01*
X153219534Y-71962766D01*
X153063770Y-71858688D01*
X152931312Y-71726230D01*
X152827234Y-71570466D01*
X152755546Y-71397396D01*
X152719000Y-71213667D01*
X152719000Y-71026333D01*
X152755546Y-70842604D01*
X152827234Y-70669534D01*
X152931312Y-70513770D01*
X153063770Y-70381312D01*
X153219534Y-70277234D01*
X153392604Y-70205546D01*
X153576333Y-70169000D01*
X153763667Y-70169000D01*
X153947396Y-70205546D01*
X153947396Y-70205546D01*
G37*
G36*
X128547396Y-70205546D02*
X128720466Y-70277234D01*
X128876230Y-70381312D01*
X129008688Y-70513770D01*
X129112766Y-70669534D01*
X129184454Y-70842604D01*
X129221000Y-71026333D01*
X129221000Y-71213667D01*
X129184454Y-71397396D01*
X129112766Y-71570466D01*
X129008688Y-71726230D01*
X128876230Y-71858688D01*
X128720466Y-71962766D01*
X128547396Y-72034454D01*
X128363667Y-72071000D01*
X128176333Y-72071000D01*
X127992604Y-72034454D01*
X127819534Y-71962766D01*
X127663770Y-71858688D01*
X127531312Y-71726230D01*
X127427234Y-71570466D01*
X127355546Y-71397396D01*
X127319000Y-71213667D01*
X127319000Y-71026333D01*
X127355546Y-70842604D01*
X127427234Y-70669534D01*
X127531312Y-70513770D01*
X127663770Y-70381312D01*
X127819534Y-70277234D01*
X127992604Y-70205546D01*
X128176333Y-70169000D01*
X128363667Y-70169000D01*
X128547396Y-70205546D01*
X128547396Y-70205546D01*
G37*
G36*
X161567396Y-70205546D02*
X161740466Y-70277234D01*
X161896230Y-70381312D01*
X162028688Y-70513770D01*
X162132766Y-70669534D01*
X162204454Y-70842604D01*
X162241000Y-71026333D01*
X162241000Y-71213667D01*
X162204454Y-71397396D01*
X162132766Y-71570466D01*
X162028688Y-71726230D01*
X161896230Y-71858688D01*
X161740466Y-71962766D01*
X161567396Y-72034454D01*
X161383667Y-72071000D01*
X161196333Y-72071000D01*
X161012604Y-72034454D01*
X160839534Y-71962766D01*
X160683770Y-71858688D01*
X160551312Y-71726230D01*
X160447234Y-71570466D01*
X160375546Y-71397396D01*
X160339000Y-71213667D01*
X160339000Y-71026333D01*
X160375546Y-70842604D01*
X160447234Y-70669534D01*
X160551312Y-70513770D01*
X160683770Y-70381312D01*
X160839534Y-70277234D01*
X161012604Y-70205546D01*
X161196333Y-70169000D01*
X161383667Y-70169000D01*
X161567396Y-70205546D01*
X161567396Y-70205546D01*
G37*
G36*
X168136160Y-67444368D02*
X168136162Y-67444369D01*
X168136163Y-67444369D01*
X168250514Y-67491735D01*
X168445726Y-67572594D01*
X168724327Y-67758749D01*
X168961251Y-67995673D01*
X169147406Y-68274274D01*
X169275632Y-68583840D01*
X169341000Y-68912465D01*
X169341000Y-69247535D01*
X169275632Y-69576160D01*
X169147406Y-69885726D01*
X168961251Y-70164327D01*
X168724327Y-70401251D01*
X168445726Y-70587406D01*
X168250514Y-70668265D01*
X168136163Y-70715631D01*
X168136162Y-70715631D01*
X168136160Y-70715632D01*
X167807535Y-70781000D01*
X167472465Y-70781000D01*
X167143840Y-70715632D01*
X167143838Y-70715631D01*
X167143837Y-70715631D01*
X167029486Y-70668265D01*
X166834274Y-70587406D01*
X166555673Y-70401251D01*
X166318749Y-70164327D01*
X166132594Y-69885726D01*
X166004368Y-69576160D01*
X165939000Y-69247535D01*
X165939000Y-68912465D01*
X166004368Y-68583840D01*
X166132594Y-68274274D01*
X166318749Y-67995673D01*
X166555673Y-67758749D01*
X166834274Y-67572594D01*
X167029486Y-67491735D01*
X167143837Y-67444369D01*
X167143838Y-67444369D01*
X167143840Y-67444368D01*
X167472465Y-67379000D01*
X167807535Y-67379000D01*
X168136160Y-67444368D01*
X168136160Y-67444368D01*
G37*
G36*
X85193114Y-69221611D02*
X85292265Y-69251688D01*
X85383644Y-69300531D01*
X85463738Y-69366262D01*
X85529469Y-69446356D01*
X85578312Y-69537736D01*
X85608389Y-69636887D01*
X85616000Y-69714162D01*
X85616000Y-70065839D01*
X85608389Y-70143114D01*
X85578312Y-70242265D01*
X85529469Y-70333644D01*
X85463738Y-70413738D01*
X85383644Y-70479469D01*
X85292264Y-70528312D01*
X85193113Y-70558389D01*
X85090000Y-70568545D01*
X84986886Y-70558389D01*
X84887735Y-70528312D01*
X84796356Y-70479469D01*
X84716262Y-70413738D01*
X84650531Y-70333644D01*
X84601688Y-70242264D01*
X84571611Y-70143113D01*
X84564000Y-70065838D01*
X84564000Y-69714161D01*
X84571611Y-69636886D01*
X84601689Y-69537735D01*
X84650532Y-69446356D01*
X84716263Y-69366262D01*
X84796357Y-69300531D01*
X84887736Y-69251688D01*
X84986887Y-69221611D01*
X85090000Y-69211455D01*
X85193114Y-69221611D01*
X85193114Y-69221611D01*
G37*
G36*
X82773015Y-68346973D02*
X82876879Y-68378479D01*
X82972600Y-68429644D01*
X83056501Y-68498499D01*
X83125356Y-68582400D01*
X83176521Y-68678121D01*
X83208027Y-68781985D01*
X83218666Y-68890000D01*
X83208027Y-68998015D01*
X83176521Y-69101879D01*
X83125356Y-69197600D01*
X83056501Y-69281501D01*
X82972600Y-69350356D01*
X82876879Y-69401521D01*
X82773015Y-69433027D01*
X82692067Y-69441000D01*
X82087933Y-69441000D01*
X82006985Y-69433027D01*
X81903121Y-69401521D01*
X81807400Y-69350356D01*
X81723499Y-69281501D01*
X81654644Y-69197600D01*
X81603479Y-69101879D01*
X81571973Y-68998015D01*
X81561334Y-68890000D01*
X81571973Y-68781985D01*
X81603479Y-68678121D01*
X81654644Y-68582400D01*
X81723499Y-68498499D01*
X81807400Y-68429644D01*
X81903121Y-68378479D01*
X82006985Y-68346973D01*
X82087933Y-68339000D01*
X82692067Y-68339000D01*
X82773015Y-68346973D01*
X82773015Y-68346973D01*
G37*
G36*
X103103643Y-67809781D02*
X103249415Y-67870162D01*
X103380611Y-67957824D01*
X103492176Y-68069389D01*
X103579838Y-68200585D01*
X103640219Y-68346357D01*
X103671000Y-68501107D01*
X103671000Y-68658893D01*
X103640219Y-68813643D01*
X103579838Y-68959415D01*
X103492176Y-69090611D01*
X103380611Y-69202176D01*
X103249415Y-69289838D01*
X103103643Y-69350219D01*
X102948893Y-69381000D01*
X102791107Y-69381000D01*
X102636357Y-69350219D01*
X102490585Y-69289838D01*
X102359389Y-69202176D01*
X102247824Y-69090611D01*
X102160162Y-68959415D01*
X102099781Y-68813643D01*
X102069000Y-68658893D01*
X102069000Y-68501107D01*
X102099781Y-68346357D01*
X102160162Y-68200585D01*
X102247824Y-68069389D01*
X102359389Y-67957824D01*
X102490585Y-67870162D01*
X102636357Y-67809781D01*
X102791107Y-67779000D01*
X102948893Y-67779000D01*
X103103643Y-67809781D01*
X103103643Y-67809781D01*
G37*
G36*
X100563643Y-67809781D02*
X100709415Y-67870162D01*
X100840611Y-67957824D01*
X100952176Y-68069389D01*
X101039838Y-68200585D01*
X101100219Y-68346357D01*
X101131000Y-68501107D01*
X101131000Y-68658893D01*
X101100219Y-68813643D01*
X101039838Y-68959415D01*
X100952176Y-69090611D01*
X100840611Y-69202176D01*
X100709415Y-69289838D01*
X100563643Y-69350219D01*
X100408893Y-69381000D01*
X100251107Y-69381000D01*
X100096357Y-69350219D01*
X99950585Y-69289838D01*
X99819389Y-69202176D01*
X99707824Y-69090611D01*
X99620162Y-68959415D01*
X99559781Y-68813643D01*
X99529000Y-68658893D01*
X99529000Y-68501107D01*
X99559781Y-68346357D01*
X99620162Y-68200585D01*
X99707824Y-68069389D01*
X99819389Y-67957824D01*
X99950585Y-67870162D01*
X100096357Y-67809781D01*
X100251107Y-67779000D01*
X100408893Y-67779000D01*
X100563643Y-67809781D01*
X100563643Y-67809781D01*
G37*
G36*
X98023643Y-67809781D02*
X98169415Y-67870162D01*
X98300611Y-67957824D01*
X98412176Y-68069389D01*
X98499838Y-68200585D01*
X98560219Y-68346357D01*
X98591000Y-68501107D01*
X98591000Y-68658893D01*
X98560219Y-68813643D01*
X98499838Y-68959415D01*
X98412176Y-69090611D01*
X98300611Y-69202176D01*
X98169415Y-69289838D01*
X98023643Y-69350219D01*
X97868893Y-69381000D01*
X97711107Y-69381000D01*
X97556357Y-69350219D01*
X97410585Y-69289838D01*
X97279389Y-69202176D01*
X97167824Y-69090611D01*
X97080162Y-68959415D01*
X97019781Y-68813643D01*
X96989000Y-68658893D01*
X96989000Y-68501107D01*
X97019781Y-68346357D01*
X97080162Y-68200585D01*
X97167824Y-68069389D01*
X97279389Y-67957824D01*
X97410585Y-67870162D01*
X97556357Y-67809781D01*
X97711107Y-67779000D01*
X97868893Y-67779000D01*
X98023643Y-67809781D01*
X98023643Y-67809781D01*
G37*
G36*
X138663643Y-67809781D02*
X138809415Y-67870162D01*
X138940611Y-67957824D01*
X139052176Y-68069389D01*
X139139838Y-68200585D01*
X139200219Y-68346357D01*
X139231000Y-68501107D01*
X139231000Y-68658893D01*
X139200219Y-68813643D01*
X139139838Y-68959415D01*
X139052176Y-69090611D01*
X138940611Y-69202176D01*
X138809415Y-69289838D01*
X138663643Y-69350219D01*
X138508893Y-69381000D01*
X138351107Y-69381000D01*
X138196357Y-69350219D01*
X138050585Y-69289838D01*
X137919389Y-69202176D01*
X137807824Y-69090611D01*
X137720162Y-68959415D01*
X137659781Y-68813643D01*
X137629000Y-68658893D01*
X137629000Y-68501107D01*
X137659781Y-68346357D01*
X137720162Y-68200585D01*
X137807824Y-68069389D01*
X137919389Y-67957824D01*
X138050585Y-67870162D01*
X138196357Y-67809781D01*
X138351107Y-67779000D01*
X138508893Y-67779000D01*
X138663643Y-67809781D01*
X138663643Y-67809781D01*
G37*
G36*
X92943643Y-67809781D02*
X93089415Y-67870162D01*
X93220611Y-67957824D01*
X93332176Y-68069389D01*
X93419838Y-68200585D01*
X93480219Y-68346357D01*
X93511000Y-68501107D01*
X93511000Y-68658893D01*
X93480219Y-68813643D01*
X93419838Y-68959415D01*
X93332176Y-69090611D01*
X93220611Y-69202176D01*
X93089415Y-69289838D01*
X92943643Y-69350219D01*
X92788893Y-69381000D01*
X92631107Y-69381000D01*
X92476357Y-69350219D01*
X92330585Y-69289838D01*
X92199389Y-69202176D01*
X92087824Y-69090611D01*
X92000162Y-68959415D01*
X91939781Y-68813643D01*
X91909000Y-68658893D01*
X91909000Y-68501107D01*
X91939781Y-68346357D01*
X92000162Y-68200585D01*
X92087824Y-68069389D01*
X92199389Y-67957824D01*
X92330585Y-67870162D01*
X92476357Y-67809781D01*
X92631107Y-67779000D01*
X92788893Y-67779000D01*
X92943643Y-67809781D01*
X92943643Y-67809781D01*
G37*
G36*
X90403643Y-67809781D02*
X90549415Y-67870162D01*
X90680611Y-67957824D01*
X90792176Y-68069389D01*
X90879838Y-68200585D01*
X90940219Y-68346357D01*
X90971000Y-68501107D01*
X90971000Y-68658893D01*
X90940219Y-68813643D01*
X90879838Y-68959415D01*
X90792176Y-69090611D01*
X90680611Y-69202176D01*
X90549415Y-69289838D01*
X90403643Y-69350219D01*
X90248893Y-69381000D01*
X90091107Y-69381000D01*
X89936357Y-69350219D01*
X89790585Y-69289838D01*
X89659389Y-69202176D01*
X89547824Y-69090611D01*
X89460162Y-68959415D01*
X89399781Y-68813643D01*
X89369000Y-68658893D01*
X89369000Y-68501107D01*
X89399781Y-68346357D01*
X89460162Y-68200585D01*
X89547824Y-68069389D01*
X89659389Y-67957824D01*
X89790585Y-67870162D01*
X89936357Y-67809781D01*
X90091107Y-67779000D01*
X90248893Y-67779000D01*
X90403643Y-67809781D01*
X90403643Y-67809781D01*
G37*
G36*
X161523643Y-67809781D02*
X161669415Y-67870162D01*
X161800611Y-67957824D01*
X161912176Y-68069389D01*
X161999838Y-68200585D01*
X162060219Y-68346357D01*
X162091000Y-68501107D01*
X162091000Y-68658893D01*
X162060219Y-68813643D01*
X161999838Y-68959415D01*
X161912176Y-69090611D01*
X161800611Y-69202176D01*
X161669415Y-69289838D01*
X161523643Y-69350219D01*
X161368893Y-69381000D01*
X161211107Y-69381000D01*
X161056357Y-69350219D01*
X160910585Y-69289838D01*
X160779389Y-69202176D01*
X160667824Y-69090611D01*
X160580162Y-68959415D01*
X160519781Y-68813643D01*
X160489000Y-68658893D01*
X160489000Y-68501107D01*
X160519781Y-68346357D01*
X160580162Y-68200585D01*
X160667824Y-68069389D01*
X160779389Y-67957824D01*
X160910585Y-67870162D01*
X161056357Y-67809781D01*
X161211107Y-67779000D01*
X161368893Y-67779000D01*
X161523643Y-67809781D01*
X161523643Y-67809781D01*
G37*
G36*
X158983643Y-67809781D02*
X159129415Y-67870162D01*
X159260611Y-67957824D01*
X159372176Y-68069389D01*
X159459838Y-68200585D01*
X159520219Y-68346357D01*
X159551000Y-68501107D01*
X159551000Y-68658893D01*
X159520219Y-68813643D01*
X159459838Y-68959415D01*
X159372176Y-69090611D01*
X159260611Y-69202176D01*
X159129415Y-69289838D01*
X158983643Y-69350219D01*
X158828893Y-69381000D01*
X158671107Y-69381000D01*
X158516357Y-69350219D01*
X158370585Y-69289838D01*
X158239389Y-69202176D01*
X158127824Y-69090611D01*
X158040162Y-68959415D01*
X157979781Y-68813643D01*
X157949000Y-68658893D01*
X157949000Y-68501107D01*
X157979781Y-68346357D01*
X158040162Y-68200585D01*
X158127824Y-68069389D01*
X158239389Y-67957824D01*
X158370585Y-67870162D01*
X158516357Y-67809781D01*
X158671107Y-67779000D01*
X158828893Y-67779000D01*
X158983643Y-67809781D01*
X158983643Y-67809781D01*
G37*
G36*
X156443643Y-67809781D02*
X156589415Y-67870162D01*
X156720611Y-67957824D01*
X156832176Y-68069389D01*
X156919838Y-68200585D01*
X156980219Y-68346357D01*
X157011000Y-68501107D01*
X157011000Y-68658893D01*
X156980219Y-68813643D01*
X156919838Y-68959415D01*
X156832176Y-69090611D01*
X156720611Y-69202176D01*
X156589415Y-69289838D01*
X156443643Y-69350219D01*
X156288893Y-69381000D01*
X156131107Y-69381000D01*
X155976357Y-69350219D01*
X155830585Y-69289838D01*
X155699389Y-69202176D01*
X155587824Y-69090611D01*
X155500162Y-68959415D01*
X155439781Y-68813643D01*
X155409000Y-68658893D01*
X155409000Y-68501107D01*
X155439781Y-68346357D01*
X155500162Y-68200585D01*
X155587824Y-68069389D01*
X155699389Y-67957824D01*
X155830585Y-67870162D01*
X155976357Y-67809781D01*
X156131107Y-67779000D01*
X156288893Y-67779000D01*
X156443643Y-67809781D01*
X156443643Y-67809781D01*
G37*
G36*
X153903643Y-67809781D02*
X154049415Y-67870162D01*
X154180611Y-67957824D01*
X154292176Y-68069389D01*
X154379838Y-68200585D01*
X154440219Y-68346357D01*
X154471000Y-68501107D01*
X154471000Y-68658893D01*
X154440219Y-68813643D01*
X154379838Y-68959415D01*
X154292176Y-69090611D01*
X154180611Y-69202176D01*
X154049415Y-69289838D01*
X153903643Y-69350219D01*
X153748893Y-69381000D01*
X153591107Y-69381000D01*
X153436357Y-69350219D01*
X153290585Y-69289838D01*
X153159389Y-69202176D01*
X153047824Y-69090611D01*
X152960162Y-68959415D01*
X152899781Y-68813643D01*
X152869000Y-68658893D01*
X152869000Y-68501107D01*
X152899781Y-68346357D01*
X152960162Y-68200585D01*
X153047824Y-68069389D01*
X153159389Y-67957824D01*
X153290585Y-67870162D01*
X153436357Y-67809781D01*
X153591107Y-67779000D01*
X153748893Y-67779000D01*
X153903643Y-67809781D01*
X153903643Y-67809781D01*
G37*
G36*
X151363643Y-67809781D02*
X151509415Y-67870162D01*
X151640611Y-67957824D01*
X151752176Y-68069389D01*
X151839838Y-68200585D01*
X151900219Y-68346357D01*
X151931000Y-68501107D01*
X151931000Y-68658893D01*
X151900219Y-68813643D01*
X151839838Y-68959415D01*
X151752176Y-69090611D01*
X151640611Y-69202176D01*
X151509415Y-69289838D01*
X151363643Y-69350219D01*
X151208893Y-69381000D01*
X151051107Y-69381000D01*
X150896357Y-69350219D01*
X150750585Y-69289838D01*
X150619389Y-69202176D01*
X150507824Y-69090611D01*
X150420162Y-68959415D01*
X150359781Y-68813643D01*
X150329000Y-68658893D01*
X150329000Y-68501107D01*
X150359781Y-68346357D01*
X150420162Y-68200585D01*
X150507824Y-68069389D01*
X150619389Y-67957824D01*
X150750585Y-67870162D01*
X150896357Y-67809781D01*
X151051107Y-67779000D01*
X151208893Y-67779000D01*
X151363643Y-67809781D01*
X151363643Y-67809781D01*
G37*
G36*
X148823643Y-67809781D02*
X148969415Y-67870162D01*
X149100611Y-67957824D01*
X149212176Y-68069389D01*
X149299838Y-68200585D01*
X149360219Y-68346357D01*
X149391000Y-68501107D01*
X149391000Y-68658893D01*
X149360219Y-68813643D01*
X149299838Y-68959415D01*
X149212176Y-69090611D01*
X149100611Y-69202176D01*
X148969415Y-69289838D01*
X148823643Y-69350219D01*
X148668893Y-69381000D01*
X148511107Y-69381000D01*
X148356357Y-69350219D01*
X148210585Y-69289838D01*
X148079389Y-69202176D01*
X147967824Y-69090611D01*
X147880162Y-68959415D01*
X147819781Y-68813643D01*
X147789000Y-68658893D01*
X147789000Y-68501107D01*
X147819781Y-68346357D01*
X147880162Y-68200585D01*
X147967824Y-68069389D01*
X148079389Y-67957824D01*
X148210585Y-67870162D01*
X148356357Y-67809781D01*
X148511107Y-67779000D01*
X148668893Y-67779000D01*
X148823643Y-67809781D01*
X148823643Y-67809781D01*
G37*
G36*
X143743643Y-67809781D02*
X143889415Y-67870162D01*
X144020611Y-67957824D01*
X144132176Y-68069389D01*
X144219838Y-68200585D01*
X144280219Y-68346357D01*
X144311000Y-68501107D01*
X144311000Y-68658893D01*
X144280219Y-68813643D01*
X144219838Y-68959415D01*
X144132176Y-69090611D01*
X144020611Y-69202176D01*
X143889415Y-69289838D01*
X143743643Y-69350219D01*
X143588893Y-69381000D01*
X143431107Y-69381000D01*
X143276357Y-69350219D01*
X143130585Y-69289838D01*
X142999389Y-69202176D01*
X142887824Y-69090611D01*
X142800162Y-68959415D01*
X142739781Y-68813643D01*
X142709000Y-68658893D01*
X142709000Y-68501107D01*
X142739781Y-68346357D01*
X142800162Y-68200585D01*
X142887824Y-68069389D01*
X142999389Y-67957824D01*
X143130585Y-67870162D01*
X143276357Y-67809781D01*
X143431107Y-67779000D01*
X143588893Y-67779000D01*
X143743643Y-67809781D01*
X143743643Y-67809781D01*
G37*
G36*
X141203643Y-67809781D02*
X141349415Y-67870162D01*
X141480611Y-67957824D01*
X141592176Y-68069389D01*
X141679838Y-68200585D01*
X141740219Y-68346357D01*
X141771000Y-68501107D01*
X141771000Y-68658893D01*
X141740219Y-68813643D01*
X141679838Y-68959415D01*
X141592176Y-69090611D01*
X141480611Y-69202176D01*
X141349415Y-69289838D01*
X141203643Y-69350219D01*
X141048893Y-69381000D01*
X140891107Y-69381000D01*
X140736357Y-69350219D01*
X140590585Y-69289838D01*
X140459389Y-69202176D01*
X140347824Y-69090611D01*
X140260162Y-68959415D01*
X140199781Y-68813643D01*
X140169000Y-68658893D01*
X140169000Y-68501107D01*
X140199781Y-68346357D01*
X140260162Y-68200585D01*
X140347824Y-68069389D01*
X140459389Y-67957824D01*
X140590585Y-67870162D01*
X140736357Y-67809781D01*
X140891107Y-67779000D01*
X141048893Y-67779000D01*
X141203643Y-67809781D01*
X141203643Y-67809781D01*
G37*
G36*
X105643643Y-67809781D02*
X105789415Y-67870162D01*
X105920611Y-67957824D01*
X106032176Y-68069389D01*
X106119838Y-68200585D01*
X106180219Y-68346357D01*
X106211000Y-68501107D01*
X106211000Y-68658893D01*
X106180219Y-68813643D01*
X106119838Y-68959415D01*
X106032176Y-69090611D01*
X105920611Y-69202176D01*
X105789415Y-69289838D01*
X105643643Y-69350219D01*
X105488893Y-69381000D01*
X105331107Y-69381000D01*
X105176357Y-69350219D01*
X105030585Y-69289838D01*
X104899389Y-69202176D01*
X104787824Y-69090611D01*
X104700162Y-68959415D01*
X104639781Y-68813643D01*
X104609000Y-68658893D01*
X104609000Y-68501107D01*
X104639781Y-68346357D01*
X104700162Y-68200585D01*
X104787824Y-68069389D01*
X104899389Y-67957824D01*
X105030585Y-67870162D01*
X105176357Y-67809781D01*
X105331107Y-67779000D01*
X105488893Y-67779000D01*
X105643643Y-67809781D01*
X105643643Y-67809781D01*
G37*
G36*
X118343643Y-67809781D02*
X118489415Y-67870162D01*
X118620611Y-67957824D01*
X118732176Y-68069389D01*
X118819838Y-68200585D01*
X118880219Y-68346357D01*
X118911000Y-68501107D01*
X118911000Y-68658893D01*
X118880219Y-68813643D01*
X118819838Y-68959415D01*
X118732176Y-69090611D01*
X118620611Y-69202176D01*
X118489415Y-69289838D01*
X118343643Y-69350219D01*
X118188893Y-69381000D01*
X118031107Y-69381000D01*
X117876357Y-69350219D01*
X117730585Y-69289838D01*
X117599389Y-69202176D01*
X117487824Y-69090611D01*
X117400162Y-68959415D01*
X117339781Y-68813643D01*
X117309000Y-68658893D01*
X117309000Y-68501107D01*
X117339781Y-68346357D01*
X117400162Y-68200585D01*
X117487824Y-68069389D01*
X117599389Y-67957824D01*
X117730585Y-67870162D01*
X117876357Y-67809781D01*
X118031107Y-67779000D01*
X118188893Y-67779000D01*
X118343643Y-67809781D01*
X118343643Y-67809781D01*
G37*
G36*
X128503643Y-67809781D02*
X128649415Y-67870162D01*
X128780611Y-67957824D01*
X128892176Y-68069389D01*
X128979838Y-68200585D01*
X129040219Y-68346357D01*
X129071000Y-68501107D01*
X129071000Y-68658893D01*
X129040219Y-68813643D01*
X128979838Y-68959415D01*
X128892176Y-69090611D01*
X128780611Y-69202176D01*
X128649415Y-69289838D01*
X128503643Y-69350219D01*
X128348893Y-69381000D01*
X128191107Y-69381000D01*
X128036357Y-69350219D01*
X127890585Y-69289838D01*
X127759389Y-69202176D01*
X127647824Y-69090611D01*
X127560162Y-68959415D01*
X127499781Y-68813643D01*
X127469000Y-68658893D01*
X127469000Y-68501107D01*
X127499781Y-68346357D01*
X127560162Y-68200585D01*
X127647824Y-68069389D01*
X127759389Y-67957824D01*
X127890585Y-67870162D01*
X128036357Y-67809781D01*
X128191107Y-67779000D01*
X128348893Y-67779000D01*
X128503643Y-67809781D01*
X128503643Y-67809781D01*
G37*
G36*
X131043643Y-67809781D02*
X131189415Y-67870162D01*
X131320611Y-67957824D01*
X131432176Y-68069389D01*
X131519838Y-68200585D01*
X131580219Y-68346357D01*
X131611000Y-68501107D01*
X131611000Y-68658893D01*
X131580219Y-68813643D01*
X131519838Y-68959415D01*
X131432176Y-69090611D01*
X131320611Y-69202176D01*
X131189415Y-69289838D01*
X131043643Y-69350219D01*
X130888893Y-69381000D01*
X130731107Y-69381000D01*
X130576357Y-69350219D01*
X130430585Y-69289838D01*
X130299389Y-69202176D01*
X130187824Y-69090611D01*
X130100162Y-68959415D01*
X130039781Y-68813643D01*
X130009000Y-68658893D01*
X130009000Y-68501107D01*
X130039781Y-68346357D01*
X130100162Y-68200585D01*
X130187824Y-68069389D01*
X130299389Y-67957824D01*
X130430585Y-67870162D01*
X130576357Y-67809781D01*
X130731107Y-67779000D01*
X130888893Y-67779000D01*
X131043643Y-67809781D01*
X131043643Y-67809781D01*
G37*
G36*
X146283643Y-67809781D02*
X146429415Y-67870162D01*
X146560611Y-67957824D01*
X146672176Y-68069389D01*
X146759838Y-68200585D01*
X146820219Y-68346357D01*
X146851000Y-68501107D01*
X146851000Y-68658893D01*
X146820219Y-68813643D01*
X146759838Y-68959415D01*
X146672176Y-69090611D01*
X146560611Y-69202176D01*
X146429415Y-69289838D01*
X146283643Y-69350219D01*
X146128893Y-69381000D01*
X145971107Y-69381000D01*
X145816357Y-69350219D01*
X145670585Y-69289838D01*
X145539389Y-69202176D01*
X145427824Y-69090611D01*
X145340162Y-68959415D01*
X145279781Y-68813643D01*
X145249000Y-68658893D01*
X145249000Y-68501107D01*
X145279781Y-68346357D01*
X145340162Y-68200585D01*
X145427824Y-68069389D01*
X145539389Y-67957824D01*
X145670585Y-67870162D01*
X145816357Y-67809781D01*
X145971107Y-67779000D01*
X146128893Y-67779000D01*
X146283643Y-67809781D01*
X146283643Y-67809781D01*
G37*
G36*
X133583643Y-67809781D02*
X133729415Y-67870162D01*
X133860611Y-67957824D01*
X133972176Y-68069389D01*
X134059838Y-68200585D01*
X134120219Y-68346357D01*
X134151000Y-68501107D01*
X134151000Y-68658893D01*
X134120219Y-68813643D01*
X134059838Y-68959415D01*
X133972176Y-69090611D01*
X133860611Y-69202176D01*
X133729415Y-69289838D01*
X133583643Y-69350219D01*
X133428893Y-69381000D01*
X133271107Y-69381000D01*
X133116357Y-69350219D01*
X132970585Y-69289838D01*
X132839389Y-69202176D01*
X132727824Y-69090611D01*
X132640162Y-68959415D01*
X132579781Y-68813643D01*
X132549000Y-68658893D01*
X132549000Y-68501107D01*
X132579781Y-68346357D01*
X132640162Y-68200585D01*
X132727824Y-68069389D01*
X132839389Y-67957824D01*
X132970585Y-67870162D01*
X133116357Y-67809781D01*
X133271107Y-67779000D01*
X133428893Y-67779000D01*
X133583643Y-67809781D01*
X133583643Y-67809781D01*
G37*
G36*
X136123643Y-67809781D02*
X136269415Y-67870162D01*
X136400611Y-67957824D01*
X136512176Y-68069389D01*
X136599838Y-68200585D01*
X136660219Y-68346357D01*
X136691000Y-68501107D01*
X136691000Y-68658893D01*
X136660219Y-68813643D01*
X136599838Y-68959415D01*
X136512176Y-69090611D01*
X136400611Y-69202176D01*
X136269415Y-69289838D01*
X136123643Y-69350219D01*
X135968893Y-69381000D01*
X135811107Y-69381000D01*
X135656357Y-69350219D01*
X135510585Y-69289838D01*
X135379389Y-69202176D01*
X135267824Y-69090611D01*
X135180162Y-68959415D01*
X135119781Y-68813643D01*
X135089000Y-68658893D01*
X135089000Y-68501107D01*
X135119781Y-68346357D01*
X135180162Y-68200585D01*
X135267824Y-68069389D01*
X135379389Y-67957824D01*
X135510585Y-67870162D01*
X135656357Y-67809781D01*
X135811107Y-67779000D01*
X135968893Y-67779000D01*
X136123643Y-67809781D01*
X136123643Y-67809781D01*
G37*
G36*
X95483643Y-67809781D02*
X95629415Y-67870162D01*
X95760611Y-67957824D01*
X95872176Y-68069389D01*
X95959838Y-68200585D01*
X96020219Y-68346357D01*
X96051000Y-68501107D01*
X96051000Y-68658893D01*
X96020219Y-68813643D01*
X95959838Y-68959415D01*
X95872176Y-69090611D01*
X95760611Y-69202176D01*
X95629415Y-69289838D01*
X95483643Y-69350219D01*
X95328893Y-69381000D01*
X95171107Y-69381000D01*
X95016357Y-69350219D01*
X94870585Y-69289838D01*
X94739389Y-69202176D01*
X94627824Y-69090611D01*
X94540162Y-68959415D01*
X94479781Y-68813643D01*
X94449000Y-68658893D01*
X94449000Y-68501107D01*
X94479781Y-68346357D01*
X94540162Y-68200585D01*
X94627824Y-68069389D01*
X94739389Y-67957824D01*
X94870585Y-67870162D01*
X95016357Y-67809781D01*
X95171107Y-67779000D01*
X95328893Y-67779000D01*
X95483643Y-67809781D01*
X95483643Y-67809781D01*
G37*
G36*
X123423643Y-67809781D02*
X123569415Y-67870162D01*
X123700611Y-67957824D01*
X123812176Y-68069389D01*
X123899838Y-68200585D01*
X123960219Y-68346357D01*
X123991000Y-68501107D01*
X123991000Y-68658893D01*
X123960219Y-68813643D01*
X123899838Y-68959415D01*
X123812176Y-69090611D01*
X123700611Y-69202176D01*
X123569415Y-69289838D01*
X123423643Y-69350219D01*
X123268893Y-69381000D01*
X123111107Y-69381000D01*
X122956357Y-69350219D01*
X122810585Y-69289838D01*
X122679389Y-69202176D01*
X122567824Y-69090611D01*
X122480162Y-68959415D01*
X122419781Y-68813643D01*
X122389000Y-68658893D01*
X122389000Y-68501107D01*
X122419781Y-68346357D01*
X122480162Y-68200585D01*
X122567824Y-68069389D01*
X122679389Y-67957824D01*
X122810585Y-67870162D01*
X122956357Y-67809781D01*
X123111107Y-67779000D01*
X123268893Y-67779000D01*
X123423643Y-67809781D01*
X123423643Y-67809781D01*
G37*
G36*
X120883643Y-67809781D02*
X121029415Y-67870162D01*
X121160611Y-67957824D01*
X121272176Y-68069389D01*
X121359838Y-68200585D01*
X121420219Y-68346357D01*
X121451000Y-68501107D01*
X121451000Y-68658893D01*
X121420219Y-68813643D01*
X121359838Y-68959415D01*
X121272176Y-69090611D01*
X121160611Y-69202176D01*
X121029415Y-69289838D01*
X120883643Y-69350219D01*
X120728893Y-69381000D01*
X120571107Y-69381000D01*
X120416357Y-69350219D01*
X120270585Y-69289838D01*
X120139389Y-69202176D01*
X120027824Y-69090611D01*
X119940162Y-68959415D01*
X119879781Y-68813643D01*
X119849000Y-68658893D01*
X119849000Y-68501107D01*
X119879781Y-68346357D01*
X119940162Y-68200585D01*
X120027824Y-68069389D01*
X120139389Y-67957824D01*
X120270585Y-67870162D01*
X120416357Y-67809781D01*
X120571107Y-67779000D01*
X120728893Y-67779000D01*
X120883643Y-67809781D01*
X120883643Y-67809781D01*
G37*
G36*
X115803643Y-67809781D02*
X115949415Y-67870162D01*
X116080611Y-67957824D01*
X116192176Y-68069389D01*
X116279838Y-68200585D01*
X116340219Y-68346357D01*
X116371000Y-68501107D01*
X116371000Y-68658893D01*
X116340219Y-68813643D01*
X116279838Y-68959415D01*
X116192176Y-69090611D01*
X116080611Y-69202176D01*
X115949415Y-69289838D01*
X115803643Y-69350219D01*
X115648893Y-69381000D01*
X115491107Y-69381000D01*
X115336357Y-69350219D01*
X115190585Y-69289838D01*
X115059389Y-69202176D01*
X114947824Y-69090611D01*
X114860162Y-68959415D01*
X114799781Y-68813643D01*
X114769000Y-68658893D01*
X114769000Y-68501107D01*
X114799781Y-68346357D01*
X114860162Y-68200585D01*
X114947824Y-68069389D01*
X115059389Y-67957824D01*
X115190585Y-67870162D01*
X115336357Y-67809781D01*
X115491107Y-67779000D01*
X115648893Y-67779000D01*
X115803643Y-67809781D01*
X115803643Y-67809781D01*
G37*
G36*
X113263643Y-67809781D02*
X113409415Y-67870162D01*
X113540611Y-67957824D01*
X113652176Y-68069389D01*
X113739838Y-68200585D01*
X113800219Y-68346357D01*
X113831000Y-68501107D01*
X113831000Y-68658893D01*
X113800219Y-68813643D01*
X113739838Y-68959415D01*
X113652176Y-69090611D01*
X113540611Y-69202176D01*
X113409415Y-69289838D01*
X113263643Y-69350219D01*
X113108893Y-69381000D01*
X112951107Y-69381000D01*
X112796357Y-69350219D01*
X112650585Y-69289838D01*
X112519389Y-69202176D01*
X112407824Y-69090611D01*
X112320162Y-68959415D01*
X112259781Y-68813643D01*
X112229000Y-68658893D01*
X112229000Y-68501107D01*
X112259781Y-68346357D01*
X112320162Y-68200585D01*
X112407824Y-68069389D01*
X112519389Y-67957824D01*
X112650585Y-67870162D01*
X112796357Y-67809781D01*
X112951107Y-67779000D01*
X113108893Y-67779000D01*
X113263643Y-67809781D01*
X113263643Y-67809781D01*
G37*
G36*
X110723643Y-67809781D02*
X110869415Y-67870162D01*
X111000611Y-67957824D01*
X111112176Y-68069389D01*
X111199838Y-68200585D01*
X111260219Y-68346357D01*
X111291000Y-68501107D01*
X111291000Y-68658893D01*
X111260219Y-68813643D01*
X111199838Y-68959415D01*
X111112176Y-69090611D01*
X111000611Y-69202176D01*
X110869415Y-69289838D01*
X110723643Y-69350219D01*
X110568893Y-69381000D01*
X110411107Y-69381000D01*
X110256357Y-69350219D01*
X110110585Y-69289838D01*
X109979389Y-69202176D01*
X109867824Y-69090611D01*
X109780162Y-68959415D01*
X109719781Y-68813643D01*
X109689000Y-68658893D01*
X109689000Y-68501107D01*
X109719781Y-68346357D01*
X109780162Y-68200585D01*
X109867824Y-68069389D01*
X109979389Y-67957824D01*
X110110585Y-67870162D01*
X110256357Y-67809781D01*
X110411107Y-67779000D01*
X110568893Y-67779000D01*
X110723643Y-67809781D01*
X110723643Y-67809781D01*
G37*
G36*
X108183643Y-67809781D02*
X108329415Y-67870162D01*
X108460611Y-67957824D01*
X108572176Y-68069389D01*
X108659838Y-68200585D01*
X108720219Y-68346357D01*
X108751000Y-68501107D01*
X108751000Y-68658893D01*
X108720219Y-68813643D01*
X108659838Y-68959415D01*
X108572176Y-69090611D01*
X108460611Y-69202176D01*
X108329415Y-69289838D01*
X108183643Y-69350219D01*
X108028893Y-69381000D01*
X107871107Y-69381000D01*
X107716357Y-69350219D01*
X107570585Y-69289838D01*
X107439389Y-69202176D01*
X107327824Y-69090611D01*
X107240162Y-68959415D01*
X107179781Y-68813643D01*
X107149000Y-68658893D01*
X107149000Y-68501107D01*
X107179781Y-68346357D01*
X107240162Y-68200585D01*
X107327824Y-68069389D01*
X107439389Y-67957824D01*
X107570585Y-67870162D01*
X107716357Y-67809781D01*
X107871107Y-67779000D01*
X108028893Y-67779000D01*
X108183643Y-67809781D01*
X108183643Y-67809781D01*
G37*
G36*
X159411000Y-65181000D02*
X157759000Y-65181000D01*
X157759000Y-63779000D01*
X159411000Y-63779000D01*
X159411000Y-65181000D01*
X159411000Y-65181000D01*
G37*
G36*
X167361000Y-65181000D02*
X165709000Y-65181000D01*
X165709000Y-63779000D01*
X167361000Y-63779000D01*
X167361000Y-65181000D01*
X167361000Y-65181000D01*
G37*
G36*
X155540710Y-63643510D02*
X154339290Y-63643510D01*
X154339290Y-62340490D01*
X155540710Y-62340490D01*
X155540710Y-63643510D01*
X155540710Y-63643510D01*
G37*
G36*
X122153643Y-61459781D02*
X122299415Y-61520162D01*
X122430611Y-61607824D01*
X122542176Y-61719389D01*
X122629838Y-61850585D01*
X122690219Y-61996357D01*
X122721000Y-62151107D01*
X122721000Y-62308893D01*
X122690219Y-62463643D01*
X122629838Y-62609415D01*
X122542176Y-62740611D01*
X122430611Y-62852176D01*
X122299415Y-62939838D01*
X122153643Y-63000219D01*
X121998893Y-63031000D01*
X121841107Y-63031000D01*
X121686357Y-63000219D01*
X121540585Y-62939838D01*
X121409389Y-62852176D01*
X121297824Y-62740611D01*
X121210162Y-62609415D01*
X121149781Y-62463643D01*
X121119000Y-62308893D01*
X121119000Y-62151107D01*
X121149781Y-61996357D01*
X121210162Y-61850585D01*
X121297824Y-61719389D01*
X121409389Y-61607824D01*
X121540585Y-61520162D01*
X121686357Y-61459781D01*
X121841107Y-61429000D01*
X121998893Y-61429000D01*
X122153643Y-61459781D01*
X122153643Y-61459781D01*
G37*
G36*
X119613643Y-61459781D02*
X119759415Y-61520162D01*
X119890611Y-61607824D01*
X120002176Y-61719389D01*
X120089838Y-61850585D01*
X120150219Y-61996357D01*
X120181000Y-62151107D01*
X120181000Y-62308893D01*
X120150219Y-62463643D01*
X120089838Y-62609415D01*
X120002176Y-62740611D01*
X119890611Y-62852176D01*
X119759415Y-62939838D01*
X119613643Y-63000219D01*
X119458893Y-63031000D01*
X119301107Y-63031000D01*
X119146357Y-63000219D01*
X119000585Y-62939838D01*
X118869389Y-62852176D01*
X118757824Y-62740611D01*
X118670162Y-62609415D01*
X118609781Y-62463643D01*
X118579000Y-62308893D01*
X118579000Y-62151107D01*
X118609781Y-61996357D01*
X118670162Y-61850585D01*
X118757824Y-61719389D01*
X118869389Y-61607824D01*
X119000585Y-61520162D01*
X119146357Y-61459781D01*
X119301107Y-61429000D01*
X119458893Y-61429000D01*
X119613643Y-61459781D01*
X119613643Y-61459781D01*
G37*
G36*
X101833643Y-61459781D02*
X101979415Y-61520162D01*
X102110611Y-61607824D01*
X102222176Y-61719389D01*
X102309838Y-61850585D01*
X102370219Y-61996357D01*
X102401000Y-62151107D01*
X102401000Y-62308893D01*
X102370219Y-62463643D01*
X102309838Y-62609415D01*
X102222176Y-62740611D01*
X102110611Y-62852176D01*
X101979415Y-62939838D01*
X101833643Y-63000219D01*
X101678893Y-63031000D01*
X101521107Y-63031000D01*
X101366357Y-63000219D01*
X101220585Y-62939838D01*
X101089389Y-62852176D01*
X100977824Y-62740611D01*
X100890162Y-62609415D01*
X100829781Y-62463643D01*
X100799000Y-62308893D01*
X100799000Y-62151107D01*
X100829781Y-61996357D01*
X100890162Y-61850585D01*
X100977824Y-61719389D01*
X101089389Y-61607824D01*
X101220585Y-61520162D01*
X101366357Y-61459781D01*
X101521107Y-61429000D01*
X101678893Y-61429000D01*
X101833643Y-61459781D01*
X101833643Y-61459781D01*
G37*
G36*
X117073643Y-61459781D02*
X117219415Y-61520162D01*
X117350611Y-61607824D01*
X117462176Y-61719389D01*
X117549838Y-61850585D01*
X117610219Y-61996357D01*
X117641000Y-62151107D01*
X117641000Y-62308893D01*
X117610219Y-62463643D01*
X117549838Y-62609415D01*
X117462176Y-62740611D01*
X117350611Y-62852176D01*
X117219415Y-62939838D01*
X117073643Y-63000219D01*
X116918893Y-63031000D01*
X116761107Y-63031000D01*
X116606357Y-63000219D01*
X116460585Y-62939838D01*
X116329389Y-62852176D01*
X116217824Y-62740611D01*
X116130162Y-62609415D01*
X116069781Y-62463643D01*
X116039000Y-62308893D01*
X116039000Y-62151107D01*
X116069781Y-61996357D01*
X116130162Y-61850585D01*
X116217824Y-61719389D01*
X116329389Y-61607824D01*
X116460585Y-61520162D01*
X116606357Y-61459781D01*
X116761107Y-61429000D01*
X116918893Y-61429000D01*
X117073643Y-61459781D01*
X117073643Y-61459781D01*
G37*
G36*
X114533643Y-61459781D02*
X114679415Y-61520162D01*
X114810611Y-61607824D01*
X114922176Y-61719389D01*
X115009838Y-61850585D01*
X115070219Y-61996357D01*
X115101000Y-62151107D01*
X115101000Y-62308893D01*
X115070219Y-62463643D01*
X115009838Y-62609415D01*
X114922176Y-62740611D01*
X114810611Y-62852176D01*
X114679415Y-62939838D01*
X114533643Y-63000219D01*
X114378893Y-63031000D01*
X114221107Y-63031000D01*
X114066357Y-63000219D01*
X113920585Y-62939838D01*
X113789389Y-62852176D01*
X113677824Y-62740611D01*
X113590162Y-62609415D01*
X113529781Y-62463643D01*
X113499000Y-62308893D01*
X113499000Y-62151107D01*
X113529781Y-61996357D01*
X113590162Y-61850585D01*
X113677824Y-61719389D01*
X113789389Y-61607824D01*
X113920585Y-61520162D01*
X114066357Y-61459781D01*
X114221107Y-61429000D01*
X114378893Y-61429000D01*
X114533643Y-61459781D01*
X114533643Y-61459781D01*
G37*
G36*
X111993643Y-61459781D02*
X112139415Y-61520162D01*
X112270611Y-61607824D01*
X112382176Y-61719389D01*
X112469838Y-61850585D01*
X112530219Y-61996357D01*
X112561000Y-62151107D01*
X112561000Y-62308893D01*
X112530219Y-62463643D01*
X112469838Y-62609415D01*
X112382176Y-62740611D01*
X112270611Y-62852176D01*
X112139415Y-62939838D01*
X111993643Y-63000219D01*
X111838893Y-63031000D01*
X111681107Y-63031000D01*
X111526357Y-63000219D01*
X111380585Y-62939838D01*
X111249389Y-62852176D01*
X111137824Y-62740611D01*
X111050162Y-62609415D01*
X110989781Y-62463643D01*
X110959000Y-62308893D01*
X110959000Y-62151107D01*
X110989781Y-61996357D01*
X111050162Y-61850585D01*
X111137824Y-61719389D01*
X111249389Y-61607824D01*
X111380585Y-61520162D01*
X111526357Y-61459781D01*
X111681107Y-61429000D01*
X111838893Y-61429000D01*
X111993643Y-61459781D01*
X111993643Y-61459781D01*
G37*
G36*
X109453643Y-61459781D02*
X109599415Y-61520162D01*
X109730611Y-61607824D01*
X109842176Y-61719389D01*
X109929838Y-61850585D01*
X109990219Y-61996357D01*
X110021000Y-62151107D01*
X110021000Y-62308893D01*
X109990219Y-62463643D01*
X109929838Y-62609415D01*
X109842176Y-62740611D01*
X109730611Y-62852176D01*
X109599415Y-62939838D01*
X109453643Y-63000219D01*
X109298893Y-63031000D01*
X109141107Y-63031000D01*
X108986357Y-63000219D01*
X108840585Y-62939838D01*
X108709389Y-62852176D01*
X108597824Y-62740611D01*
X108510162Y-62609415D01*
X108449781Y-62463643D01*
X108419000Y-62308893D01*
X108419000Y-62151107D01*
X108449781Y-61996357D01*
X108510162Y-61850585D01*
X108597824Y-61719389D01*
X108709389Y-61607824D01*
X108840585Y-61520162D01*
X108986357Y-61459781D01*
X109141107Y-61429000D01*
X109298893Y-61429000D01*
X109453643Y-61459781D01*
X109453643Y-61459781D01*
G37*
G36*
X106913643Y-61459781D02*
X107059415Y-61520162D01*
X107190611Y-61607824D01*
X107302176Y-61719389D01*
X107389838Y-61850585D01*
X107450219Y-61996357D01*
X107481000Y-62151107D01*
X107481000Y-62308893D01*
X107450219Y-62463643D01*
X107389838Y-62609415D01*
X107302176Y-62740611D01*
X107190611Y-62852176D01*
X107059415Y-62939838D01*
X106913643Y-63000219D01*
X106758893Y-63031000D01*
X106601107Y-63031000D01*
X106446357Y-63000219D01*
X106300585Y-62939838D01*
X106169389Y-62852176D01*
X106057824Y-62740611D01*
X105970162Y-62609415D01*
X105909781Y-62463643D01*
X105879000Y-62308893D01*
X105879000Y-62151107D01*
X105909781Y-61996357D01*
X105970162Y-61850585D01*
X106057824Y-61719389D01*
X106169389Y-61607824D01*
X106300585Y-61520162D01*
X106446357Y-61459781D01*
X106601107Y-61429000D01*
X106758893Y-61429000D01*
X106913643Y-61459781D01*
X106913643Y-61459781D01*
G37*
G36*
X104373643Y-61459781D02*
X104519415Y-61520162D01*
X104650611Y-61607824D01*
X104762176Y-61719389D01*
X104849838Y-61850585D01*
X104910219Y-61996357D01*
X104941000Y-62151107D01*
X104941000Y-62308893D01*
X104910219Y-62463643D01*
X104849838Y-62609415D01*
X104762176Y-62740611D01*
X104650611Y-62852176D01*
X104519415Y-62939838D01*
X104373643Y-63000219D01*
X104218893Y-63031000D01*
X104061107Y-63031000D01*
X103906357Y-63000219D01*
X103760585Y-62939838D01*
X103629389Y-62852176D01*
X103517824Y-62740611D01*
X103430162Y-62609415D01*
X103369781Y-62463643D01*
X103339000Y-62308893D01*
X103339000Y-62151107D01*
X103369781Y-61996357D01*
X103430162Y-61850585D01*
X103517824Y-61719389D01*
X103629389Y-61607824D01*
X103760585Y-61520162D01*
X103906357Y-61459781D01*
X104061107Y-61429000D01*
X104218893Y-61429000D01*
X104373643Y-61459781D01*
X104373643Y-61459781D01*
G37*
G36*
X124693643Y-61459781D02*
X124839415Y-61520162D01*
X124970611Y-61607824D01*
X125082176Y-61719389D01*
X125169838Y-61850585D01*
X125230219Y-61996357D01*
X125261000Y-62151107D01*
X125261000Y-62308893D01*
X125230219Y-62463643D01*
X125169838Y-62609415D01*
X125082176Y-62740611D01*
X124970611Y-62852176D01*
X124839415Y-62939838D01*
X124693643Y-63000219D01*
X124538893Y-63031000D01*
X124381107Y-63031000D01*
X124226357Y-63000219D01*
X124080585Y-62939838D01*
X123949389Y-62852176D01*
X123837824Y-62740611D01*
X123750162Y-62609415D01*
X123689781Y-62463643D01*
X123659000Y-62308893D01*
X123659000Y-62151107D01*
X123689781Y-61996357D01*
X123750162Y-61850585D01*
X123837824Y-61719389D01*
X123949389Y-61607824D01*
X124080585Y-61520162D01*
X124226357Y-61459781D01*
X124381107Y-61429000D01*
X124538893Y-61429000D01*
X124693643Y-61459781D01*
X124693643Y-61459781D01*
G37*
G36*
X132313643Y-61459781D02*
X132459415Y-61520162D01*
X132590611Y-61607824D01*
X132702176Y-61719389D01*
X132789838Y-61850585D01*
X132850219Y-61996357D01*
X132881000Y-62151107D01*
X132881000Y-62308893D01*
X132850219Y-62463643D01*
X132789838Y-62609415D01*
X132702176Y-62740611D01*
X132590611Y-62852176D01*
X132459415Y-62939838D01*
X132313643Y-63000219D01*
X132158893Y-63031000D01*
X132001107Y-63031000D01*
X131846357Y-63000219D01*
X131700585Y-62939838D01*
X131569389Y-62852176D01*
X131457824Y-62740611D01*
X131370162Y-62609415D01*
X131309781Y-62463643D01*
X131279000Y-62308893D01*
X131279000Y-62151107D01*
X131309781Y-61996357D01*
X131370162Y-61850585D01*
X131457824Y-61719389D01*
X131569389Y-61607824D01*
X131700585Y-61520162D01*
X131846357Y-61459781D01*
X132001107Y-61429000D01*
X132158893Y-61429000D01*
X132313643Y-61459781D01*
X132313643Y-61459781D01*
G37*
G36*
X134853643Y-61459781D02*
X134999415Y-61520162D01*
X135130611Y-61607824D01*
X135242176Y-61719389D01*
X135329838Y-61850585D01*
X135390219Y-61996357D01*
X135421000Y-62151107D01*
X135421000Y-62308893D01*
X135390219Y-62463643D01*
X135329838Y-62609415D01*
X135242176Y-62740611D01*
X135130611Y-62852176D01*
X134999415Y-62939838D01*
X134853643Y-63000219D01*
X134698893Y-63031000D01*
X134541107Y-63031000D01*
X134386357Y-63000219D01*
X134240585Y-62939838D01*
X134109389Y-62852176D01*
X133997824Y-62740611D01*
X133910162Y-62609415D01*
X133849781Y-62463643D01*
X133819000Y-62308893D01*
X133819000Y-62151107D01*
X133849781Y-61996357D01*
X133910162Y-61850585D01*
X133997824Y-61719389D01*
X134109389Y-61607824D01*
X134240585Y-61520162D01*
X134386357Y-61459781D01*
X134541107Y-61429000D01*
X134698893Y-61429000D01*
X134853643Y-61459781D01*
X134853643Y-61459781D01*
G37*
G36*
X137393643Y-61459781D02*
X137539415Y-61520162D01*
X137670611Y-61607824D01*
X137782176Y-61719389D01*
X137869838Y-61850585D01*
X137930219Y-61996357D01*
X137961000Y-62151107D01*
X137961000Y-62308893D01*
X137930219Y-62463643D01*
X137869838Y-62609415D01*
X137782176Y-62740611D01*
X137670611Y-62852176D01*
X137539415Y-62939838D01*
X137393643Y-63000219D01*
X137238893Y-63031000D01*
X137081107Y-63031000D01*
X136926357Y-63000219D01*
X136780585Y-62939838D01*
X136649389Y-62852176D01*
X136537824Y-62740611D01*
X136450162Y-62609415D01*
X136389781Y-62463643D01*
X136359000Y-62308893D01*
X136359000Y-62151107D01*
X136389781Y-61996357D01*
X136450162Y-61850585D01*
X136537824Y-61719389D01*
X136649389Y-61607824D01*
X136780585Y-61520162D01*
X136926357Y-61459781D01*
X137081107Y-61429000D01*
X137238893Y-61429000D01*
X137393643Y-61459781D01*
X137393643Y-61459781D01*
G37*
G36*
X139933643Y-61459781D02*
X140079415Y-61520162D01*
X140210611Y-61607824D01*
X140322176Y-61719389D01*
X140409838Y-61850585D01*
X140470219Y-61996357D01*
X140501000Y-62151107D01*
X140501000Y-62308893D01*
X140470219Y-62463643D01*
X140409838Y-62609415D01*
X140322176Y-62740611D01*
X140210611Y-62852176D01*
X140079415Y-62939838D01*
X139933643Y-63000219D01*
X139778893Y-63031000D01*
X139621107Y-63031000D01*
X139466357Y-63000219D01*
X139320585Y-62939838D01*
X139189389Y-62852176D01*
X139077824Y-62740611D01*
X138990162Y-62609415D01*
X138929781Y-62463643D01*
X138899000Y-62308893D01*
X138899000Y-62151107D01*
X138929781Y-61996357D01*
X138990162Y-61850585D01*
X139077824Y-61719389D01*
X139189389Y-61607824D01*
X139320585Y-61520162D01*
X139466357Y-61459781D01*
X139621107Y-61429000D01*
X139778893Y-61429000D01*
X139933643Y-61459781D01*
X139933643Y-61459781D01*
G37*
G36*
X142473643Y-61459781D02*
X142619415Y-61520162D01*
X142750611Y-61607824D01*
X142862176Y-61719389D01*
X142949838Y-61850585D01*
X143010219Y-61996357D01*
X143041000Y-62151107D01*
X143041000Y-62308893D01*
X143010219Y-62463643D01*
X142949838Y-62609415D01*
X142862176Y-62740611D01*
X142750611Y-62852176D01*
X142619415Y-62939838D01*
X142473643Y-63000219D01*
X142318893Y-63031000D01*
X142161107Y-63031000D01*
X142006357Y-63000219D01*
X141860585Y-62939838D01*
X141729389Y-62852176D01*
X141617824Y-62740611D01*
X141530162Y-62609415D01*
X141469781Y-62463643D01*
X141439000Y-62308893D01*
X141439000Y-62151107D01*
X141469781Y-61996357D01*
X141530162Y-61850585D01*
X141617824Y-61719389D01*
X141729389Y-61607824D01*
X141860585Y-61520162D01*
X142006357Y-61459781D01*
X142161107Y-61429000D01*
X142318893Y-61429000D01*
X142473643Y-61459781D01*
X142473643Y-61459781D01*
G37*
G36*
X145013643Y-61459781D02*
X145159415Y-61520162D01*
X145290611Y-61607824D01*
X145402176Y-61719389D01*
X145489838Y-61850585D01*
X145550219Y-61996357D01*
X145581000Y-62151107D01*
X145581000Y-62308893D01*
X145550219Y-62463643D01*
X145489838Y-62609415D01*
X145402176Y-62740611D01*
X145290611Y-62852176D01*
X145159415Y-62939838D01*
X145013643Y-63000219D01*
X144858893Y-63031000D01*
X144701107Y-63031000D01*
X144546357Y-63000219D01*
X144400585Y-62939838D01*
X144269389Y-62852176D01*
X144157824Y-62740611D01*
X144070162Y-62609415D01*
X144009781Y-62463643D01*
X143979000Y-62308893D01*
X143979000Y-62151107D01*
X144009781Y-61996357D01*
X144070162Y-61850585D01*
X144157824Y-61719389D01*
X144269389Y-61607824D01*
X144400585Y-61520162D01*
X144546357Y-61459781D01*
X144701107Y-61429000D01*
X144858893Y-61429000D01*
X145013643Y-61459781D01*
X145013643Y-61459781D01*
G37*
G36*
X147553643Y-61459781D02*
X147699415Y-61520162D01*
X147830611Y-61607824D01*
X147942176Y-61719389D01*
X148029838Y-61850585D01*
X148090219Y-61996357D01*
X148121000Y-62151107D01*
X148121000Y-62308893D01*
X148090219Y-62463643D01*
X148029838Y-62609415D01*
X147942176Y-62740611D01*
X147830611Y-62852176D01*
X147699415Y-62939838D01*
X147553643Y-63000219D01*
X147398893Y-63031000D01*
X147241107Y-63031000D01*
X147086357Y-63000219D01*
X146940585Y-62939838D01*
X146809389Y-62852176D01*
X146697824Y-62740611D01*
X146610162Y-62609415D01*
X146549781Y-62463643D01*
X146519000Y-62308893D01*
X146519000Y-62151107D01*
X146549781Y-61996357D01*
X146610162Y-61850585D01*
X146697824Y-61719389D01*
X146809389Y-61607824D01*
X146940585Y-61520162D01*
X147086357Y-61459781D01*
X147241107Y-61429000D01*
X147398893Y-61429000D01*
X147553643Y-61459781D01*
X147553643Y-61459781D01*
G37*
G36*
X150093643Y-61459781D02*
X150239415Y-61520162D01*
X150370611Y-61607824D01*
X150482176Y-61719389D01*
X150569838Y-61850585D01*
X150630219Y-61996357D01*
X150661000Y-62151107D01*
X150661000Y-62308893D01*
X150630219Y-62463643D01*
X150569838Y-62609415D01*
X150482176Y-62740611D01*
X150370611Y-62852176D01*
X150239415Y-62939838D01*
X150093643Y-63000219D01*
X149938893Y-63031000D01*
X149781107Y-63031000D01*
X149626357Y-63000219D01*
X149480585Y-62939838D01*
X149349389Y-62852176D01*
X149237824Y-62740611D01*
X149150162Y-62609415D01*
X149089781Y-62463643D01*
X149059000Y-62308893D01*
X149059000Y-62151107D01*
X149089781Y-61996357D01*
X149150162Y-61850585D01*
X149237824Y-61719389D01*
X149349389Y-61607824D01*
X149480585Y-61520162D01*
X149626357Y-61459781D01*
X149781107Y-61429000D01*
X149938893Y-61429000D01*
X150093643Y-61459781D01*
X150093643Y-61459781D01*
G37*
G36*
X129773643Y-61459781D02*
X129919415Y-61520162D01*
X130050611Y-61607824D01*
X130162176Y-61719389D01*
X130249838Y-61850585D01*
X130310219Y-61996357D01*
X130341000Y-62151107D01*
X130341000Y-62308893D01*
X130310219Y-62463643D01*
X130249838Y-62609415D01*
X130162176Y-62740611D01*
X130050611Y-62852176D01*
X129919415Y-62939838D01*
X129773643Y-63000219D01*
X129618893Y-63031000D01*
X129461107Y-63031000D01*
X129306357Y-63000219D01*
X129160585Y-62939838D01*
X129029389Y-62852176D01*
X128917824Y-62740611D01*
X128830162Y-62609415D01*
X128769781Y-62463643D01*
X128739000Y-62308893D01*
X128739000Y-62151107D01*
X128769781Y-61996357D01*
X128830162Y-61850585D01*
X128917824Y-61719389D01*
X129029389Y-61607824D01*
X129160585Y-61520162D01*
X129306357Y-61459781D01*
X129461107Y-61429000D01*
X129618893Y-61429000D01*
X129773643Y-61459781D01*
X129773643Y-61459781D01*
G37*
G36*
X127233643Y-61459781D02*
X127379415Y-61520162D01*
X127510611Y-61607824D01*
X127622176Y-61719389D01*
X127709838Y-61850585D01*
X127770219Y-61996357D01*
X127801000Y-62151107D01*
X127801000Y-62308893D01*
X127770219Y-62463643D01*
X127709838Y-62609415D01*
X127622176Y-62740611D01*
X127510611Y-62852176D01*
X127379415Y-62939838D01*
X127233643Y-63000219D01*
X127078893Y-63031000D01*
X126921107Y-63031000D01*
X126766357Y-63000219D01*
X126620585Y-62939838D01*
X126489389Y-62852176D01*
X126377824Y-62740611D01*
X126290162Y-62609415D01*
X126229781Y-62463643D01*
X126199000Y-62308893D01*
X126199000Y-62151107D01*
X126229781Y-61996357D01*
X126290162Y-61850585D01*
X126377824Y-61719389D01*
X126489389Y-61607824D01*
X126620585Y-61520162D01*
X126766357Y-61459781D01*
X126921107Y-61429000D01*
X127078893Y-61429000D01*
X127233643Y-61459781D01*
X127233643Y-61459781D01*
G37*
G36*
X80109485Y-60168996D02*
X80109487Y-60168997D01*
X80109488Y-60168997D01*
X80178049Y-60197396D01*
X80346255Y-60267069D01*
X80559342Y-60409449D01*
X80740551Y-60590658D01*
X80882931Y-60803745D01*
X80981004Y-61040515D01*
X81031000Y-61291861D01*
X81031000Y-61548139D01*
X80996936Y-61719392D01*
X80981003Y-61799488D01*
X80899457Y-61996357D01*
X80882931Y-62036255D01*
X80740551Y-62249342D01*
X80559342Y-62430551D01*
X80559339Y-62430553D01*
X80346255Y-62572931D01*
X80109488Y-62671003D01*
X80109487Y-62671003D01*
X80109485Y-62671004D01*
X79858139Y-62721000D01*
X79601861Y-62721000D01*
X79350515Y-62671004D01*
X79350513Y-62671003D01*
X79350512Y-62671003D01*
X79113745Y-62572931D01*
X78900661Y-62430553D01*
X78900658Y-62430551D01*
X78719449Y-62249342D01*
X78577069Y-62036255D01*
X78560543Y-61996357D01*
X78478997Y-61799488D01*
X78463065Y-61719392D01*
X78429000Y-61548139D01*
X78429000Y-61291861D01*
X78478996Y-61040515D01*
X78577069Y-60803745D01*
X78719449Y-60590658D01*
X78900658Y-60409449D01*
X79113745Y-60267069D01*
X79281951Y-60197396D01*
X79350512Y-60168997D01*
X79350513Y-60168997D01*
X79350515Y-60168996D01*
X79601861Y-60119000D01*
X79858139Y-60119000D01*
X80109485Y-60168996D01*
X80109485Y-60168996D01*
G37*
G36*
X172109485Y-60168996D02*
X172109487Y-60168997D01*
X172109488Y-60168997D01*
X172178049Y-60197396D01*
X172346255Y-60267069D01*
X172559342Y-60409449D01*
X172740551Y-60590658D01*
X172882931Y-60803745D01*
X172981004Y-61040515D01*
X173031000Y-61291861D01*
X173031000Y-61548139D01*
X172996936Y-61719392D01*
X172981003Y-61799488D01*
X172899457Y-61996357D01*
X172882931Y-62036255D01*
X172740551Y-62249342D01*
X172559342Y-62430551D01*
X172559339Y-62430553D01*
X172346255Y-62572931D01*
X172109488Y-62671003D01*
X172109487Y-62671003D01*
X172109485Y-62671004D01*
X171858139Y-62721000D01*
X171601861Y-62721000D01*
X171350515Y-62671004D01*
X171350513Y-62671003D01*
X171350512Y-62671003D01*
X171113745Y-62572931D01*
X170900661Y-62430553D01*
X170900658Y-62430551D01*
X170719449Y-62249342D01*
X170577069Y-62036255D01*
X170560543Y-61996357D01*
X170478997Y-61799488D01*
X170463065Y-61719392D01*
X170429000Y-61548139D01*
X170429000Y-61291861D01*
X170478996Y-61040515D01*
X170577069Y-60803745D01*
X170719449Y-60590658D01*
X170900658Y-60409449D01*
X171113745Y-60267069D01*
X171281951Y-60197396D01*
X171350512Y-60168997D01*
X171350513Y-60168997D01*
X171350515Y-60168996D01*
X171601861Y-60119000D01*
X171858139Y-60119000D01*
X172109485Y-60168996D01*
X172109485Y-60168996D01*
G37*
G36*
X155540710Y-61946790D02*
X154339290Y-61946790D01*
X154339290Y-60643770D01*
X155540710Y-60643770D01*
X155540710Y-61946790D01*
X155540710Y-61946790D01*
G37*
G36*
X109497396Y-59005546D02*
X109670466Y-59077234D01*
X109826230Y-59181312D01*
X109958688Y-59313770D01*
X110062766Y-59469534D01*
X110134454Y-59642604D01*
X110171000Y-59826333D01*
X110171000Y-60013667D01*
X110134454Y-60197396D01*
X110062766Y-60370466D01*
X109958688Y-60526230D01*
X109826230Y-60658688D01*
X109670466Y-60762766D01*
X109497396Y-60834454D01*
X109313667Y-60871000D01*
X109126333Y-60871000D01*
X108942604Y-60834454D01*
X108769534Y-60762766D01*
X108613770Y-60658688D01*
X108481312Y-60526230D01*
X108377234Y-60370466D01*
X108305546Y-60197396D01*
X108269000Y-60013667D01*
X108269000Y-59826333D01*
X108305546Y-59642604D01*
X108377234Y-59469534D01*
X108481312Y-59313770D01*
X108613770Y-59181312D01*
X108769534Y-59077234D01*
X108942604Y-59005546D01*
X109126333Y-58969000D01*
X109313667Y-58969000D01*
X109497396Y-59005546D01*
X109497396Y-59005546D01*
G37*
G36*
X127277396Y-59005546D02*
X127450466Y-59077234D01*
X127606230Y-59181312D01*
X127738688Y-59313770D01*
X127842766Y-59469534D01*
X127914454Y-59642604D01*
X127951000Y-59826333D01*
X127951000Y-60013667D01*
X127914454Y-60197396D01*
X127842766Y-60370466D01*
X127738688Y-60526230D01*
X127606230Y-60658688D01*
X127450466Y-60762766D01*
X127277396Y-60834454D01*
X127093667Y-60871000D01*
X126906333Y-60871000D01*
X126722604Y-60834454D01*
X126549534Y-60762766D01*
X126393770Y-60658688D01*
X126261312Y-60526230D01*
X126157234Y-60370466D01*
X126085546Y-60197396D01*
X126049000Y-60013667D01*
X126049000Y-59826333D01*
X126085546Y-59642604D01*
X126157234Y-59469534D01*
X126261312Y-59313770D01*
X126393770Y-59181312D01*
X126549534Y-59077234D01*
X126722604Y-59005546D01*
X126906333Y-58969000D01*
X127093667Y-58969000D01*
X127277396Y-59005546D01*
X127277396Y-59005546D01*
G37*
G36*
X137437396Y-59005546D02*
X137610466Y-59077234D01*
X137766230Y-59181312D01*
X137898688Y-59313770D01*
X138002766Y-59469534D01*
X138074454Y-59642604D01*
X138111000Y-59826333D01*
X138111000Y-60013667D01*
X138074454Y-60197396D01*
X138002766Y-60370466D01*
X137898688Y-60526230D01*
X137766230Y-60658688D01*
X137610466Y-60762766D01*
X137437396Y-60834454D01*
X137253667Y-60871000D01*
X137066333Y-60871000D01*
X136882604Y-60834454D01*
X136709534Y-60762766D01*
X136553770Y-60658688D01*
X136421312Y-60526230D01*
X136317234Y-60370466D01*
X136245546Y-60197396D01*
X136209000Y-60013667D01*
X136209000Y-59826333D01*
X136245546Y-59642604D01*
X136317234Y-59469534D01*
X136421312Y-59313770D01*
X136553770Y-59181312D01*
X136709534Y-59077234D01*
X136882604Y-59005546D01*
X137066333Y-58969000D01*
X137253667Y-58969000D01*
X137437396Y-59005546D01*
X137437396Y-59005546D01*
G37*
G36*
X139977396Y-59005546D02*
X140150466Y-59077234D01*
X140306230Y-59181312D01*
X140438688Y-59313770D01*
X140542766Y-59469534D01*
X140614454Y-59642604D01*
X140651000Y-59826333D01*
X140651000Y-60013667D01*
X140614454Y-60197396D01*
X140542766Y-60370466D01*
X140438688Y-60526230D01*
X140306230Y-60658688D01*
X140150466Y-60762766D01*
X139977396Y-60834454D01*
X139793667Y-60871000D01*
X139606333Y-60871000D01*
X139422604Y-60834454D01*
X139249534Y-60762766D01*
X139093770Y-60658688D01*
X138961312Y-60526230D01*
X138857234Y-60370466D01*
X138785546Y-60197396D01*
X138749000Y-60013667D01*
X138749000Y-59826333D01*
X138785546Y-59642604D01*
X138857234Y-59469534D01*
X138961312Y-59313770D01*
X139093770Y-59181312D01*
X139249534Y-59077234D01*
X139422604Y-59005546D01*
X139606333Y-58969000D01*
X139793667Y-58969000D01*
X139977396Y-59005546D01*
X139977396Y-59005546D01*
G37*
G36*
X142517396Y-59005546D02*
X142690466Y-59077234D01*
X142846230Y-59181312D01*
X142978688Y-59313770D01*
X143082766Y-59469534D01*
X143154454Y-59642604D01*
X143191000Y-59826333D01*
X143191000Y-60013667D01*
X143154454Y-60197396D01*
X143082766Y-60370466D01*
X142978688Y-60526230D01*
X142846230Y-60658688D01*
X142690466Y-60762766D01*
X142517396Y-60834454D01*
X142333667Y-60871000D01*
X142146333Y-60871000D01*
X141962604Y-60834454D01*
X141789534Y-60762766D01*
X141633770Y-60658688D01*
X141501312Y-60526230D01*
X141397234Y-60370466D01*
X141325546Y-60197396D01*
X141289000Y-60013667D01*
X141289000Y-59826333D01*
X141325546Y-59642604D01*
X141397234Y-59469534D01*
X141501312Y-59313770D01*
X141633770Y-59181312D01*
X141789534Y-59077234D01*
X141962604Y-59005546D01*
X142146333Y-58969000D01*
X142333667Y-58969000D01*
X142517396Y-59005546D01*
X142517396Y-59005546D01*
G37*
G36*
X145057396Y-59005546D02*
X145230466Y-59077234D01*
X145386230Y-59181312D01*
X145518688Y-59313770D01*
X145622766Y-59469534D01*
X145694454Y-59642604D01*
X145731000Y-59826333D01*
X145731000Y-60013667D01*
X145694454Y-60197396D01*
X145622766Y-60370466D01*
X145518688Y-60526230D01*
X145386230Y-60658688D01*
X145230466Y-60762766D01*
X145057396Y-60834454D01*
X144873667Y-60871000D01*
X144686333Y-60871000D01*
X144502604Y-60834454D01*
X144329534Y-60762766D01*
X144173770Y-60658688D01*
X144041312Y-60526230D01*
X143937234Y-60370466D01*
X143865546Y-60197396D01*
X143829000Y-60013667D01*
X143829000Y-59826333D01*
X143865546Y-59642604D01*
X143937234Y-59469534D01*
X144041312Y-59313770D01*
X144173770Y-59181312D01*
X144329534Y-59077234D01*
X144502604Y-59005546D01*
X144686333Y-58969000D01*
X144873667Y-58969000D01*
X145057396Y-59005546D01*
X145057396Y-59005546D01*
G37*
G36*
X147597396Y-59005546D02*
X147770466Y-59077234D01*
X147926230Y-59181312D01*
X148058688Y-59313770D01*
X148162766Y-59469534D01*
X148234454Y-59642604D01*
X148271000Y-59826333D01*
X148271000Y-60013667D01*
X148234454Y-60197396D01*
X148162766Y-60370466D01*
X148058688Y-60526230D01*
X147926230Y-60658688D01*
X147770466Y-60762766D01*
X147597396Y-60834454D01*
X147413667Y-60871000D01*
X147226333Y-60871000D01*
X147042604Y-60834454D01*
X146869534Y-60762766D01*
X146713770Y-60658688D01*
X146581312Y-60526230D01*
X146477234Y-60370466D01*
X146405546Y-60197396D01*
X146369000Y-60013667D01*
X146369000Y-59826333D01*
X146405546Y-59642604D01*
X146477234Y-59469534D01*
X146581312Y-59313770D01*
X146713770Y-59181312D01*
X146869534Y-59077234D01*
X147042604Y-59005546D01*
X147226333Y-58969000D01*
X147413667Y-58969000D01*
X147597396Y-59005546D01*
X147597396Y-59005546D01*
G37*
G36*
X150137396Y-59005546D02*
X150310466Y-59077234D01*
X150466230Y-59181312D01*
X150598688Y-59313770D01*
X150702766Y-59469534D01*
X150774454Y-59642604D01*
X150811000Y-59826333D01*
X150811000Y-60013667D01*
X150774454Y-60197396D01*
X150702766Y-60370466D01*
X150598688Y-60526230D01*
X150466230Y-60658688D01*
X150310466Y-60762766D01*
X150137396Y-60834454D01*
X149953667Y-60871000D01*
X149766333Y-60871000D01*
X149582604Y-60834454D01*
X149409534Y-60762766D01*
X149253770Y-60658688D01*
X149121312Y-60526230D01*
X149017234Y-60370466D01*
X148945546Y-60197396D01*
X148909000Y-60013667D01*
X148909000Y-59826333D01*
X148945546Y-59642604D01*
X149017234Y-59469534D01*
X149121312Y-59313770D01*
X149253770Y-59181312D01*
X149409534Y-59077234D01*
X149582604Y-59005546D01*
X149766333Y-58969000D01*
X149953667Y-58969000D01*
X150137396Y-59005546D01*
X150137396Y-59005546D01*
G37*
G36*
X114577396Y-59005546D02*
X114750466Y-59077234D01*
X114906230Y-59181312D01*
X115038688Y-59313770D01*
X115142766Y-59469534D01*
X115214454Y-59642604D01*
X115251000Y-59826333D01*
X115251000Y-60013667D01*
X115214454Y-60197396D01*
X115142766Y-60370466D01*
X115038688Y-60526230D01*
X114906230Y-60658688D01*
X114750466Y-60762766D01*
X114577396Y-60834454D01*
X114393667Y-60871000D01*
X114206333Y-60871000D01*
X114022604Y-60834454D01*
X113849534Y-60762766D01*
X113693770Y-60658688D01*
X113561312Y-60526230D01*
X113457234Y-60370466D01*
X113385546Y-60197396D01*
X113349000Y-60013667D01*
X113349000Y-59826333D01*
X113385546Y-59642604D01*
X113457234Y-59469534D01*
X113561312Y-59313770D01*
X113693770Y-59181312D01*
X113849534Y-59077234D01*
X114022604Y-59005546D01*
X114206333Y-58969000D01*
X114393667Y-58969000D01*
X114577396Y-59005546D01*
X114577396Y-59005546D01*
G37*
G36*
X106957396Y-59005546D02*
X107130466Y-59077234D01*
X107286230Y-59181312D01*
X107418688Y-59313770D01*
X107522766Y-59469534D01*
X107594454Y-59642604D01*
X107631000Y-59826333D01*
X107631000Y-60013667D01*
X107594454Y-60197396D01*
X107522766Y-60370466D01*
X107418688Y-60526230D01*
X107286230Y-60658688D01*
X107130466Y-60762766D01*
X106957396Y-60834454D01*
X106773667Y-60871000D01*
X106586333Y-60871000D01*
X106402604Y-60834454D01*
X106229534Y-60762766D01*
X106073770Y-60658688D01*
X105941312Y-60526230D01*
X105837234Y-60370466D01*
X105765546Y-60197396D01*
X105729000Y-60013667D01*
X105729000Y-59826333D01*
X105765546Y-59642604D01*
X105837234Y-59469534D01*
X105941312Y-59313770D01*
X106073770Y-59181312D01*
X106229534Y-59077234D01*
X106402604Y-59005546D01*
X106586333Y-58969000D01*
X106773667Y-58969000D01*
X106957396Y-59005546D01*
X106957396Y-59005546D01*
G37*
G36*
X104417396Y-59005546D02*
X104590466Y-59077234D01*
X104746230Y-59181312D01*
X104878688Y-59313770D01*
X104982766Y-59469534D01*
X105054454Y-59642604D01*
X105091000Y-59826333D01*
X105091000Y-60013667D01*
X105054454Y-60197396D01*
X104982766Y-60370466D01*
X104878688Y-60526230D01*
X104746230Y-60658688D01*
X104590466Y-60762766D01*
X104417396Y-60834454D01*
X104233667Y-60871000D01*
X104046333Y-60871000D01*
X103862604Y-60834454D01*
X103689534Y-60762766D01*
X103533770Y-60658688D01*
X103401312Y-60526230D01*
X103297234Y-60370466D01*
X103225546Y-60197396D01*
X103189000Y-60013667D01*
X103189000Y-59826333D01*
X103225546Y-59642604D01*
X103297234Y-59469534D01*
X103401312Y-59313770D01*
X103533770Y-59181312D01*
X103689534Y-59077234D01*
X103862604Y-59005546D01*
X104046333Y-58969000D01*
X104233667Y-58969000D01*
X104417396Y-59005546D01*
X104417396Y-59005546D01*
G37*
G36*
X134897396Y-59005546D02*
X135070466Y-59077234D01*
X135226230Y-59181312D01*
X135358688Y-59313770D01*
X135462766Y-59469534D01*
X135534454Y-59642604D01*
X135571000Y-59826333D01*
X135571000Y-60013667D01*
X135534454Y-60197396D01*
X135462766Y-60370466D01*
X135358688Y-60526230D01*
X135226230Y-60658688D01*
X135070466Y-60762766D01*
X134897396Y-60834454D01*
X134713667Y-60871000D01*
X134526333Y-60871000D01*
X134342604Y-60834454D01*
X134169534Y-60762766D01*
X134013770Y-60658688D01*
X133881312Y-60526230D01*
X133777234Y-60370466D01*
X133705546Y-60197396D01*
X133669000Y-60013667D01*
X133669000Y-59826333D01*
X133705546Y-59642604D01*
X133777234Y-59469534D01*
X133881312Y-59313770D01*
X134013770Y-59181312D01*
X134169534Y-59077234D01*
X134342604Y-59005546D01*
X134526333Y-58969000D01*
X134713667Y-58969000D01*
X134897396Y-59005546D01*
X134897396Y-59005546D01*
G37*
G36*
X124737396Y-59005546D02*
X124910466Y-59077234D01*
X125066230Y-59181312D01*
X125198688Y-59313770D01*
X125302766Y-59469534D01*
X125374454Y-59642604D01*
X125411000Y-59826333D01*
X125411000Y-60013667D01*
X125374454Y-60197396D01*
X125302766Y-60370466D01*
X125198688Y-60526230D01*
X125066230Y-60658688D01*
X124910466Y-60762766D01*
X124737396Y-60834454D01*
X124553667Y-60871000D01*
X124366333Y-60871000D01*
X124182604Y-60834454D01*
X124009534Y-60762766D01*
X123853770Y-60658688D01*
X123721312Y-60526230D01*
X123617234Y-60370466D01*
X123545546Y-60197396D01*
X123509000Y-60013667D01*
X123509000Y-59826333D01*
X123545546Y-59642604D01*
X123617234Y-59469534D01*
X123721312Y-59313770D01*
X123853770Y-59181312D01*
X124009534Y-59077234D01*
X124182604Y-59005546D01*
X124366333Y-58969000D01*
X124553667Y-58969000D01*
X124737396Y-59005546D01*
X124737396Y-59005546D01*
G37*
G36*
X119657396Y-59005546D02*
X119830466Y-59077234D01*
X119986230Y-59181312D01*
X120118688Y-59313770D01*
X120222766Y-59469534D01*
X120294454Y-59642604D01*
X120331000Y-59826333D01*
X120331000Y-60013667D01*
X120294454Y-60197396D01*
X120222766Y-60370466D01*
X120118688Y-60526230D01*
X119986230Y-60658688D01*
X119830466Y-60762766D01*
X119657396Y-60834454D01*
X119473667Y-60871000D01*
X119286333Y-60871000D01*
X119102604Y-60834454D01*
X118929534Y-60762766D01*
X118773770Y-60658688D01*
X118641312Y-60526230D01*
X118537234Y-60370466D01*
X118465546Y-60197396D01*
X118429000Y-60013667D01*
X118429000Y-59826333D01*
X118465546Y-59642604D01*
X118537234Y-59469534D01*
X118641312Y-59313770D01*
X118773770Y-59181312D01*
X118929534Y-59077234D01*
X119102604Y-59005546D01*
X119286333Y-58969000D01*
X119473667Y-58969000D01*
X119657396Y-59005546D01*
X119657396Y-59005546D01*
G37*
G36*
X112037396Y-59005546D02*
X112210466Y-59077234D01*
X112366230Y-59181312D01*
X112498688Y-59313770D01*
X112602766Y-59469534D01*
X112674454Y-59642604D01*
X112711000Y-59826333D01*
X112711000Y-60013667D01*
X112674454Y-60197396D01*
X112602766Y-60370466D01*
X112498688Y-60526230D01*
X112366230Y-60658688D01*
X112210466Y-60762766D01*
X112037396Y-60834454D01*
X111853667Y-60871000D01*
X111666333Y-60871000D01*
X111482604Y-60834454D01*
X111309534Y-60762766D01*
X111153770Y-60658688D01*
X111021312Y-60526230D01*
X110917234Y-60370466D01*
X110845546Y-60197396D01*
X110809000Y-60013667D01*
X110809000Y-59826333D01*
X110845546Y-59642604D01*
X110917234Y-59469534D01*
X111021312Y-59313770D01*
X111153770Y-59181312D01*
X111309534Y-59077234D01*
X111482604Y-59005546D01*
X111666333Y-58969000D01*
X111853667Y-58969000D01*
X112037396Y-59005546D01*
X112037396Y-59005546D01*
G37*
G36*
X117117396Y-59005546D02*
X117290466Y-59077234D01*
X117446230Y-59181312D01*
X117578688Y-59313770D01*
X117682766Y-59469534D01*
X117754454Y-59642604D01*
X117791000Y-59826333D01*
X117791000Y-60013667D01*
X117754454Y-60197396D01*
X117682766Y-60370466D01*
X117578688Y-60526230D01*
X117446230Y-60658688D01*
X117290466Y-60762766D01*
X117117396Y-60834454D01*
X116933667Y-60871000D01*
X116746333Y-60871000D01*
X116562604Y-60834454D01*
X116389534Y-60762766D01*
X116233770Y-60658688D01*
X116101312Y-60526230D01*
X115997234Y-60370466D01*
X115925546Y-60197396D01*
X115889000Y-60013667D01*
X115889000Y-59826333D01*
X115925546Y-59642604D01*
X115997234Y-59469534D01*
X116101312Y-59313770D01*
X116233770Y-59181312D01*
X116389534Y-59077234D01*
X116562604Y-59005546D01*
X116746333Y-58969000D01*
X116933667Y-58969000D01*
X117117396Y-59005546D01*
X117117396Y-59005546D01*
G37*
G36*
X101877396Y-59005546D02*
X102050466Y-59077234D01*
X102206230Y-59181312D01*
X102338688Y-59313770D01*
X102442766Y-59469534D01*
X102514454Y-59642604D01*
X102551000Y-59826333D01*
X102551000Y-60013667D01*
X102514454Y-60197396D01*
X102442766Y-60370466D01*
X102338688Y-60526230D01*
X102206230Y-60658688D01*
X102050466Y-60762766D01*
X101877396Y-60834454D01*
X101693667Y-60871000D01*
X101506333Y-60871000D01*
X101322604Y-60834454D01*
X101149534Y-60762766D01*
X100993770Y-60658688D01*
X100861312Y-60526230D01*
X100757234Y-60370466D01*
X100685546Y-60197396D01*
X100649000Y-60013667D01*
X100649000Y-59826333D01*
X100685546Y-59642604D01*
X100757234Y-59469534D01*
X100861312Y-59313770D01*
X100993770Y-59181312D01*
X101149534Y-59077234D01*
X101322604Y-59005546D01*
X101506333Y-58969000D01*
X101693667Y-58969000D01*
X101877396Y-59005546D01*
X101877396Y-59005546D01*
G37*
G36*
X132357396Y-59005546D02*
X132530466Y-59077234D01*
X132686230Y-59181312D01*
X132818688Y-59313770D01*
X132922766Y-59469534D01*
X132994454Y-59642604D01*
X133031000Y-59826333D01*
X133031000Y-60013667D01*
X132994454Y-60197396D01*
X132922766Y-60370466D01*
X132818688Y-60526230D01*
X132686230Y-60658688D01*
X132530466Y-60762766D01*
X132357396Y-60834454D01*
X132173667Y-60871000D01*
X131986333Y-60871000D01*
X131802604Y-60834454D01*
X131629534Y-60762766D01*
X131473770Y-60658688D01*
X131341312Y-60526230D01*
X131237234Y-60370466D01*
X131165546Y-60197396D01*
X131129000Y-60013667D01*
X131129000Y-59826333D01*
X131165546Y-59642604D01*
X131237234Y-59469534D01*
X131341312Y-59313770D01*
X131473770Y-59181312D01*
X131629534Y-59077234D01*
X131802604Y-59005546D01*
X131986333Y-58969000D01*
X132173667Y-58969000D01*
X132357396Y-59005546D01*
X132357396Y-59005546D01*
G37*
G36*
X129817396Y-59005546D02*
X129990466Y-59077234D01*
X130146230Y-59181312D01*
X130278688Y-59313770D01*
X130382766Y-59469534D01*
X130454454Y-59642604D01*
X130491000Y-59826333D01*
X130491000Y-60013667D01*
X130454454Y-60197396D01*
X130382766Y-60370466D01*
X130278688Y-60526230D01*
X130146230Y-60658688D01*
X129990466Y-60762766D01*
X129817396Y-60834454D01*
X129633667Y-60871000D01*
X129446333Y-60871000D01*
X129262604Y-60834454D01*
X129089534Y-60762766D01*
X128933770Y-60658688D01*
X128801312Y-60526230D01*
X128697234Y-60370466D01*
X128625546Y-60197396D01*
X128589000Y-60013667D01*
X128589000Y-59826333D01*
X128625546Y-59642604D01*
X128697234Y-59469534D01*
X128801312Y-59313770D01*
X128933770Y-59181312D01*
X129089534Y-59077234D01*
X129262604Y-59005546D01*
X129446333Y-58969000D01*
X129633667Y-58969000D01*
X129817396Y-59005546D01*
X129817396Y-59005546D01*
G37*
G36*
X122197396Y-59005546D02*
X122370466Y-59077234D01*
X122526230Y-59181312D01*
X122658688Y-59313770D01*
X122762766Y-59469534D01*
X122834454Y-59642604D01*
X122871000Y-59826333D01*
X122871000Y-60013667D01*
X122834454Y-60197396D01*
X122762766Y-60370466D01*
X122658688Y-60526230D01*
X122526230Y-60658688D01*
X122370466Y-60762766D01*
X122197396Y-60834454D01*
X122013667Y-60871000D01*
X121826333Y-60871000D01*
X121642604Y-60834454D01*
X121469534Y-60762766D01*
X121313770Y-60658688D01*
X121181312Y-60526230D01*
X121077234Y-60370466D01*
X121005546Y-60197396D01*
X120969000Y-60013667D01*
X120969000Y-59826333D01*
X121005546Y-59642604D01*
X121077234Y-59469534D01*
X121181312Y-59313770D01*
X121313770Y-59181312D01*
X121469534Y-59077234D01*
X121642604Y-59005546D01*
X121826333Y-58969000D01*
X122013667Y-58969000D01*
X122197396Y-59005546D01*
X122197396Y-59005546D01*
G37*
G36*
X167361000Y-60681000D02*
X165709000Y-60681000D01*
X165709000Y-59279000D01*
X167361000Y-59279000D01*
X167361000Y-60681000D01*
X167361000Y-60681000D01*
G37*
G36*
X159411000Y-60681000D02*
X157759000Y-60681000D01*
X157759000Y-59279000D01*
X159411000Y-59279000D01*
X159411000Y-60681000D01*
X159411000Y-60681000D01*
G37*
M02*
