M48
;DRILL file {KiCad 5.0.1-33cea8e~68~ubuntu16.04.1} date Sun 03 Mar 2019 04:00:20 AM MST
;FORMAT={-:-/ absolute / metric / decimal}
FMAT,2
METRIC,TZ
T1C0.400
T2C0.500
T3C0.550
T4C0.699
T5C0.700
T6C0.899
T7C1.000
T8C1.100
T9C2.500
T10C2.800
%
G90
G05
M71
T1
X137.16Y-65.024
X142.24Y-66.04
X164.084Y-64.48
X164.592Y-78.232
T4
X82.57Y-81.28
X85.07Y-81.28
X139.7Y-86.36
X144.78Y-86.36
T5
X113.03Y-87.63
X92.71Y-68.58
X149.86Y-62.23
X132.08Y-62.23
X116.84Y-62.23
X115.57Y-87.63
X111.76Y-62.23
X161.29Y-85.09
X147.32Y-62.23
X123.19Y-87.63
X128.27Y-81.28
X161.29Y-87.63
X119.38Y-62.23
X146.05Y-81.28
X105.41Y-87.63
X148.59Y-81.28
X97.79Y-87.63
X118.11Y-68.58
X138.43Y-81.28
X144.78Y-62.23
X151.13Y-81.28
X133.35Y-68.58
X121.92Y-62.23
X97.79Y-68.58
X130.81Y-81.28
X115.57Y-68.58
X137.16Y-62.23
X129.54Y-62.23
X134.62Y-62.23
X151.13Y-68.58
X161.29Y-81.28
X95.25Y-68.58
X113.03Y-68.58
X153.67Y-68.58
X101.6Y-62.23
X102.87Y-68.58
X102.87Y-87.63
X107.95Y-87.63
X120.65Y-68.58
X114.3Y-62.23
X110.49Y-87.63
X163.83Y-85.09
X133.35Y-81.28
X146.05Y-68.58
X100.33Y-68.58
X92.71Y-87.63
X138.43Y-68.58
X100.33Y-87.63
X109.22Y-62.23
X105.41Y-68.58
X135.89Y-81.28
X166.37Y-87.63
X161.29Y-68.58
X123.19Y-68.58
X93.98Y-80.01
X127.Y-62.23
X153.67Y-81.28
X130.81Y-68.58
X156.21Y-68.58
X95.25Y-87.63
X106.68Y-62.23
X93.98Y-82.55
X93.98Y-77.47
X148.59Y-68.58
X142.24Y-62.23
X140.97Y-68.58
X166.37Y-85.09
X124.46Y-62.23
X140.97Y-81.28
X143.51Y-81.28
X158.75Y-68.58
X118.11Y-87.63
X120.65Y-87.63
X143.51Y-68.58
X93.98Y-72.39
X158.75Y-81.28
X135.89Y-68.58
X128.27Y-68.58
X110.49Y-68.58
X156.21Y-81.28
X93.98Y-74.93
X107.95Y-68.58
X104.14Y-62.23
X90.17Y-87.63
X139.7Y-62.23
X90.17Y-68.58
T6
X114.861Y-77.47
X121.359Y-77.47
T7
X128.27Y-71.12
X128.27Y-78.74
X130.81Y-71.12
X130.81Y-78.74
X133.35Y-71.12
X133.35Y-78.74
X135.89Y-71.12
X135.89Y-78.74
X138.43Y-71.12
X138.43Y-78.74
X140.97Y-71.12
X140.97Y-78.74
X143.51Y-71.12
X143.51Y-78.74
X146.05Y-71.12
X146.05Y-78.74
X148.59Y-71.12
X148.59Y-78.74
X151.13Y-71.12
X151.13Y-78.74
X153.67Y-71.12
X153.67Y-78.74
X156.21Y-71.12
X156.21Y-78.74
X158.75Y-71.12
X158.75Y-78.74
X161.29Y-71.12
X161.29Y-78.74
X101.6Y-59.92
X104.14Y-59.92
X106.68Y-59.92
X109.22Y-59.92
X111.76Y-59.92
X114.3Y-59.92
X116.84Y-59.92
X119.38Y-59.92
X121.92Y-59.92
X124.46Y-59.92
X127.Y-59.92
X129.54Y-59.92
X132.08Y-59.92
X134.62Y-59.92
X137.16Y-59.92
X139.7Y-59.92
X142.24Y-59.92
X144.78Y-59.92
X147.32Y-59.92
X149.86Y-59.92
T8
X166.37Y-72.39
X166.37Y-77.47
X168.91Y-72.43
X168.91Y-74.93
X168.91Y-77.47
T9
X79.73Y-61.42
X79.73Y-87.08
X171.73Y-61.42
X171.73Y-87.08
T10
X167.64Y-69.08
X167.64Y-80.78
T2
X82.715Y-68.89G85X82.065Y-68.89
G05
X82.715Y-75.89G85X82.065Y-75.89
G05
T3
X85.09Y-69.74G85X85.09Y-70.04
G05
X85.09Y-74.74G85X85.09Y-75.04
G05
T0
M30
